<svg width="616" height="239" viewBox="0 0 616 239" fill="none" xmlns="http://www.w3.org/2000/svg">
<path d="M467.027 307.239C465.792 290.574 462.01 273.974 457.138 258.031C453.372 245.718 449.477 231.012 439.556 222.117C415.34 200.411 383.671 193.155 356.184 177.245C355.463 171.561 354.758 165.926 354.181 160.259C354.806 159.97 355.255 159.392 355.175 158.573C354.518 152.344 354.518 146.227 355.127 140.191C357.178 135.31 358.348 130.317 358.653 124.987C358.813 124.634 360.383 125.404 360.544 125.099C371.891 124.907 376.747 112.609 372.516 103.474C373.686 102.575 374.038 100.375 372.436 99.6207C370.737 98.8179 369.038 98.0313 367.323 97.2285C365.688 96.4579 361.65 97.9028 361.826 99.412C360.64 99.9578 361.569 100.793 360.528 101.74C361.746 96.3134 361.778 90.1003 361.746 85.3481C361.714 76.6947 359.823 67.9289 354.646 60.8488C346.264 49.3537 332.096 44.2484 318.281 46.5281C318.072 46.5602 317.88 46.6244 317.72 46.7047C304.145 45.1956 286.708 50.2367 278.726 61.1699C273.854 67.8326 271.915 75.9562 271.675 84.1119C271.53 89.1691 271.482 96.1208 272.828 102.029C271.803 101.098 270.713 100.327 269.527 99.7812C269.687 98.2721 267.7 96.7629 266.065 97.5336C264.366 98.3363 262.667 99.123 260.952 99.9257C259.35 100.68 257.635 103.602 258.805 104.501C254.59 113.62 262.908 124.088 274.271 124.281C274.431 124.586 274.591 124.923 274.752 125.276C275.056 130.622 275.232 138.264 277.284 143.145C277.909 149.197 278.903 152.633 278.246 158.862C278.165 159.681 278.614 160.259 279.239 160.548C278.662 166.215 277.957 171.85 277.236 177.534C249.75 193.444 218.097 200.7 193.864 222.406C183.943 231.301 180.033 246.039 176.282 258.32C171.442 274.134 167.692 290.574 166.426 307.094C164.182 307.431 164.262 310.883 166.682 310.963C216.894 312.745 267.299 414.901 317.544 415.045C367.051 415.19 416.83 313.869 466.305 312.087C469.222 311.975 469.463 307.801 467.011 307.207L467.027 307.239Z" fill="white"/>
<path d="M270.951 59.6927C270.951 59.6927 266.223 71.7658 267.233 78.4285C268.242 85.0911 272.393 100.857 272.393 100.857L274.22 103.185C274.22 103.185 271.848 87.7401 280.15 78.4285L281.833 59.2432C281.833 59.2432 296.257 52.3879 315.826 51.7939C335.395 51.1999 350.845 59.2432 350.845 59.2432L352.64 77.7221L358.105 87.3066V102.109L361.84 99.4118C361.84 99.4118 368.106 74.0455 361.295 55.647C361.295 55.647 370.622 36.9273 364.773 35.7072C364.773 35.7072 369.981 23.3291 356.038 31.6614C356.038 31.6614 358.442 25.8336 353.618 26.6363C353.618 26.6363 358.137 16.233 348.489 22.2695C348.489 22.2695 345.749 6.55203 336.629 18.8017C336.629 18.8017 335.652 9.84321 330.635 14.6756C330.635 14.6756 328.632 9.68268 326.18 14.5954C326.18 14.5954 319.176 0.772363 314.753 15.4784C314.753 15.4784 307.108 5.26767 302.444 16.6022C302.444 16.6022 298.645 15.0289 299.495 20.359C299.495 20.359 287.475 13.8248 281.016 21.2259C274.573 28.6271 276.657 30.7624 276.657 30.7624C276.657 30.7624 271.304 29.478 269.669 32.7531C268.034 36.0283 270.967 59.6446 270.967 59.6446L270.951 59.6927Z" fill="#1E1E1E"/>
<path d="M299.801 122.996C299.801 129.017 294.929 133.897 288.919 133.897C282.909 133.897 278.037 129.017 278.037 122.996C278.037 116.976 282.909 112.095 288.919 112.095C294.929 112.095 299.801 116.976 299.801 122.996Z" fill="#FFEEEE"/>
<path d="M353.731 122.996C353.731 129.017 348.859 133.897 342.849 133.897C336.839 133.897 331.967 129.017 331.967 122.996C331.967 116.976 336.839 112.095 342.849 112.095C348.859 112.095 353.731 116.976 353.731 122.996Z" fill="#FFEEEE"/>
<path d="M274.207 87.3067C273.069 97.983 273.117 108.788 273.678 119.496C274.143 128.439 274.463 138.039 277.46 146.58C282.829 161.912 297.574 168.286 312.239 171.947C312.784 172.091 312.992 171.288 312.463 171.112C295.042 165.123 280.634 158.027 277.092 138.168C274.127 121.455 274.848 104.18 274.96 87.3067C274.96 86.809 274.239 86.8251 274.191 87.3067H274.207Z" fill="#1E1E1E"/>
<path d="M277.573 145.456C277.797 156.743 277.813 168.029 277.508 179.316C277.492 180.199 278.871 180.215 278.887 179.316C279.047 168.013 278.887 156.743 278.31 145.456C278.278 144.975 277.557 144.975 277.557 145.456H277.573Z" fill="#1E1E1E"/>
<path d="M278.054 175.286C264.912 184.453 250.84 191.116 236.175 197.441C222.168 203.494 206.878 209.418 195.643 220.11C184.809 230.417 180.754 245.99 175.898 259.685C170.064 276.157 164.23 293.464 163.028 311.011C162.98 311.67 164.054 311.814 164.182 311.172C167.147 294.684 170.946 278.822 176.443 262.976C182.261 246.199 186.844 228.057 201.653 216.931C225.053 199.352 255.985 194.969 278.47 175.848C278.775 175.591 278.374 175.045 278.038 175.286H278.054Z" fill="#1E1E1E"/>
<path d="M274.063 103.49C273.486 99.5564 269.592 97.084 265.793 96.7629C260.633 96.3294 258.725 99.8293 258.004 104.405C257.043 110.425 257.86 115.21 261.754 119.978C264.767 123.654 268.902 127.202 273.887 125.388C274.8 125.051 274.448 123.638 273.486 123.911C266.226 125.918 259.543 116.189 259.222 109.863C259.11 107.6 259.094 103.811 260.184 101.82C263.309 96.0726 271.194 98.2238 273.134 103.731C273.342 104.325 274.143 104.084 274.063 103.474V103.49Z" fill="#1E1E1E"/>
<path d="M262.443 109.671C262.683 107.905 263.388 106.251 264.639 104.951C265.985 103.57 267.523 103.153 269.302 102.703C270.008 102.526 269.799 101.563 269.142 101.499C265.007 101.098 261.305 105.689 261.513 109.542C261.545 110.04 262.363 110.233 262.443 109.671Z" fill="#1E1E1E"/>
<path d="M264.367 104.854C265.505 106.749 266.514 108.675 267.22 110.779C267.861 112.689 268.005 114.632 268.518 116.558C268.678 117.152 269.495 116.992 269.543 116.414C269.88 112.24 267.524 107.536 264.88 104.453C264.639 104.164 264.19 104.533 264.367 104.838V104.854Z" fill="#1E1E1E"/>
<path d="M270.57 59.5804C266.259 72.2636 265.986 86.4398 270.875 99.0266C271.115 99.6688 272.109 99.4279 271.916 98.7376C268.23 85.4925 267.653 73.1305 271.339 59.7891C271.484 59.2915 270.73 59.0988 270.57 59.5804Z" fill="#1E1E1E"/>
<path d="M281.403 59.2432C280.634 65.6169 280.073 72.0227 279.496 78.4285C279.416 79.2633 280.73 79.2633 280.81 78.4285C281.355 72.0387 281.9 65.649 282.269 59.2432C282.301 58.6813 281.484 58.7134 281.419 59.2432H281.403Z" fill="#1E1E1E"/>
<path d="M279.673 77.3529C276.788 80.8207 273.487 86.0866 273.984 90.8067C274 91.0314 274.336 91.1759 274.448 90.9351C275.41 88.8961 275.795 86.6003 276.692 84.5132C277.686 82.1853 278.984 80.0179 280.507 77.9951C280.859 77.5295 280.058 76.9034 279.673 77.3529Z" fill="#1E1E1E"/>
<path d="M276.805 62.5024C289.594 54.8925 302.352 53.7205 316.856 52.2756C317.433 52.2114 317.465 51.3284 316.856 51.3445C303.153 51.6174 287.463 53.0623 276.404 61.9886C276.116 62.2295 276.484 62.695 276.805 62.5024Z" fill="#1E1E1E"/>
<path d="M357.707 87.3067C357.82 104.18 358.557 121.471 355.576 138.168C352.05 158.011 337.626 165.123 320.204 171.112C319.676 171.288 319.884 172.091 320.429 171.947C335.109 168.286 349.806 161.912 355.207 146.58C358.044 138.521 358.429 129.466 358.909 121.021C359.55 109.815 359.647 98.4807 358.461 87.3067C358.413 86.8251 357.691 86.809 357.691 87.3067H357.707Z" fill="#1E1E1E"/>
<path d="M354.342 145.456C353.765 156.743 353.621 168.013 353.765 179.316C353.765 180.199 355.175 180.215 355.143 179.316C354.855 168.029 354.871 156.743 355.079 145.456C355.079 144.975 354.358 144.975 354.326 145.456H354.342Z" fill="#1E1E1E"/>
<path d="M354.198 175.848C376.684 194.953 407.632 199.336 431.015 216.932C445.472 227.817 449.991 245.156 455.729 261.547C461.467 277.939 465.441 294.186 468.486 311.172C468.599 311.814 469.688 311.67 469.64 311.012C468.47 293.945 462.909 277.136 457.284 261.114C452.331 247.018 448.18 230.722 437.042 220.11C426.127 209.723 411.35 203.863 397.728 197.971C382.662 191.453 368.158 184.71 354.631 175.286C354.295 175.061 353.878 175.591 354.198 175.848Z" fill="#1E1E1E"/>
<path d="M359.535 103.747C361.154 99.1389 367.405 96.4256 370.93 100.182C373.286 102.703 373.607 106.428 373.431 109.863C373.11 116.221 366.459 125.934 359.167 123.911C358.205 123.638 357.836 125.067 358.766 125.388C363.462 127.09 367.421 124.023 370.402 120.588C374.633 115.707 375.674 110.746 374.665 104.405C373.992 100.15 372.389 96.6664 367.565 96.7467C363.558 96.8109 359.215 99.3155 358.606 103.49C358.526 104.1 359.327 104.341 359.535 103.747Z" fill="#1E1E1E"/>
<path d="M371.17 109.558C371.379 105.705 367.676 101.114 363.541 101.515C362.9 101.579 362.676 102.527 363.381 102.719C365.16 103.185 366.699 103.602 368.045 104.967C369.295 106.251 370 107.921 370.241 109.687C370.321 110.233 371.138 110.072 371.17 109.558Z" fill="#1E1E1E"/>
<path d="M367.804 104.453C365.159 107.535 362.804 112.239 363.14 116.414C363.188 116.975 364.006 117.152 364.166 116.558C364.679 114.631 364.807 112.673 365.464 110.778C366.185 108.675 367.179 106.749 368.317 104.854C368.509 104.549 368.06 104.18 367.804 104.469V104.453Z" fill="#1E1E1E"/>
<path d="M360.895 55.7755C364.918 70.0962 364.565 84.465 360.751 98.7536C360.575 99.444 361.536 99.6687 361.793 99.0426C367.066 85.6691 366.2 69.0045 361.648 55.5668C361.488 55.0851 360.735 55.2778 360.879 55.7755H360.895Z" fill="#1E1E1E"/>
<path d="M350.416 59.2432C350.768 65.649 351.329 72.0387 351.874 78.4285C351.938 79.2633 353.252 79.2633 353.188 78.4285C352.611 72.0227 352.05 65.6169 351.281 59.2432C351.217 58.7134 350.4 58.6813 350.432 59.2432H350.416Z" fill="#1E1E1E"/>
<path d="M352.179 77.995C353.701 80.0179 355.016 82.1853 355.993 84.5132C356.875 86.6003 357.275 88.8801 358.237 90.9351C358.349 91.1759 358.67 91.0314 358.702 90.8066C359.183 86.0866 355.881 80.8207 353.012 77.3529C352.628 76.9033 351.826 77.5134 352.179 77.995Z" fill="#1E1E1E"/>
<path d="M356.281 61.9726C345.223 53.0462 329.532 51.6013 315.829 51.3284C315.22 51.3284 315.236 52.1953 315.829 52.2595C330.366 53.7045 343.091 54.8765 355.88 62.4863C356.201 62.679 356.586 62.2134 356.281 61.9726Z" fill="#1E1E1E"/>
<path d="M272.396 61.7328C272.525 61.7328 272.525 61.5229 272.396 61.5229C272.268 61.5229 272.268 61.7328 272.396 61.7328Z" fill="#1E1E1E"/>
<path d="M272.234 61.6997C271.305 57.4934 270.087 53.3513 269.285 49.1129C268.773 46.3354 268.34 43.5419 268.083 40.7324C267.811 37.7783 266.673 25.8497 275.744 31.212C276.369 31.5812 276.93 30.6019 276.305 30.2326C271.898 27.5997 267.747 29.7831 266.769 34.6958C265.183 42.7231 268.741 54.6678 271.914 61.8281C271.994 62.0047 272.25 61.8763 272.218 61.6997H272.234Z" fill="#1E1E1E"/>
<path d="M276.131 30.8106C276.291 24.7098 278.663 20.8888 283.984 17.9669C289.786 14.7881 293.697 16.6986 298.441 20.1824C298.905 20.5196 299.498 19.749 299.066 19.3797C294.402 15.3661 289.802 13.7445 284.161 16.827C278.166 20.1022 275.458 23.9071 275.746 30.7945C275.746 31.0514 276.131 31.0514 276.131 30.7945V30.8106Z" fill="#1E1E1E"/>
<path d="M337.964 17.8383C338.236 16.859 338.605 15.1091 339.278 14.4026L343.188 12.6045C344.663 12.4279 345.753 13.022 346.426 14.3706C347.98 16.0402 347.996 16.6021 347.964 18.7535C347.964 19.9415 347.82 21.0974 347.836 22.2855C347.836 22.7992 348.541 23.1685 348.91 22.735C350.112 21.3382 353.429 18.8016 354.776 22.157C355.224 23.2808 354.311 25.4001 353.926 26.4276C353.686 27.0697 354.744 27.5193 355.032 26.8931C355.914 25.0468 357.116 21.0332 355.112 19.4277C352.997 17.726 349.327 20.2947 348.012 21.8359L349.086 22.2855C348.99 18.2397 349.984 12.8935 344.823 11.7697C340.271 10.7904 338.252 13.6481 337.242 17.6296C337.13 18.0952 337.819 18.2879 337.947 17.8223L337.964 17.8383Z" fill="#1E1E1E"/>
<path d="M353.958 26.8611C354.279 26.2511 355.128 26.2029 355.641 26.6364C356.17 27.0859 356.25 27.9528 356.234 28.6111C356.234 29.2051 356.106 29.7991 355.929 30.361C355.753 30.9229 355.545 31.2119 355.705 31.7738C355.769 31.9986 356.009 32.0789 356.218 31.9826C357.099 31.5812 357.244 30.1523 357.34 29.2854C357.452 28.2258 357.372 27.0859 356.683 26.2189C355.753 25.047 353.798 25.047 353.237 26.5401C353.077 26.9575 353.75 27.2464 353.958 26.8451V26.8611Z" fill="#1E1E1E"/>
<path d="M356.49 31.4848C357.611 29.189 360.785 27.2624 363.413 27.8885C367.628 28.9 365.032 33.1223 364.327 35.6108C364.199 36.0603 364.759 36.3493 365.08 36.0443C367.42 33.8288 368.35 28.5628 364.792 26.9574C361.474 25.4643 357.083 28.0973 355.816 31.1958C355.656 31.5811 356.313 31.854 356.49 31.4848Z" fill="#1E1E1E"/>
<path d="M364.12 36.2371C370.098 34.2785 363.414 50.2367 363.142 50.7986C361.507 54.2183 359.296 57.2365 357.517 60.5598C357.308 60.9612 357.821 61.3947 358.158 61.0575C363.799 55.1976 369.697 43.3654 367.389 35.1133C367.309 34.8243 367.021 34.6959 366.732 34.744C364.873 35.0972 365.594 34.8725 363.863 35.6591C363.527 35.8036 363.767 36.3655 364.12 36.2532V36.2371Z" fill="#1E1E1E"/>
<path d="M268.982 181.579C269.014 190.923 278.038 201.487 284.977 207.251C293.007 213.913 303.456 217.413 313.842 217.252C336.456 216.883 354.47 200.877 362.612 180.616C362.948 179.797 361.618 179.444 361.297 180.247C353.572 198.95 337.257 214.122 316.39 215.599C307.223 216.241 297.767 214.042 289.978 209.097C281.323 203.59 271.258 192.143 269.976 181.595C269.896 180.969 268.966 180.921 268.966 181.595L268.982 181.579Z" fill="#1E1E1E"/>
<path d="M304.626 117.297C304.258 119.464 303.072 122.578 304.963 124.361C307.111 126.383 312.544 125.822 315.14 125.902C317.736 125.982 322.48 126.801 324.756 125.163C327.144 123.445 326.471 120.363 325.606 118.019C325.413 117.489 324.58 117.682 324.74 118.26C326.695 125.741 318.522 124.714 314.371 124.553C312.848 124.489 311.326 124.409 309.803 124.296C305.364 123.927 304.931 121.101 305.219 117.377C305.251 117.024 304.658 116.943 304.594 117.297H304.626Z" fill="#1E1E1E"/>
<path d="M300.346 145.745C310.01 148.073 320.492 148.009 330.14 145.601C330.829 145.424 330.525 144.445 329.852 144.557C319.819 146.179 310.635 146.291 300.57 144.927C300.041 144.862 299.785 145.617 300.346 145.761V145.745Z" fill="#1E1E1E"/>
<path d="M298.777 98.2239C297.079 96.8913 294.69 96.8271 292.591 96.6184C289.85 96.3455 286.661 96.0565 284.033 97.0037C283.616 97.1482 283.488 97.9028 284.033 97.9831C288.777 98.6734 293.553 97.5496 298.281 99.0908C298.729 99.2353 299.178 98.561 298.777 98.256V98.2239Z" fill="#1E1E1E"/>
<path d="M287.19 97.9831C286.565 99.5886 286.148 102.061 286.917 103.699C287.639 105.224 289.562 106.604 291.277 106.46C294.995 106.155 296.55 101.611 295.844 98.4808C295.652 97.6299 294.418 97.8707 294.386 98.6734C294.29 100.568 293.472 102.189 292.094 103.458L293.472 103.827C293.104 102.35 293.344 100.873 294.29 99.6528L292.799 99.0266C292.719 100.728 292.046 102.173 290.844 103.361L292.399 103.779C291.902 102.077 292.142 100.439 293.088 98.9303L291.277 98.4326C291.341 99.2675 291.341 100.086 291.181 100.921C291.133 101.21 290.924 102.575 290.7 102.719H291.693C291.918 103.088 291.902 102.864 291.693 102.045C291.661 101.692 291.629 101.322 291.613 100.969C291.581 100.247 291.613 99.5404 291.645 98.8179L289.69 99.0909C289.738 99.3638 289.995 101.611 289.562 101.692L290.54 101.949C289.93 101.435 290.235 99.3156 290.299 98.6092H288.28C288.152 100.102 287.559 102.302 288.071 103.731C288.472 104.838 289.562 105.288 290.62 105.545C291.87 105.834 292.399 103.907 291.149 103.618C289.963 103.329 289.947 102.928 290.043 101.788C290.139 100.728 290.219 99.6688 290.315 98.6092C290.427 97.3088 288.408 97.3249 288.296 98.6092C288.184 99.8936 287.847 103.955 290.123 103.634C292.142 103.345 291.902 99.9578 291.629 98.561C291.405 97.4051 289.738 97.7583 289.674 98.834C289.594 100.279 289.193 103.602 290.732 104.437C291.036 104.598 291.421 104.63 291.726 104.437C293.344 103.426 293.376 100.102 293.248 98.4647C293.184 97.5175 291.966 97.1161 291.437 97.967C290.235 99.9096 289.963 102.109 290.636 104.293C290.844 104.951 291.693 105.224 292.19 104.71C293.713 103.153 294.514 101.226 294.578 99.0427C294.61 98.0955 293.424 97.951 292.944 98.5932C291.709 100.247 291.357 102.286 291.918 104.277C292.094 104.871 292.847 105.079 293.296 104.646C294.947 103.024 295.796 101.001 295.909 98.6895L294.45 98.8822C294.931 101.05 293.921 104.838 291.1 104.806C289.642 104.806 288.344 103.201 288.2 101.868C288.055 100.616 288.424 99.3638 288.296 98.1115C288.232 97.5014 287.462 97.3891 287.238 97.967L287.19 97.9831Z" fill="#1E1E1E"/>
<path d="M302.544 86.4718C299.819 83.6943 294.21 84.3847 290.62 84.5292C287.03 84.6737 283.199 85.1874 281.036 88.4304C280.507 89.2332 281.388 90.4212 282.318 90.1001C285.716 88.896 288.729 88.1414 292.367 88.1093C295.508 88.0772 299.034 89.0405 302.063 88.2859C302.88 88.0772 303.121 87.0337 302.544 86.4557V86.4718Z" fill="#1E1E1E"/>
<path d="M333.378 100.359C338.106 98.8179 342.882 99.9417 347.626 99.2514C348.171 99.1711 348.042 98.4326 347.626 98.272C345.013 97.3248 341.792 97.6138 339.067 97.8867C336.968 98.0954 334.596 98.1596 332.881 99.4922C332.48 99.8133 332.913 100.488 333.378 100.327V100.359Z" fill="#1E1E1E"/>
<path d="M343.412 99.4279C343.284 100.6 343.588 101.756 343.524 102.928C343.444 104.325 342.194 106.091 340.607 106.107C337.786 106.123 336.777 102.334 337.258 100.182L335.799 99.9898C335.911 102.286 336.761 104.325 338.411 105.946C338.86 106.38 339.613 106.187 339.79 105.577C340.351 103.586 340.014 101.563 338.764 99.8935C338.283 99.2513 337.097 99.3797 337.129 100.343C337.193 102.526 337.995 104.437 339.517 106.01C340.03 106.524 340.88 106.251 341.072 105.593C341.745 103.409 341.473 101.21 340.271 99.2673C339.742 98.4164 338.524 98.8178 338.46 99.765C338.331 101.403 338.363 104.726 339.982 105.737C340.287 105.93 340.671 105.898 340.976 105.737C342.514 104.902 342.114 101.579 342.034 100.134C341.969 99.0747 340.303 98.7054 340.078 99.8614C339.822 101.242 339.565 104.646 341.585 104.919C343.845 105.24 343.524 101.162 343.412 99.8935C343.3 98.6251 341.28 98.593 341.392 99.8935C341.473 100.953 341.569 102.013 341.665 103.072C341.761 104.132 341.745 104.614 340.559 104.903C339.373 105.191 339.838 107.118 341.088 106.829C342.162 106.572 343.252 106.139 343.636 105.015C344.149 103.57 343.556 101.387 343.428 99.8935H341.408C341.473 100.632 341.777 102.735 341.168 103.233L342.146 102.976C341.713 102.896 341.969 100.648 342.018 100.375L340.062 100.102C340.11 100.825 340.126 101.531 340.094 102.253C340.094 102.607 340.046 102.976 340.014 103.329C339.79 104.148 339.79 104.373 340.014 104.003H341.008C340.783 103.859 340.575 102.494 340.527 102.205C340.367 101.37 340.383 100.568 340.431 99.7169L338.62 100.215C339.565 101.724 339.79 103.361 339.309 105.063L340.864 104.646C339.662 103.458 338.988 101.997 338.908 100.311L337.418 100.937C338.363 102.157 338.604 103.634 338.235 105.111L339.613 104.742C338.235 103.458 337.418 101.852 337.322 99.9577C337.29 99.155 336.055 98.8981 335.863 99.765C335.158 102.896 336.713 107.439 340.431 107.744C342.082 107.873 343.909 106.604 344.678 105.191C345.592 103.522 345.159 100.953 344.518 99.2673C344.293 98.6894 343.524 98.7857 343.46 99.4118L343.412 99.4279Z" fill="#1E1E1E"/>
<path d="M329.596 89.6024C332.609 90.357 336.151 89.3937 339.292 89.4258C342.914 89.4579 345.96 90.2125 349.341 91.4165C350.255 91.7376 351.168 90.5496 350.623 89.7469C348.46 86.5039 344.709 86.0061 341.039 85.8456C337.369 85.6851 331.824 85.0268 329.115 87.7882C328.554 88.3662 328.795 89.4258 329.596 89.6184V89.6024Z" fill="#1E1E1E"/>
<path d="M188.589 116.98C185.945 115.921 183.188 116.482 180.528 117.654C182.739 111.329 183.958 103.189 182.9 96.3982C190.08 97.0885 193.51 93.0428 193.205 85.4008C192.933 78.8184 190 72.2039 187.884 66.0871C187.067 63.7271 186.313 61.351 185.528 58.9749C185.48 58.0438 185.144 57.0805 184.711 56.1011C185.704 53.42 185.176 49.7756 182.675 48.1862C180.64 46.9019 177.707 47.1106 175.287 46.6289C174.341 44.9914 173.123 43.5946 172.29 41.8125C170.831 38.6498 170.527 34.7806 169.373 31.4894C167.53 26.2717 164.805 21.4714 161.728 16.8958C156.055 8.46714 149.035 3.53837 138.665 2.94435C136.406 2.47877 133.986 2.30218 131.453 2.43062C131.341 2.38246 131.213 2.35034 131.069 2.35034C121.485 2.43061 110.538 5.20807 105.522 14.1986C102.028 20.4439 101.275 28.5033 99.5918 35.3746C98.0372 41.7323 95.8415 54.9934 88.5493 56.8236C87.8601 57.0002 87.4595 57.4497 87.2992 57.9795C87.171 58.108 87.0748 58.2846 87.0107 58.5093C84.3823 68.126 83.613 78.1441 84.4624 88.0338C84.4624 88.0819 84.4143 88.1301 84.4143 88.1782C84.1419 89.8319 82.8597 98.3408 86.0651 98.8064C86.7222 101.921 87.5396 105.02 88.5172 108.054C88.8057 110.478 89.3506 112.967 90.2962 115.198C88.8698 113.544 87.0748 112.276 84.815 111.361C84.5906 111.265 84.3663 111.265 84.1419 111.297C82.427 110.43 80.616 110.093 78.7889 110.799C73.9167 112.629 73.9648 118.57 74.7822 122.824C76.3047 130.916 82.6674 139.665 90.8892 140.035C89.7994 147.693 90.777 157.293 93.8702 164.727C93.5497 167.295 93.133 169.912 92.7644 172.529C91.7867 172.946 90.8251 173.348 89.9597 173.99C89.7513 174.151 89.559 174.311 89.3506 174.488C88.6134 174.712 87.8601 174.969 87.1069 175.307C84.9593 176.286 82.4431 177.426 81.0006 179.352C79.9909 180.685 81.209 181.937 82.5071 182.049C84.4624 193.85 93.1971 206.003 101.018 214.672C109.352 223.92 122.959 228.447 135.348 227.195C140.685 226.649 144.852 223.551 149.035 220.42C154.516 216.342 160.558 212.457 164.853 207.063C169.197 201.62 174.758 192.244 172.803 185.26C174.373 185.517 175.608 183.27 174.005 182.258C172.017 181.006 168.684 178.164 166.44 177.474C166.328 177.442 166.2 177.41 166.071 177.362C166.071 177.297 166.072 177.249 166.055 177.185C164.613 172.32 171.489 165.449 172.594 160.36C173.845 154.596 173.941 148.527 174.582 142.651C183.653 146.922 192.468 135.202 193.766 127.159C194.439 122.969 192.724 118.714 188.589 117.044V116.98Z" fill="white"/>
<path d="M15.7712 422.483C15.7712 422.483 3.5907 225.076 25.2591 204.462C25.2591 204.462 30.9486 198.409 85.0395 176.462C85.0395 176.462 84.2862 218.124 124.979 220.468C165.671 222.796 172.771 181.487 172.771 181.487L222.198 208.957C222.198 208.957 275.327 245.931 232.631 418.742L15.7712 422.499V422.483Z" fill="#1E1E1E"/>
<path d="M112.302 140.051C112.013 145.172 107.622 149.089 102.509 148.8C97.3969 148.511 93.4863 144.113 93.7748 138.991C94.0632 133.87 98.4546 129.952 103.567 130.241C108.68 130.53 112.59 134.929 112.302 140.051Z" fill="#FFEEEE"/>
<path d="M171.439 143.438C171.151 148.56 166.759 152.477 161.647 152.188C156.534 151.899 152.623 147.5 152.912 142.379C153.2 137.257 157.592 133.34 162.704 133.629C167.817 133.918 171.728 138.317 171.439 143.438Z" fill="#FFEEEE"/>
<path d="M81.3066 93.412C79.159 109.563 106.453 99.7055 113.248 98.4211C136.904 93.9419 160.111 93.685 183.911 97.0243C184.808 97.1528 185.225 95.8042 184.296 95.6276C168.493 92.7699 152.226 92.1919 136.231 93.5566C129.339 94.1345 122.48 95.1299 115.668 96.3501C110.443 97.2973 81.3066 106.015 82.3964 93.396C82.4605 92.6736 81.3867 92.7217 81.3066 93.396V93.412Z" fill="#1E1E1E"/>
<path d="M191.314 86.7814C191.186 88.6437 191.394 90.6024 190.882 92.4165C190.321 94.3591 189.103 95.21 187.66 96.4302C187.484 96.5747 187.564 96.9279 187.804 96.976C192.693 97.7145 192.853 89.7836 192.613 86.7814C192.548 85.9466 191.378 85.9466 191.314 86.7814Z" fill="#1E1E1E"/>
<path d="M87.8948 57.3211C118.715 51.2524 149.486 48.1218 180.899 49.647C181.636 49.6791 181.636 48.5392 180.899 48.5071C149.743 47.014 118.057 49.1814 87.6865 56.5986C87.2057 56.711 87.414 57.4174 87.8788 57.3211H87.8948Z" fill="#1E1E1E"/>
<path d="M87.5732 58.9748C84.9128 67.7246 84.0954 76.8917 83.4223 85.9947C83.0056 91.678 82.2683 97.3132 86.5956 101.568C87.1565 102.113 87.99 101.279 87.4611 100.701C82.5408 95.3545 84.5441 86.3479 85.0891 79.9421C85.6821 72.9102 86.8039 66.0549 88.2464 59.1514C88.3425 58.7179 87.7175 58.5413 87.5732 58.9748Z" fill="#1E1E1E"/>
<path d="M183.413 51.1562C186.699 61.9449 189.52 72.0272 190.385 83.3617C190.449 84.1644 191.683 84.1805 191.651 83.3617C191.138 72.3483 189.007 60.7889 183.958 50.9154C183.798 50.6103 183.317 50.819 183.413 51.1401V51.1562Z" fill="#1E1E1E"/>
<path d="M91.9637 56.1652C98.8232 51.7021 100.169 39.6611 101.436 32.4205C102.702 25.1798 104.849 18.4209 109.016 12.4165C113.584 5.81802 120.988 3.57037 128.649 2.75158C136.31 1.9328 144.131 2.9603 150.686 6.97395C157.241 10.9876 161.264 18.6778 165.014 25.0354C168.396 30.7669 170.143 36.7713 172.627 42.8239C173.893 45.8903 175.207 47.7366 178.285 49.0691C178.926 49.342 179.487 48.459 178.846 48.1058C172.611 44.6862 171.441 34.1223 168.236 28.0536C165.223 22.3542 161.649 16.2374 157.498 11.2926C150.526 2.97633 139.019 0.375504 128.569 1.49933C118.921 2.54288 111.468 5.70563 106.452 14.0861C103.118 19.6731 101.275 25.7097 100.153 32.0833C98.7911 39.8217 97.6212 49.9361 91.4508 55.5391C91.1142 55.8442 91.5469 56.4382 91.9476 56.1813L91.9637 56.1652Z" fill="#1E1E1E"/>
<path d="M93.5191 102.675C90.506 120.432 88.134 141.319 92.4132 159.027C96.2116 174.761 112.976 182.162 127.512 185.357C128.201 185.501 128.474 184.522 127.801 184.297C120.284 181.793 112.671 179.144 105.956 174.825C96.6122 168.82 93.6473 160.552 92.7497 149.956C91.4035 134.287 92.6376 118.377 94.5287 102.804C94.5928 102.242 93.6152 102.097 93.5191 102.675Z" fill="#1E1E1E"/>
<path d="M91.6426 119.469C91.0817 109.788 76.9139 104.425 74.3336 116.129C72.3622 125.056 80.2635 143.39 91.7228 138.862C92.5241 138.541 92.2196 137.305 91.3541 137.546C82.924 139.906 76.0645 128.86 75.5356 121.652C75.199 117.076 76.2087 108.311 84.4145 111.457C87.5558 112.661 90.2162 116.482 90.7451 119.597C90.8252 120.111 91.6747 119.982 91.6426 119.469Z" fill="#1E1E1E"/>
<path d="M83.7265 112.356C81.9956 112.356 80.3929 113.143 79.271 114.46C78.5979 115.246 78.1812 116.21 77.7645 117.141C77.3478 118.072 76.8189 118.987 76.7227 120.031C76.7067 120.271 77.0273 120.368 77.1715 120.223C78.3254 119.083 78.7101 117.301 79.5916 115.953C80.6173 114.379 82.0277 113.544 83.8227 113.111C84.2394 113.015 84.1432 112.373 83.7265 112.373V112.356Z" fill="#1E1E1E"/>
<path d="M79.8316 115.407C82.1555 116.771 84.0306 121.074 84.864 123.53C85.6974 125.987 85.6653 128.62 86.1141 131.204C86.1942 131.638 86.7872 131.558 86.9154 131.204C87.9892 127.994 86.8193 124.092 85.425 121.154C84.4473 119.099 82.492 115.278 79.9598 114.957C79.7033 114.925 79.6392 115.31 79.8316 115.423V115.407Z" fill="#1E1E1E"/>
<path d="M88.2128 101.648C87.9404 103.783 87.6839 105.935 88.0045 108.07C88.2609 109.772 88.8058 111.457 89.2065 113.143C89.2866 113.448 89.7193 113.432 89.7995 113.143C90.2643 111.57 89.5751 110.253 89.1744 108.728C88.5814 106.4 88.6776 104.024 88.7898 101.648C88.8058 101.263 88.2449 101.279 88.1968 101.648H88.2128Z" fill="#1E1E1E"/>
<path d="M87.5885 102.916C87.0917 107.701 87.845 112.437 90.0407 116.739C90.3932 117.446 91.3709 116.82 91.0824 116.129C89.2553 111.875 88.2777 107.556 88.2937 102.916C88.2937 102.467 87.6526 102.483 87.6046 102.916H87.5885Z" fill="#1E1E1E"/>
<path d="M87.5248 104.201C87.2363 108.744 88.1178 113.432 90.5859 117.317C90.9545 117.895 91.7879 117.398 91.4994 116.788C89.5281 112.726 88.2941 108.76 88.2139 104.201C88.2139 103.751 87.5568 103.751 87.5248 104.201Z" fill="#1E1E1E"/>
<path d="M176.81 96.0608C176.938 112.115 175.752 128.314 173.7 144.241C172.482 153.697 171.361 165.144 164.341 172.272C156.616 180.091 143.666 182.499 133.329 184.634C132.736 184.762 132.848 185.774 133.473 185.71C142.929 184.73 153.346 182.049 161.376 176.719C169.405 171.389 172.29 162.703 173.925 153.568C177.274 134.865 178.781 115.037 177.819 96.0608C177.787 95.4026 176.794 95.4026 176.794 96.0608H176.81Z" fill="#1E1E1E"/>
<path d="M177.564 124.51C178.237 122.053 179.631 120.175 181.763 118.875C185.016 116.338 188.606 117.285 192.533 121.716C193.478 124.702 192.485 129.037 191.347 131.734C188.927 137.498 181.987 145.413 174.983 142.362C174.198 142.025 173.509 143.085 174.294 143.551C184.856 149.715 194.568 132.553 194.28 123.932C194.135 119.725 192.068 115.15 187.26 115.182C182.452 115.214 177.483 119.693 176.682 124.285C176.586 124.863 177.403 125.104 177.564 124.526V124.51Z" fill="#1E1E1E"/>
<path d="M185.193 118.907C187.084 119.613 188.414 120.769 189.232 122.647C189.825 123.996 190.049 125.585 190.979 126.757C191.123 126.95 191.428 126.773 191.428 126.565C191.476 124.783 190.482 122.118 189.44 120.641C188.398 119.163 187.004 118.361 185.305 118.168C184.857 118.12 184.84 118.762 185.209 118.907H185.193Z" fill="#1E1E1E"/>
<path d="M188.765 121.17C186.185 121.202 183.765 124.895 182.563 126.854C180.864 129.615 179.326 133.291 180.031 136.583C180.127 137 180.72 136.952 180.832 136.583C181.682 133.757 181.906 131.076 183.316 128.379C184.47 126.195 186.522 122.679 188.878 121.636C189.102 121.539 188.99 121.17 188.749 121.17H188.765Z" fill="#1E1E1E"/>
<path d="M182.227 96.1572C182.933 102.948 181.41 109.868 180.128 116.482C180.016 117.044 180.865 117.51 181.138 116.9C182.516 113.801 182.933 110.398 183.221 107.042C183.526 103.51 184.086 99.4484 182.917 96.0608C182.804 95.7237 182.195 95.7397 182.243 96.1572H182.227Z" fill="#1E1E1E"/>
<path d="M93.4381 162.928C92.6688 171.052 92.4123 179.529 92.9733 187.685C93.0214 188.359 93.983 188.359 94.0311 187.685C94.4798 179.513 94.3836 171.116 93.999 162.928C93.983 162.559 93.4701 162.575 93.4381 162.928Z" fill="#1E1E1E"/>
<path d="M164.501 172.882C164.213 179.416 163.155 186.127 163.283 192.645C163.283 193.191 164.101 193.32 164.245 192.774C165.912 186.528 165.719 179.272 165.415 172.882C165.383 172.288 164.517 172.288 164.501 172.882Z" fill="#1E1E1E"/>
<path d="M92.2348 58.9266C89.0775 70.3574 86.6895 83.5061 87.555 95.3705C87.587 95.8682 88.2441 95.8521 88.3083 95.3705C89.7507 83.185 90.536 71.2083 92.892 59.1032C92.9721 58.6697 92.347 58.477 92.2188 58.9266H92.2348Z" fill="#1E1E1E"/>
<path d="M97.1564 58.413C94.4799 72.5731 93.0535 87.4878 94.7524 101.841C94.8165 102.435 95.698 102.467 95.698 101.841C95.6018 87.2149 95.7621 73.1672 98.07 58.6699C98.1661 58.0758 97.2686 57.819 97.1564 58.413Z" fill="#1E1E1E"/>
<path d="M101.772 58.6857C99.8167 70.9514 98.5987 84.1804 100.891 96.4782C100.971 96.9277 101.692 96.8154 101.692 96.3659C101.612 83.6827 100.923 71.433 102.493 58.782C102.541 58.3806 101.836 58.2683 101.772 58.6857Z" fill="#1E1E1E"/>
<path d="M107.493 56.5023C105.762 69.8276 104.56 83.8593 106.099 97.2649C106.163 97.7947 106.916 97.8268 106.932 97.2649C107.365 83.6346 107.076 70.1326 108.278 56.5023C108.326 55.9885 107.557 56.0206 107.493 56.5023Z" fill="#1E1E1E"/>
<path d="M113.247 56.6308C112.494 68.2222 110.571 82.27 114.049 93.5564C114.161 93.9417 114.722 93.7811 114.642 93.3958C112.158 81.7241 113.696 68.5112 113.92 56.6308C113.92 56.1973 113.279 56.1973 113.247 56.6308Z" fill="#1E1E1E"/>
<path d="M119.435 59.3923C119.355 69.1535 118.922 78.995 119.371 88.7401C119.387 89.2538 120.14 89.2538 120.172 88.7401C120.749 78.995 120.445 69.1535 120.509 59.3923C120.509 58.7019 119.451 58.7019 119.435 59.3923Z" fill="#1E1E1E"/>
<path d="M125.701 56.7433C125.396 68.431 124.819 80.5362 126.117 92.1597C126.182 92.7698 127.047 92.7858 127.079 92.1597C127.672 80.4398 126.807 68.4952 126.678 56.7433C126.678 56.1171 125.717 56.1171 125.701 56.7433Z" fill="#1E1E1E"/>
<path d="M134.933 55.0574C134.356 67.58 134.629 80.4879 136.664 92.882C136.76 93.4439 137.69 93.3155 137.658 92.7536C136.776 80.1507 135.895 67.7245 135.927 55.0734C135.927 54.4313 134.965 54.4313 134.933 55.0734V55.0574Z" fill="#1E1E1E"/>
<path d="M143.825 55.7639C143.008 66.5044 142.992 77.5018 144.803 88.146C144.899 88.74 145.925 88.6115 145.86 88.0015C144.883 77.1967 144.146 66.6168 144.707 55.7478C144.739 55.1698 143.857 55.1859 143.825 55.7478V55.7639Z" fill="#1E1E1E"/>
<path d="M150.334 55.1376C150.029 67.7405 151.055 80.4717 153.555 92.8177C153.635 93.2351 154.357 93.1549 154.308 92.7214C152.738 80.1827 151.6 67.7565 151.087 55.1376C151.071 54.656 150.35 54.656 150.334 55.1376Z" fill="#1E1E1E"/>
<path d="M157.498 55.1378C156.793 66.7452 157.033 79.1876 159.774 90.5382C159.854 90.8914 160.447 90.8271 160.431 90.4579C159.614 78.6256 158.283 67.0342 158.155 55.1378C158.155 54.7204 157.53 54.7204 157.514 55.1378H157.498Z" fill="#1E1E1E"/>
<path d="M165.191 53.3716C165.399 67.0181 166.954 80.5521 169.438 93.9577C169.534 94.4875 170.336 94.2627 170.255 93.7329C168.14 80.3273 166.842 66.9057 165.928 53.3716C165.896 52.9061 165.207 52.9061 165.207 53.3716H165.191Z" fill="#1E1E1E"/>
<path d="M171.922 55.7959C172.9 68.2703 173.204 81.114 175.336 93.46C175.416 93.9256 176.153 93.8132 176.153 93.3476C176.025 80.8571 174.038 68.2061 172.756 55.7959C172.708 55.2821 171.89 55.2661 171.922 55.7959Z" fill="#1E1E1E"/>
<path d="M178.703 54.1423C178.863 63.5664 179.055 73.2152 180.626 82.5269C180.706 82.9764 181.443 82.864 181.427 82.4145C181.171 72.9905 180.033 63.5503 179.44 54.1423C179.408 53.6768 178.703 53.6607 178.703 54.1423Z" fill="#1E1E1E"/>
<path d="M183.862 61.2707C184.071 72.4768 184.151 84.4214 186.827 95.3706C186.956 95.9165 187.853 95.8202 187.837 95.2422C187.308 83.9237 185.257 72.6374 184.616 61.2868C184.584 60.8051 183.862 60.8051 183.862 61.2868V61.2707Z" fill="#1E1E1E"/>
<path d="M122.927 135.587C122.446 137.658 121.164 140.452 122.895 142.25C124.818 144.241 129.819 144.016 132.367 144.225C134.915 144.433 139.146 145.429 141.422 144.016C143.698 142.603 143.249 139.553 142.576 137.353C142.4 136.791 141.598 137.032 141.71 137.594C143.105 144.626 135.508 143.229 131.662 142.86C130.107 142.716 127.527 142.683 126.164 142.186C122.831 140.982 123.167 138.493 123.536 135.668C123.584 135.314 122.991 135.234 122.911 135.587H122.927Z" fill="#1E1E1E"/>
<path d="M117.527 160.344C126.422 163.057 136.295 163.554 145.43 161.788C146.023 161.676 145.895 160.665 145.286 160.729C135.814 161.676 127.143 161.307 117.767 159.509C117.239 159.412 117.014 160.167 117.543 160.344H117.527Z" fill="#1E1E1E"/>
<path d="M145.397 159.38C145.99 159.766 146.438 160.376 146.663 161.05C146.871 161.66 146.663 162.334 146.887 162.912C147.015 163.233 147.384 163.378 147.656 163.121C148.297 162.495 148.025 161.307 147.72 160.584C147.352 159.701 146.695 159.043 145.813 158.674C145.332 158.465 144.932 159.091 145.397 159.396V159.38Z" fill="#1E1E1E"/>
<path d="M116.677 158.305C115.603 159.172 114.818 160.745 114.85 162.142C114.85 162.383 115.01 162.543 115.218 162.623C115.314 162.655 115.378 162.639 115.475 162.623C115.635 162.591 115.779 162.431 115.827 162.27C115.987 161.644 116.084 161.018 116.34 160.424C116.597 159.83 116.965 159.316 117.334 158.802C117.622 158.385 117.013 158.032 116.693 158.305H116.677Z" fill="#1E1E1E"/>
<path d="M121.405 164.341C127.223 168.21 136.006 167.905 142.112 164.935C142.465 164.759 142.224 164.165 141.84 164.293C134.499 166.557 128.89 165.834 121.63 163.827C121.309 163.731 121.149 164.181 121.405 164.357V164.341Z" fill="#1E1E1E"/>
<path d="M92.0601 172.288C78.6776 178.951 65.0227 184.682 51.2716 190.542C41.2227 194.829 28.8018 198.602 21.6057 207.287C6.97317 224.947 2.34139 251.823 0.754721 274.01C0.70664 274.781 2.00482 274.973 2.11701 274.187C5.29034 252.031 7.55014 222.218 24.9233 205.73C33.8984 197.205 48.8194 192.967 60.0223 188.279C71.2251 183.591 82.2195 179.16 92.5729 173.139C93.1339 172.818 92.6371 171.983 92.0601 172.272V172.288Z" fill="#1E1E1E"/>
<path d="M84.7036 176.446C85.2165 187.781 87.8769 199.404 96.0827 207.656C104.288 215.909 115.828 222.298 128.088 221.078C128.665 221.014 128.681 220.131 128.088 220.163C115.844 220.837 104.353 214.72 96.1148 205.874C88.4058 197.59 87.2519 186.978 85.3767 176.35C85.3126 175.981 84.6876 176.061 84.7196 176.446H84.7036Z" fill="#1E1E1E"/>
<path d="M73.5008 183.318C71.5776 214.062 97.0283 235.367 126.133 236.876C126.742 236.908 126.694 236.025 126.133 235.961C96.9963 232.316 74.0778 214.737 74.4785 183.318C74.4785 182.675 73.5329 182.692 73.5008 183.318Z" fill="white"/>
<path d="M81.5297 214.383C70.1346 223.823 58.5471 234.082 48.6746 245.128C48.1938 245.658 48.915 246.364 49.4439 245.898C60.6467 236.041 71.3847 225.349 82.1869 215.058C82.6356 214.624 81.9785 213.998 81.5137 214.383H81.5297Z" fill="white"/>
<path d="M165.719 177.377C175.608 184.779 186.586 190.671 197.324 196.691C207.293 202.278 219.602 207.64 227.711 215.844C235.821 224.048 239.395 238.305 241.43 249.687C243.69 262.403 243.674 275.118 244.043 287.961C244.075 288.86 245.389 288.844 245.421 287.961C246.367 265.87 245.101 235.864 230.997 217.482C224.378 208.844 212.213 203.562 202.982 198.345C190.545 191.329 178.236 184.281 166.248 176.526C165.687 176.173 165.239 177.024 165.735 177.393L165.719 177.377Z" fill="#1E1E1E"/>
<path d="M172.435 181.391C169.502 191.249 167.307 201.507 159.293 208.668C150.03 216.936 137.561 222.138 125.108 220.002C124.531 219.906 124.275 220.757 124.868 220.885C136.551 223.422 147.946 219.071 157.274 211.991C166.602 204.911 171.217 193.271 173.093 181.568C173.157 181.15 172.564 180.958 172.435 181.391Z" fill="#1E1E1E"/>
<path d="M182.467 189.563C180.977 204.189 174.662 217.418 162.401 225.991C151.279 233.761 138.377 235.768 125.107 235.896C124.514 235.896 124.53 236.779 125.107 236.812C154.212 238.626 181.858 220.307 183.445 189.547C183.477 188.905 182.531 188.937 182.467 189.547V189.563Z" fill="white"/>
<path d="M171.231 220.179C180.832 231.642 190.271 243.458 200.256 254.568C200.673 255.018 201.49 254.407 201.122 253.91C192.483 241.789 182.194 230.261 171.905 219.521C171.472 219.071 170.847 219.73 171.231 220.195V220.179Z" fill="white"/>
<path d="M118.247 118.634C116.58 117.125 113.872 116.964 111.724 116.675C109.4 116.354 106.74 116.001 104.48 116.707C104.031 116.852 103.967 117.558 104.48 117.687C108.855 118.666 113.407 117.847 117.75 119.485C118.215 119.661 118.6 118.971 118.247 118.65V118.634Z" fill="#1E1E1E"/>
<path d="M107.43 117.735C106.709 119.276 106.148 121.604 106.821 123.241C107.398 124.638 109.065 126.035 110.619 126.067C114.257 126.115 116.02 121.764 115.507 118.73C115.363 117.831 114.129 118.168 114.049 118.923C113.873 120.673 112.975 122.134 111.629 123.241L113.007 123.611C112.735 122.214 113.087 120.881 114.033 119.806L112.542 119.179C112.382 120.753 111.629 122.053 110.459 123.081L112.014 123.498C111.645 121.893 112.014 120.384 112.943 119.051L111.132 118.553C111.132 119.34 111.1 120.095 110.908 120.849C110.828 121.186 110.715 121.507 110.603 121.828C110.203 122.535 110.122 122.744 110.363 122.439H111.356C111.469 122.519 111.437 120.978 111.437 120.833C111.437 120.159 111.501 119.485 111.581 118.826H109.594C109.69 119.597 109.834 121.026 109.161 121.62L109.866 121.331L109.61 121.363L110.315 121.652C109.882 121.251 110.219 119.292 110.283 118.81L108.327 118.264C108.119 119.725 107.542 121.588 107.766 123.049C107.959 124.285 109.129 124.847 110.203 125.168C111.437 125.537 111.966 123.611 110.731 123.241C109.497 122.872 109.738 122.583 109.882 121.491C110.01 120.592 110.138 119.693 110.267 118.81C110.443 117.542 108.504 116.98 108.311 118.264C108.119 119.549 107.494 123.177 109.578 123.37C111.661 123.562 111.709 120.079 111.549 118.826C111.389 117.574 109.706 117.526 109.561 118.826C109.401 120.271 108.84 123.225 110.331 124.14C110.635 124.333 111.02 124.301 111.324 124.14C112.895 123.273 113.087 120.079 113.055 118.553C113.039 117.542 111.773 117.285 111.244 118.056C110.01 119.822 109.674 121.893 110.187 123.98C110.363 124.686 111.244 124.847 111.741 124.397C113.264 123 114.081 121.234 114.257 119.179C114.321 118.441 113.232 117.991 112.767 118.553C111.437 120.127 110.956 122.005 111.405 124.028C111.549 124.67 112.334 124.783 112.783 124.397C114.418 122.952 115.299 121.074 115.524 118.923L114.065 119.115C114.386 121.09 113.2 124.67 110.603 124.381C109.273 124.237 108.199 122.728 108.135 121.491C108.087 120.319 108.488 119.179 108.408 118.007C108.375 117.526 107.654 117.205 107.398 117.735H107.43Z" fill="#1E1E1E"/>
<path d="M122.398 107.797C120.106 104.987 114.545 105.372 111.244 105.324C107.766 105.276 104.24 105.597 102.076 108.599C101.467 109.434 102.461 110.51 103.358 110.269C106.612 109.402 109.497 108.84 112.894 109.001C115.811 109.145 119.081 110.285 121.933 109.627C122.799 109.418 122.911 108.391 122.414 107.797H122.398Z" fill="#1E1E1E"/>
<path d="M151.567 121.395C156.023 120.287 160.414 121.604 164.822 121.138C165.254 121.09 165.591 120.432 165.078 120.191C162.93 119.228 160.27 119.244 157.946 119.276C155.814 119.308 152.994 119.164 151.183 120.448C150.734 120.769 150.99 121.507 151.567 121.363V121.395Z" fill="#1E1E1E"/>
<path d="M160.943 120.929C160.751 122.005 160.943 123.065 160.847 124.14C160.719 125.553 159.645 126.998 158.138 127.046C155.414 127.159 154.661 123.37 155.222 121.379L153.763 121.186C153.747 123.37 154.468 125.312 155.927 126.918C156.376 127.399 157.113 127.11 157.305 126.549C157.946 124.702 157.69 122.776 156.616 121.138C156.135 120.416 155.013 120.689 154.981 121.588C154.917 123.659 155.606 125.489 156.968 127.046C157.465 127.624 158.299 127.239 158.523 126.629C159.276 124.606 159.084 122.519 158.058 120.624C157.545 119.677 156.359 120.239 156.247 121.122C156.039 122.711 155.927 125.762 157.433 126.821C157.738 127.03 158.122 126.966 158.427 126.821C159.901 126.131 159.693 122.888 159.693 121.556C159.693 120.448 158.01 120.191 157.738 121.283C157.417 122.567 157.049 126.051 159.132 126.163C161.216 126.276 161.055 122.711 161.007 121.411C160.959 120.111 158.956 120.095 158.988 121.411C159.004 122.406 159.036 123.402 159.068 124.397C159.1 125.473 159.004 125.746 157.93 125.938C156.664 126.163 157.209 128.09 158.459 127.865C159.501 127.688 160.575 127.287 160.975 126.211C161.472 124.847 161.055 122.84 161.023 121.411H159.004C159.052 122.519 159.004 123.675 158.587 124.718L159.052 124.124L158.796 124.317L159.565 124.221C159.324 124.172 159.629 122.085 159.693 121.828L157.738 121.556C157.738 121.989 157.818 124.943 157.465 125.104H158.459C158.331 125.023 158.154 123.322 158.138 123.161C158.074 122.471 158.138 121.78 158.219 121.106L156.408 121.604C157.193 123.049 157.289 124.59 156.744 126.131L158.299 125.714C157.241 124.542 156.728 123.145 156.744 121.588L155.109 122.037C155.975 123.289 156.183 124.67 155.734 126.115L157.113 125.746C155.895 124.478 155.254 122.936 155.27 121.17C155.27 120.319 154.036 120.159 153.811 120.978C152.978 123.9 154.292 128.411 157.85 128.732C159.373 128.876 161.136 127.769 161.905 126.484C162.834 124.943 162.578 122.535 162.017 120.913C161.857 120.448 161.071 120.351 160.975 120.913L160.943 120.929Z" fill="#1E1E1E"/>
<path d="M148.604 111.2C151.633 112.035 155.11 111.345 158.284 111.618C161.457 111.891 164.053 112.806 166.986 113.962C167.964 114.347 168.717 113.079 168.269 112.292C166.57 109.226 163.204 108.519 159.935 108.15C156.2 107.733 151.216 106.849 148.123 109.37C147.466 109.9 147.866 111.008 148.604 111.2Z" fill="#1E1E1E"/>
<path d="M377.036 349.438C377.34 348.394 383.03 319.64 386.203 266.58C386.203 266.58 383.815 230.714 392.293 223.778C400.771 216.827 413.048 208.912 413.048 208.912L417.872 241.535C417.872 241.535 423.433 250.574 427.152 253.592C430.854 256.61 433.402 261.105 432.489 271.027C431.575 280.949 447.907 290.373 447.907 290.373C447.907 290.373 468.565 301.836 476.483 333.014C484.4 364.176 503.135 376.65 503.135 376.65L501.324 381.788C501.324 381.788 526.919 375.639 533.859 351.332C540.799 327.026 530.061 330.75 541.151 311.324C552.226 291.898 545.735 296.698 541.616 281.96C537.497 267.222 522.416 247.138 520.557 233.636C520.557 233.636 551.937 235.579 578.125 199.488C578.125 199.488 580.449 201.286 582.597 198.492C582.597 198.492 595.691 204.465 599.537 215.382C603.384 226.283 610.195 259.709 613.096 267.03C615.997 274.35 620.356 353.965 620.308 352.954C620.276 351.942 621.574 388.354 621.574 388.354H368.044L377.052 349.438H377.036Z" fill="#1E1E1E"/>
<path d="M580.368 196.405C574.133 193.644 567.402 192.889 560.959 190.899C563.219 186.419 562.386 181.796 561.408 176.417C560.334 170.445 557.305 167.668 553.17 164.826C555.927 155.482 556.937 144.982 555.975 135.607C556.135 135.398 556.263 135.173 556.327 134.852C559.1 118.54 555.382 98.7612 549.212 82.7388C549.324 82.4498 549.388 82.1447 549.324 81.7915C548.25 75.8032 544.804 69.4937 542.112 64.0833C539.964 59.7646 537.688 55.9597 533.297 53.7281C533.233 53.696 533.153 53.6799 533.088 53.6639C533.056 53.6157 533.024 53.5515 532.992 53.5033C529.691 47.9966 525.812 44.8499 520.411 42.7146C520.555 41.9119 520.219 40.9968 519.241 40.6436C514.032 38.7652 507.862 35.6346 502.285 35.4098C495.345 35.1369 487.588 39.0542 480.937 40.756C469.734 43.6298 458.179 44.8338 454.076 57.228C451.736 64.276 450.261 71.7414 448.21 78.9017C446.351 85.4038 444.62 92.0183 444.283 98.7934C444.011 104.22 444.908 109.309 446.543 114.142C446.735 120.901 449.925 127.082 452.73 133.23C452.906 133.6 453.066 134.001 453.242 134.37C453.178 134.435 453.13 134.515 453.098 134.611C451.063 139.989 451.303 146.122 452.361 152.255C452.297 152.384 452.249 152.512 452.249 152.689C452.281 155.45 452.489 158.581 452.938 161.743C450.566 163.67 449.684 167.587 449.925 170.991C450.021 172.372 450.309 173.768 450.71 175.149C446.96 175.807 442.665 177.413 440.501 180.784C439.732 181.988 440.036 182.309 439.267 184.14C436.799 190.016 435.709 188.121 430.869 191.701C427.215 194.398 429.378 195.121 425.917 199.584C422.503 203.983 416.573 205.043 413.095 209.265C412.806 209.618 412.678 209.987 412.662 210.357C410.691 215.88 412.662 222.141 413.287 227.792C413.864 233.042 415.499 237.714 416.621 242.835C417.727 247.925 418.288 253.174 421.413 257.525C425.083 262.631 429.747 265.681 432.824 270.899C432.936 271.172 433.065 271.444 433.177 271.717C433.433 275.282 433.658 283.277 438.177 282.651C440.196 286.086 442.713 289.137 446.303 291.914C449.604 294.467 452.04 297.935 455.582 300.15C460.599 303.281 464.686 304.517 467.779 310.12C477.571 327.86 475.68 350.674 491.13 365.332C496.018 371.465 502.557 377.854 510.186 378.416C521.148 379.219 528.072 373.166 533.185 363.823C535.989 358.717 536.246 351.493 537.143 345.793C538.169 339.339 537.848 332.805 538.602 326.335C539.66 317.216 544.275 311.774 547.977 303.907C550.077 299.46 550.702 295.237 549.003 290.549C548.763 289.875 548.266 289.506 547.721 289.377C546.872 286.889 545.573 284.641 544.339 281.992C541.439 275.763 540.525 268.828 537.832 262.518C533.778 252.95 528.296 243.879 523.633 234.631C533.329 231.87 543.57 229.767 552.481 225.063C561.6 220.262 569.405 212.54 575.912 204.673C576.313 204.192 576.425 203.662 576.345 203.164C577.868 201.832 579.278 200.403 580.624 198.781C581.185 198.123 581.281 196.839 580.32 196.405H580.368Z" fill="white"/>
<path d="M475.745 136.65C481.065 136.65 485.378 132.33 485.378 127.001C485.378 121.672 481.065 117.353 475.745 117.353C470.426 117.353 466.113 121.672 466.113 127.001C466.113 132.33 470.426 136.65 475.745 136.65Z" fill="#FFEEEE"/>
<path d="M522.383 136.65C527.702 136.65 532.015 132.33 532.015 127.001C532.015 121.672 527.702 117.353 522.383 117.353C517.063 117.353 512.75 121.672 512.75 127.001C512.75 132.33 517.063 136.65 522.383 136.65Z" fill="#FFEEEE"/>
<path d="M497.608 68.1452C470.234 71.019 457.028 98.7614 459.256 124.096C459.272 124.352 459.656 124.368 459.656 124.096C459.592 98.5205 469.882 72.8171 497.704 68.8998C498.137 68.8356 498.041 68.081 497.608 68.1292V68.1452Z" fill="#1E1E1E"/>
<path d="M462.847 98.5689C459.674 113.098 459.498 132.589 466.229 146.267C472.255 158.501 487.08 168.358 500.783 166.608C501.28 166.544 501.312 165.773 500.783 165.789C485.397 166.64 470.236 156.189 465.251 141.37C460.78 128.093 461.165 112.328 463.376 98.6973C463.44 98.3441 462.912 98.1996 462.847 98.5528V98.5689Z" fill="#1E1E1E"/>
<path d="M500.781 68.9319C528.636 72.2873 538.797 98.954 538.733 124.112C538.733 124.385 539.118 124.368 539.134 124.112C541.33 99.0985 528.204 70.4893 500.781 68.1613C500.269 68.1132 500.285 68.8838 500.781 68.948V68.9319Z" fill="#1E1E1E"/>
<path d="M535.016 98.7133C537.227 112.344 537.612 128.093 533.141 141.386C528.172 156.173 512.963 166.656 497.609 165.805C497.08 165.773 497.112 166.56 497.609 166.624C511.296 168.374 526.169 158.517 532.163 146.283C538.878 132.589 538.718 113.114 535.545 98.5848C535.464 98.2316 534.952 98.3922 535.016 98.7293V98.7133Z" fill="#1E1E1E"/>
<path d="M463.135 56.2489C457.99 63.9391 455.747 72.3517 454.801 81.5028C453.791 91.3283 452.557 102.358 456.259 111.734C456.42 112.151 457.093 111.991 456.949 111.541C454.096 102.695 454.833 93.2227 455.602 84.0716C456.42 74.3264 458.295 64.8542 463.391 56.3934C463.488 56.2329 463.231 56.0884 463.135 56.2489Z" fill="#1E1E1E"/>
<path d="M501.293 35.972C491.228 36.8229 481.339 39.3435 471.948 43.0682C464.816 45.9099 458.309 48.5428 454.943 55.7834C446.481 73.9893 443.596 96.4819 445.119 116.325C445.151 116.823 445.936 116.823 445.904 116.325C444.686 98.0231 447.667 79.9938 453.324 62.5906C455.2 56.827 457.187 51.8019 462.444 48.2538C466.499 45.5085 471.595 43.8549 476.179 42.2494C484.369 39.3756 492.799 37.7702 501.357 36.5018C501.662 36.4537 501.597 35.9239 501.277 35.956L501.293 35.972Z" fill="#1E1E1E"/>
<path d="M447.107 116.903C449.703 128.334 454.159 140.247 460.826 149.96C461.082 150.329 461.627 150.008 461.419 149.606C456.082 138.786 451.258 128.334 447.796 116.711C447.668 116.277 447.011 116.454 447.123 116.903H447.107Z" fill="#1E1E1E"/>
<path d="M451.979 136.249C451.178 144.019 450.456 152.737 452.428 160.379C452.492 160.604 452.844 160.556 452.844 160.331C452.844 152.239 451.803 144.389 452.524 136.249C452.556 135.896 452.011 135.912 451.979 136.249Z" fill="#1E1E1E"/>
<path d="M451.531 169.755C450.986 162.579 456.291 159.191 462.814 160.572C466.243 161.294 469.385 162.884 472.927 163.044C473.263 163.044 473.343 162.53 473.007 162.45C467.702 161.31 461.467 157.842 455.922 159.817C451.707 161.326 450.232 165.677 450.906 169.835C450.954 170.172 451.531 170.092 451.515 169.755H451.531Z" fill="#1E1E1E"/>
<path d="M450.922 171.681C450.232 176.434 452.829 182.984 458.198 183.787C458.486 183.835 458.646 183.498 458.39 183.321C456.467 181.972 454.56 180.993 453.181 178.97C451.803 176.947 451.21 174.282 451.354 171.762C451.354 171.505 450.938 171.441 450.889 171.697L450.922 171.681Z" fill="#1E1E1E"/>
<path d="M449.863 175.278C444.559 176.112 440.632 179.885 438.356 184.589C437.026 187.335 437.058 188.651 433.644 190.112C432.538 190.594 431.336 190.546 430.343 191.316C429.045 192.328 428.74 193.082 429.061 194.575C429.125 194.864 429.509 194.768 429.541 194.511C429.99 190.802 433.997 191.557 436.048 189.984C437.074 189.197 437.539 188.137 438.068 187.014C440.856 181.138 443.533 177.766 449.992 175.791C450.328 175.695 450.184 175.229 449.847 175.278H449.863Z" fill="#1E1E1E"/>
<path d="M428.356 195.892C449.704 215.88 477.142 228.932 506.167 232.561C519.597 234.246 533.637 234.021 546.074 228.065C559.376 221.675 569.697 210.213 578.993 199.071C579.313 198.685 578.785 198.123 578.432 198.509C569.168 208.607 560.049 219.364 547.788 225.914C533.829 233.379 517.754 233.235 502.496 230.875C474.914 226.604 449.543 214.034 428.724 195.539C428.484 195.33 428.131 195.667 428.372 195.892H428.356Z" fill="#1E1E1E"/>
<path d="M562.725 192.986C566.09 193.596 569.472 194.174 572.838 194.832C574.36 195.121 575.883 195.426 577.373 195.876C578.623 196.229 579.825 196.711 580.979 197.289C580.851 199.536 579.97 200.499 578.335 200.21C577.934 200.21 577.95 200.804 578.335 200.821C580.354 200.965 584.65 199.954 582.214 197.321C580.531 195.49 576.572 194.929 574.312 194.479C570.514 193.74 566.651 193.243 562.821 192.649C562.613 192.617 562.5 192.938 562.725 192.986Z" fill="#1E1E1E"/>
<path d="M560.544 191.493C557.643 196.871 553.236 200.612 549.309 205.171C549.069 205.444 549.421 205.781 549.71 205.573C554.278 201.928 558.477 197.048 560.945 191.734C561.073 191.461 560.688 191.236 560.544 191.493Z" fill="#1E1E1E"/>
<path d="M552.435 168.214C560.609 174.138 560.945 180.704 559.711 190.016C559.695 190.176 559.952 190.24 560.016 190.096C563.734 182.47 560.769 171.119 552.579 167.844C552.355 167.764 552.259 168.085 552.435 168.197V168.214Z" fill="#1E1E1E"/>
<path d="M554.519 172.661C551.602 194.816 537.017 211.176 515.124 215.848C514.564 215.96 514.804 216.779 515.349 216.682C537.081 213.006 553.701 194.8 554.951 172.661C554.967 172.372 554.551 172.388 554.519 172.661Z" fill="#1E1E1E"/>
<path d="M448.981 180.206C433.708 198.958 474.208 215.783 487.077 216.65C487.462 216.682 487.558 216.04 487.173 215.976C478.647 214.322 470.586 212.123 463.101 207.515C454.511 202.233 441.625 191.461 449.366 180.511C449.526 180.287 449.158 180.014 448.981 180.222V180.206Z" fill="#1E1E1E"/>
<path d="M484.819 199.954C509.933 208.366 535.32 202.763 549.263 178.97C549.391 178.762 549.087 178.521 548.926 178.713C540.721 188.298 534.278 197.016 521.681 201.045C509.083 205.075 496.823 203.277 484.947 199.504C484.658 199.408 484.546 199.857 484.819 199.954Z" fill="#1E1E1E"/>
<path d="M546.362 149.269C545.961 168.551 541.137 188.346 519.036 191.493C502.336 193.869 485.059 189.39 468.615 186.869C468.07 186.789 467.83 187.608 468.391 187.704C478.103 189.47 487.976 190.754 497.768 191.926C507.56 193.098 517.93 194.094 527.177 190.449C544.166 183.754 547.019 165.484 547.051 149.253C547.051 148.82 546.378 148.82 546.378 149.253L546.362 149.269Z" fill="#1E1E1E"/>
<path d="M535.175 133.198C532.771 141.483 530.895 149.847 529.886 158.42C528.684 168.695 528.411 178.344 521.904 186.869C521.664 187.174 522.177 187.559 522.433 187.286C527.369 182.053 529.036 175.567 529.886 168.551C531.328 156.606 532.306 144.95 535.495 133.279C535.559 133.07 535.239 132.99 535.175 133.198Z" fill="#1E1E1E"/>
<path d="M549.952 120.756C536.281 138.93 542.916 164.361 530.591 183.482C530.367 183.835 530.912 184.284 531.185 183.931C545.16 165.886 538.413 140.263 550.449 121.045C550.641 120.724 550.176 120.467 549.952 120.756Z" fill="#1E1E1E"/>
<path d="M545.688 86.9934C546.458 96.5941 544.422 105.119 541.778 114.254C541.714 114.479 542.034 114.623 542.147 114.415C546.602 106.163 547.323 96.1767 546.298 86.9934C546.249 86.6242 545.672 86.6081 545.688 86.9934Z" fill="#1E1E1E"/>
<path d="M501.807 36.293C507.176 37.8824 512.705 39.5039 518.234 40.3548C518.635 40.419 518.795 39.8732 518.395 39.7447C513.09 37.9466 507.432 36.8389 501.935 35.7632C501.598 35.699 501.454 36.1806 501.791 36.293H501.807Z" fill="#1E1E1E"/>
<path d="M523.765 44.4327C531.361 51.6733 538.766 58.5768 543.622 68.0811C548.478 77.5854 550.77 87.2824 552.645 97.3326C556.716 119.247 557.934 140.825 551.652 162.402C551.587 162.627 551.908 162.707 552.004 162.498C560.418 141.82 557.886 118.38 553.895 96.9955C549.808 75.0809 541.458 58.3039 524.069 44.1437C523.877 43.9832 523.588 44.2401 523.781 44.4327H523.765Z" fill="#1E1E1E"/>
<path d="M427.024 196.309C402.695 200.194 417.649 231.565 417.392 247.122C417.392 247.732 418.258 247.716 418.322 247.122C419.892 231.356 403.064 201.784 427.233 197.064C427.746 196.967 427.521 196.213 427.024 196.293V196.309Z" fill="#1E1E1E"/>
<path d="M434.156 203.742C433.724 207.884 432.426 211.432 430.967 215.302C430.839 215.639 431.368 215.847 431.544 215.542C433.547 212.01 434.381 207.756 434.701 203.742C434.733 203.389 434.189 203.405 434.156 203.742Z" fill="#1E1E1E"/>
<path d="M441.771 210.213C440.184 217.935 436.61 223.795 432.171 230.136C431.946 230.457 432.427 230.795 432.7 230.554C438.165 225.464 441.258 217.646 442.524 210.437C442.604 209.94 441.867 209.715 441.755 210.229L441.771 210.213Z" fill="#1E1E1E"/>
<path d="M463.358 223.345C456.419 227.937 451.515 236.911 447.636 244.04C447.492 244.312 447.876 244.65 448.085 244.393C453.262 237.81 456.755 228.98 463.839 224.164C464.336 223.827 463.871 223.008 463.358 223.345Z" fill="#1E1E1E"/>
<path d="M420.871 237.842C419.861 242.562 420.599 247.17 423.676 251.055C425.904 253.865 427.602 254.973 429.702 258.184C432.875 263.048 431.85 264.011 432.362 269.229C433.869 284.593 446.755 290.052 457.188 298.882C463.535 304.26 468.311 311.148 471.58 318.79C474.85 326.432 475.202 334.957 477.831 342.952C482.014 355.683 492.399 368.703 502.705 377.052C503.298 377.533 504.131 376.699 503.538 376.217C492.463 367.034 481.245 352.857 478.055 338.553C475.202 325.838 472.862 314.519 464.224 304.212C454.784 292.958 437.812 288.206 434.093 272.665C432.891 267.656 434.831 261.362 431.737 256.947C430.84 255.679 429.638 254.924 428.484 253.913C423.227 249.289 420.519 245.067 421.336 237.907C421.368 237.634 420.919 237.586 420.871 237.842Z" fill="white"/>
<path d="M490.33 233.7C497.927 266.387 495.01 300.134 495.379 333.335C495.379 333.865 496.132 333.849 496.196 333.335C498.039 315.948 497.494 298.031 496.853 280.58C496.276 264.67 495.298 248.904 490.955 233.524C490.843 233.138 490.25 233.299 490.346 233.684L490.33 233.7Z" fill="#1E1E1E"/>
<path d="M484.321 229.43C485.491 248.92 483.087 267.303 473.503 284.545C473.278 284.963 473.871 285.284 474.128 284.914C485.235 268.86 486.581 248.326 484.802 229.446C484.77 229.141 484.305 229.141 484.321 229.446V229.43Z" fill="#1E1E1E"/>
<path d="M496.55 232.304C499.179 243.702 500.83 255.165 502.753 266.692C502.833 267.206 503.682 267.078 503.65 266.564C502.881 254.941 500.317 243.317 497.256 232.095C497.127 231.629 496.438 231.822 496.55 232.287V232.304Z" fill="#1E1E1E"/>
<path d="M520.015 232.207C522.339 245.436 530.529 257.75 535.898 269.952C539.007 277.016 542.645 284.433 544.905 291.866C547.309 299.813 546.251 303.827 541.331 310.072C540.033 311.726 538.639 313.203 537.565 315.017C531.571 325.131 536.699 338.746 533.574 349.839C529.103 365.717 516.65 376.57 501.152 381.194C500.398 381.419 500.719 382.559 501.472 382.366C513.621 379.428 524.182 371.706 530.433 360.821C533.622 355.266 535.674 349.053 536.347 342.679C537.244 334.17 534.295 324.81 538.254 316.831C541.107 311.067 547.421 306.877 547.95 299.99C548.447 293.568 543.976 286.151 541.588 280.467C534.856 264.477 524.92 248.84 520.4 232.079C520.32 231.806 519.935 231.918 519.983 232.191L520.015 232.207Z" fill="white"/>
<path d="M412.889 208.639C405.421 212.701 394.01 218.77 389.426 226.444C387.31 229.976 387.294 234.391 386.99 238.388C386.397 245.95 386.06 253.528 385.804 261.106C384.794 290.983 383.816 320.171 376.701 349.358C376.588 349.823 377.261 350 377.406 349.55C385.002 326.079 385.74 300.728 386.509 276.277C386.91 263.658 387.054 250.975 388.032 238.388C388.625 230.891 390.163 226.091 396.061 221.162C401.43 216.667 407.232 212.797 413.21 209.201C413.546 208.992 413.242 208.479 412.905 208.671L412.889 208.639Z" fill="white"/>
<path d="M401.287 233.732C405.486 243.381 409.894 252.934 414.157 262.55C418.933 273.307 421.065 284.047 422.892 295.623C426.402 318.003 428.068 340.383 429.431 362.972C429.463 363.437 430.152 363.437 430.152 362.972C430.008 340.383 427.523 317.634 423.901 295.35C422.283 285.412 420.68 275.539 416.769 266.211C412.122 255.165 406.785 244.361 401.592 233.572C401.496 233.363 401.207 233.54 401.287 233.748V233.732Z" fill="white"/>
<path d="M590.21 207.274C569.487 249.113 567.5 295.061 571.859 340.801C571.907 341.25 572.596 341.266 572.58 340.801C571.507 318.212 569.68 295.687 572.148 273.114C574.616 250.542 581.203 228.45 590.755 207.595C590.915 207.242 590.402 206.921 590.226 207.29L590.21 207.274Z" fill="white"/>
<path d="M582.454 199.681C590.291 203.791 595.949 207.772 599.394 216.329C601.558 221.691 603.273 227.294 604.86 232.849C608.562 245.709 611.174 258.922 613.178 272.135C617.297 299.331 617.585 326.64 619.941 353.965C619.989 354.447 620.71 354.463 620.71 353.965C620.919 324.73 618.547 294.692 613.578 265.874C611.046 251.2 607.456 236.751 602.664 222.655C598.705 211.015 594.298 204.192 582.694 199.247C582.406 199.119 582.15 199.52 582.438 199.681H582.454Z" fill="#1E1E1E"/>
<path d="M487.046 92.5323C484.289 90.7342 480.058 91.3764 476.997 92.147C473.936 92.9176 471.003 94.6676 469.705 97.6698C469.464 98.2477 469.961 98.7615 470.538 98.5046C473.343 97.2684 475.25 95.5827 478.391 95.0689C481.164 94.6194 484.145 95.3098 486.789 94.491C487.703 94.202 487.831 93.0139 487.046 92.5163V92.5323Z" fill="#1E1E1E"/>
<path d="M474.931 107.608C477.095 107.046 479.13 106.371 481.374 106.179C483.153 106.018 485.028 106.275 486.743 105.777C487.111 105.665 487.079 105.183 486.743 105.055C483.377 103.835 477.479 104.734 474.594 106.821C474.21 107.094 474.434 107.736 474.931 107.608Z" fill="#1E1E1E"/>
<path d="M478.232 106.789C477.911 109.582 479.546 112.424 482.575 112.52C483.777 112.552 485.075 112.183 485.556 110.979C486.165 109.454 486.037 107.56 485.716 105.986C485.54 105.119 484.081 105.312 484.162 106.195C484.322 107.72 484.514 109.406 483.2 110.481L484.562 110.658C484.354 110.337 483.488 107.752 484.29 107.592L483.392 107.351C483.392 107.351 482.911 108.667 482.927 108.587L482.719 108.956C483.072 109.39 483.184 109.422 483.072 109.053C483.152 108.86 482.992 108.105 482.992 107.913C482.992 107.479 482.96 107.014 483.072 106.596L482.623 107.19C483.04 106.885 482.944 108.667 482.927 108.571L483.168 109.085C483.104 108.892 483.04 108.699 482.976 108.507C482.863 108.154 482.318 107.046 482.479 106.805H480.523C480.668 107.303 481.02 107.367 481.581 106.965C481.293 105.665 479.418 106.034 479.353 107.271C479.257 108.908 479.386 110.754 481.084 111.429C482.318 111.926 482.767 110.128 481.902 109.47C481.421 109.101 481.597 107.736 481.613 107.271L479.386 107.576C479.674 108.812 480.828 110.016 482.142 109.149C483.296 108.394 483.104 106.66 482.463 105.665C481.998 104.943 480.972 104.927 480.507 105.665C479.995 106.5 480.187 107.271 480.507 108.137C480.764 108.86 480.988 109.775 481.453 110.401C482.527 111.878 484.274 110.883 484.787 109.502C485.348 107.993 484.995 106.018 483.344 105.376C482.783 105.151 482.126 105.119 481.613 105.488C480.924 105.986 481.02 106.949 481.036 107.704C481.068 108.94 481.165 111.284 483.008 110.963C484.498 110.69 485.38 108.121 485.107 106.805C484.771 105.199 483.04 105.794 482.495 106.933C481.854 108.298 482.254 110.353 483.056 111.541C483.376 112.023 483.969 112.103 484.418 111.718C486.117 110.241 485.989 108.041 485.716 105.986L484.194 106.404C484.45 107.543 484.466 108.651 484.113 109.759C483.825 110.658 483.072 110.77 482.19 110.594C480.075 110.16 479.963 108.362 479.594 106.596C479.418 105.761 478.312 106.066 478.216 106.789H478.232Z" fill="#1E1E1E"/>
<path d="M478.761 112.343C480.796 113.323 483.874 113.467 485.845 112.215C486.197 111.99 486.069 111.412 485.636 111.412C483.297 111.412 481.469 112.841 479.081 111.798C478.713 111.637 478.392 112.167 478.761 112.343Z" fill="#1E1E1E"/>
<path d="M511.118 94.9885C513.747 95.8073 516.76 95.117 519.516 95.5665C522.593 96.0642 524.629 97.782 527.369 99.0022C527.946 99.2591 528.443 98.7453 528.203 98.1674C526.905 95.1491 524.004 93.4152 520.911 92.6446C517.817 91.874 513.634 91.2318 510.862 93.0299C510.076 93.5436 510.205 94.7317 511.118 95.0046V94.9885Z" fill="#1E1E1E"/>
<path d="M525.207 107.302C522.306 105.215 516.408 104.316 513.059 105.536C512.722 105.665 512.69 106.146 513.059 106.259C514.773 106.757 516.649 106.5 518.428 106.66C520.687 106.869 522.707 107.543 524.87 108.089C525.367 108.218 525.576 107.575 525.207 107.302Z" fill="#1E1E1E"/>
<path d="M520.204 107.078C519.836 108.844 519.74 110.642 517.608 111.075C516.727 111.252 515.973 111.156 515.685 110.24C515.332 109.133 515.332 108.025 515.605 106.885L514.082 106.468C513.81 108.507 513.665 110.722 515.38 112.199C515.813 112.584 516.406 112.504 516.743 112.022C517.56 110.818 517.945 108.779 517.304 107.415C516.775 106.275 515.028 105.665 514.691 107.286C514.419 108.603 515.3 111.172 516.791 111.445C518.634 111.782 518.73 109.422 518.762 108.185C518.778 107.431 518.874 106.468 518.185 105.97C517.672 105.601 517.031 105.633 516.454 105.857C514.803 106.5 514.451 108.474 515.012 109.984C515.525 111.364 517.271 112.376 518.345 110.883C518.81 110.24 519.018 109.341 519.291 108.619C519.611 107.752 519.804 106.981 519.291 106.147C518.826 105.408 517.8 105.424 517.336 106.147C516.695 107.158 516.518 108.876 517.656 109.63C518.97 110.497 520.124 109.293 520.413 108.057L518.185 107.752C518.217 108.282 518.393 109.582 517.897 109.951C517.047 110.61 517.48 112.408 518.714 111.91C520.413 111.22 520.525 109.39 520.445 107.752C520.381 106.532 518.506 106.147 518.217 107.447C518.778 107.832 519.131 107.784 519.275 107.286H517.32C517.464 107.527 516.919 108.667 516.823 108.988C516.775 109.117 516.743 109.245 516.695 109.373C516.566 109.743 516.614 109.63 516.871 109.052C516.871 108.94 516.791 107.399 517.175 107.672L516.727 107.078C516.839 107.479 516.807 107.993 516.807 108.394C516.807 108.699 516.614 109.277 516.727 109.534C516.63 109.823 516.695 109.839 516.887 109.598C517.159 109.47 517.159 109.293 516.887 109.068C516.855 108.908 516.39 107.848 516.422 107.832L515.525 108.073C516.31 108.234 515.444 110.818 515.252 111.139L516.614 110.963C515.3 109.887 515.476 108.201 515.653 106.676C515.749 105.793 514.274 105.601 514.098 106.468C513.778 108.025 513.649 109.935 514.258 111.461C514.755 112.649 516.037 113.034 517.239 113.002C520.269 112.905 521.903 110.08 521.583 107.27C521.503 106.548 520.381 106.243 520.204 107.078Z" fill="#1E1E1E"/>
<path d="M520.736 112.279C518.38 113.323 516.504 111.91 514.181 111.894C513.748 111.894 513.62 112.472 513.972 112.697C515.943 113.949 519.005 113.805 521.056 112.825C521.425 112.649 521.104 112.119 520.736 112.279Z" fill="#1E1E1E"/>
<path d="M499.113 116.341C499.033 119.279 500.524 122.426 502.03 124.882C503.216 126.841 505.124 128.912 507.56 128.928C508.008 128.928 508.185 128.302 507.784 128.093C505.444 126.761 503.825 125.541 502.495 123.1C501.325 120.981 500.219 118.621 499.706 116.261C499.626 115.924 499.113 116.004 499.113 116.341Z" fill="#1E1E1E"/>
<path d="M507.673 128.19C506.247 129.153 505.061 130.341 503.49 131.128C501.791 131.978 500.012 132.267 498.217 132.829C497.865 132.942 497.801 133.536 498.217 133.616C501.695 134.226 506.615 132.011 508.394 128.928C508.651 128.495 508.122 127.901 507.673 128.206V128.19Z" fill="#1E1E1E"/>
<path d="M488.008 141.354C493.024 145.898 502.015 147.214 508.298 144.902C508.698 144.758 508.682 144.084 508.186 144.1C501.31 144.437 494.402 144.934 488.312 140.937C488.072 140.776 487.783 141.146 487.992 141.338L488.008 141.354Z" fill="#1E1E1E"/>
</svg>
