<svg width="34" height="34" viewBox="0 0 34 34" fill="none" xmlns="http://www.w3.org/2000/svg">
<rect x="0.560059" y="0.0341797" width="33" height="33" rx="16.5" fill="#9B1339" fill-opacity="0.15"/>
<path d="M14.2607 9.86816H19.8607C21.994 9.86816 23.7274 11.6015 23.7274 13.7348V19.3348C23.7274 20.3603 23.32 21.3438 22.5949 22.069C21.8697 22.7941 20.8862 23.2015 19.8607 23.2015H14.2607C12.1274 23.2015 10.394 21.4682 10.394 19.3348V13.7348C10.394 12.7093 10.8014 11.7258 11.5266 11.0007C12.2517 10.2755 13.2352 9.86816 14.2607 9.86816ZM14.1274 11.2015C13.4909 11.2015 12.8804 11.4544 12.4303 11.9044C11.9802 12.3545 11.7274 12.965 11.7274 13.6015V19.4682C11.7274 20.7948 12.8007 21.8682 14.1274 21.8682H19.994C20.6306 21.8682 21.241 21.6153 21.6911 21.1652C22.1412 20.7151 22.394 20.1047 22.394 19.4682V13.6015C22.394 12.2748 21.3207 11.2015 19.994 11.2015H14.1274ZM20.5607 12.2015C20.7817 12.2015 20.9937 12.2893 21.15 12.4456C21.3062 12.6019 21.394 12.8138 21.394 13.0348C21.394 13.2558 21.3062 13.4678 21.15 13.6241C20.9937 13.7804 20.7817 13.8682 20.5607 13.8682C20.3397 13.8682 20.1277 13.7804 19.9715 13.6241C19.8152 13.4678 19.7274 13.2558 19.7274 13.0348C19.7274 12.8138 19.8152 12.6019 19.9715 12.4456C20.1277 12.2893 20.3397 12.2015 20.5607 12.2015ZM17.0607 13.2015C17.9448 13.2015 18.7926 13.5527 19.4177 14.1778C20.0429 14.8029 20.394 15.6508 20.394 16.5348C20.394 17.4189 20.0429 18.2667 19.4177 18.8919C18.7926 19.517 17.9448 19.8682 17.0607 19.8682C16.1767 19.8682 15.3288 19.517 14.7037 18.8919C14.0786 18.2667 13.7274 17.4189 13.7274 16.5348C13.7274 15.6508 14.0786 14.8029 14.7037 14.1778C15.3288 13.5527 16.1767 13.2015 17.0607 13.2015ZM17.0607 14.5348C16.5303 14.5348 16.0216 14.7455 15.6465 15.1206C15.2714 15.4957 15.0607 16.0044 15.0607 16.5348C15.0607 17.0653 15.2714 17.574 15.6465 17.949C16.0216 18.3241 16.5303 18.5348 17.0607 18.5348C17.5911 18.5348 18.0999 18.3241 18.4749 17.949C18.85 17.574 19.0607 17.0653 19.0607 16.5348C19.0607 16.0044 18.85 15.4957 18.4749 15.1206C18.0999 14.7455 17.5911 14.5348 17.0607 14.5348Z" fill="#9B1339"/>
</svg>
