<svg width="34" height="34" viewBox="0 0 34 34" fill="none" xmlns="http://www.w3.org/2000/svg">
<rect x="0.560059" y="0.0341797" width="33" height="33" rx="16.5" fill="#9B1339" fill-opacity="0.15"/>
<path d="M21.7606 11.8082C21.1494 11.1908 20.4214 10.7013 19.619 10.3682C18.8166 10.0352 17.956 9.86518 17.0872 9.8682C13.4472 9.8682 10.4806 12.8349 10.4806 16.4749C10.4806 17.6415 10.7872 18.7749 11.3606 19.7749L10.4272 23.2015L13.9272 22.2815C14.8939 22.8082 15.9806 23.0882 17.0872 23.0882C20.7272 23.0882 23.6939 20.1215 23.6939 16.4815C23.6939 14.7149 23.0072 13.0549 21.7606 11.8082ZM17.0872 21.9682C16.1006 21.9682 15.1339 21.7015 14.2872 21.2015L14.0872 21.0815L12.0072 21.6282L12.5606 19.6015L12.4272 19.3949C11.8791 18.5195 11.588 17.5077 11.5872 16.4749C11.5872 13.4482 14.0539 10.9815 17.0806 10.9815C18.5472 10.9815 19.9272 11.5549 20.9606 12.5949C21.4722 13.1042 21.8777 13.71 22.1535 14.3772C22.4293 15.0443 22.5699 15.7596 22.5672 16.4815C22.5806 19.5082 20.1139 21.9682 17.0872 21.9682ZM20.1006 17.8615C19.9339 17.7815 19.1206 17.3815 18.9739 17.3215C18.8206 17.2682 18.7139 17.2415 18.6006 17.4015C18.4872 17.5682 18.1739 17.9415 18.0806 18.0482C17.9872 18.1615 17.8872 18.1749 17.7206 18.0882C17.5539 18.0082 17.0206 17.8282 16.3939 17.2682C15.9006 16.8282 15.5739 16.2882 15.4739 16.1215C15.3806 15.9549 15.4606 15.8682 15.5472 15.7815C15.6206 15.7082 15.7139 15.5882 15.7939 15.4949C15.8739 15.4015 15.9072 15.3282 15.9606 15.2215C16.0139 15.1082 15.9872 15.0149 15.9472 14.9349C15.9072 14.8549 15.5739 14.0415 15.4406 13.7082C15.3072 13.3882 15.1672 13.4282 15.0672 13.4215H14.7472C14.6339 13.4215 14.4606 13.4615 14.3072 13.6282C14.1606 13.7949 13.7339 14.1949 13.7339 15.0082C13.7339 15.8215 14.3272 16.6082 14.4072 16.7149C14.4872 16.8282 15.5739 18.4949 17.2272 19.2082C17.6206 19.3815 17.9272 19.4815 18.1672 19.5549C18.5606 19.6815 18.9206 19.6615 19.2072 19.6215C19.5272 19.5749 20.1872 19.2215 20.3206 18.8349C20.4606 18.4482 20.4606 18.1215 20.4139 18.0482C20.3672 17.9749 20.2672 17.9415 20.1006 17.8615Z" fill="#9B1339"/>
</svg>
