<svg width="371" height="213" viewBox="0 0 371 213" fill="none" xmlns="http://www.w3.org/2000/svg">
<g clip-path="url(#clip0_37_2119)">
<path d="M50.6615 4.5283C51.7483 3.71324 54.1935 2.55856 56.0953 1.87934C57.9292 1.26804 60.7819 0.72466 62.3441 0.656738C63.9742 0.656738 66.0798 1.06427 67.0987 1.60765C68.1854 2.0831 70.0193 3.64531 71.174 5.00376C72.3966 6.3622 73.8909 8.60363 74.5022 9.96208C75.1135 11.3884 75.7248 14.9883 75.9285 17.9769C76.1323 21.3051 75.9965 24.5653 75.4531 26.4672C74.9776 28.3011 73.6192 30.5425 72.1249 32.0368C70.7665 33.3952 68.8646 34.6857 67.7779 34.8895C66.759 35.0933 65.4685 34.9574 64.7893 34.4141C64.178 34.0065 62.6837 31.9689 61.3932 29.9991C60.1706 28.0973 58.8801 26.3313 58.4725 26.1276C58.065 25.9238 57.1141 26.603 56.2311 27.6218C55.416 28.7086 53.718 32.3085 52.4954 35.6367C51.2049 38.9648 49.5068 44.6703 48.5559 48.2023C47.605 51.7342 46.722 56.7604 46.4503 59.4094C46.1107 63.281 46.2466 64.3677 47.1975 65.3186C47.8088 65.9979 49.2351 66.5412 50.3219 66.5412C51.4086 66.5412 53.1067 66.2696 54.0576 65.862C55.0085 65.4545 59.9668 62.0584 65.061 58.3227C70.2231 54.519 74.638 51.2588 74.9097 50.9871C75.2493 50.7833 76.8115 43.5156 78.5096 34.9574C80.2076 26.3992 82.1774 17.5014 82.9245 15.26C83.7396 13.0186 85.0301 10.2338 85.9131 9.14701C86.7282 8.06025 88.3583 6.70181 89.4451 6.22636C91.1431 5.41129 91.7544 5.41129 93.7921 6.3622C95.0826 6.9735 96.7807 8.39987 97.4599 9.62246C98.1391 10.8451 98.9542 13.3582 99.2938 15.26C99.7013 18.1127 98.9542 23.139 94.4713 46.1646C91.4827 61.3112 87.747 81.0087 86.049 89.9744C84.3509 98.9401 81.5661 114.291 79.868 124.071C77.287 139.014 76.9474 142.207 77.6266 143.429C78.3737 144.652 78.9171 144.788 81.3623 144.448C83.8754 144.04 84.4867 144.176 85.981 145.671C87.1357 146.825 87.6791 148.116 87.6791 149.542C87.6791 150.765 87.2036 153.617 86.5923 155.859C85.981 158.1 84.215 162.515 82.5849 165.708C80.8869 168.968 78.1021 173.043 76.2002 175.013C74.2984 176.983 71.4457 179.224 69.8156 179.971C68.2533 180.718 66.2836 181.33 65.4006 181.33C64.5855 181.33 62.9554 180.854 61.8687 180.311C60.7819 179.768 59.2197 178.137 58.5405 176.711C57.8612 175.353 56.7745 171.889 56.2311 169.104C55.2123 164.281 55.2802 163.33 56.8424 151.104C57.7254 143.973 59.6951 130.999 61.1894 122.237C62.7516 113.475 65.6044 97.8534 67.71 87.5971C69.7476 77.3409 71.6494 68.1714 71.8532 67.2205C72.3287 65.5224 72.2607 65.5224 69.2722 67.8318C67.642 69.0544 64.5855 71.16 62.5479 72.5184C60.5102 73.8768 56.0274 76.1183 52.6992 77.5446C49.371 79.0389 46.0428 80.737 45.2956 81.3483C44.6164 81.9596 43.5976 83.4539 43.0542 84.5406C42.4429 85.6274 40.0656 98.0571 37.6884 112.049C35.379 126.041 32.3225 143.293 31.032 150.425C29.7415 157.557 28.1793 167.542 27.6359 172.636C27.0246 177.798 25.802 185.609 24.8511 189.956C23.9002 194.439 22.4059 199.193 21.5229 200.688C20.6399 202.182 18.5343 204.899 16.9042 206.801C15.2061 208.634 12.8288 210.74 11.5383 211.487C9.9082 212.37 8.54975 212.642 6.8517 212.37C5.56118 212.098 3.65936 211.08 2.5726 210.061C1.41793 208.838 0.534938 207.14 0.331171 205.442C0.0594828 203.54 1.62169 193.963 5.42533 173.858C8.41391 157.964 13.0326 133.241 15.7495 118.841C18.3985 104.442 20.7078 91.1291 20.9116 89.2952C21.1154 87.0537 20.9116 85.4915 20.3003 84.6765C19.8248 83.9972 17.3117 82.7067 14.6627 81.7558C12.0138 80.8049 8.61768 79.3106 6.98754 78.3597C5.42533 77.4767 4.13481 76.4579 4.13481 76.0503C4.13481 75.6428 5.42533 74.624 6.98754 73.741C9.56859 72.3146 10.5195 72.1109 14.8665 72.4505C19.4173 72.7901 19.9607 72.6542 21.6587 71.16C22.8813 70.0732 23.9002 67.9676 24.6473 65.1149C25.3265 62.7376 27.0925 55.7416 28.5189 49.5607C30.0132 43.3798 32.3225 35.1612 33.681 31.2217C35.0394 27.2822 37.4846 21.6447 38.9789 18.6561C40.5411 15.7355 43.3259 11.5922 45.2277 9.62246C47.0616 7.5848 49.5747 5.27545 50.6615 4.5283Z" fill="#9B1339"/>
<path d="M216.731 4.39246C218.022 3.57739 220.467 2.42271 222.165 1.81142C223.863 1.20012 226.512 0.72466 228.074 0.656738C229.704 0.656738 231.81 1.06427 232.829 1.60765C233.916 2.0831 235.885 3.78116 237.244 5.34337C238.806 7.04142 240.232 9.55454 240.844 11.6601C241.387 13.6299 241.862 17.5694 241.862 20.3542C241.862 23.7503 241.455 26.3313 240.572 28.1652C239.961 29.6595 238.398 31.6972 237.244 32.7839C236.021 33.8028 234.255 34.8216 233.168 35.0254C231.878 35.297 230.927 35.0254 230.112 34.1424C229.433 33.4631 228.006 31.4934 227.055 29.6595C226.037 27.8935 224.814 26.2634 224.338 26.1276C223.931 25.9238 222.912 26.603 222.165 27.6898C221.35 28.7086 219.788 31.833 218.633 34.6178C217.478 37.4026 215.712 43.0402 214.626 47.1834C213.539 51.3267 212.452 56.7604 212.18 59.4094C211.841 63.281 211.977 64.3677 212.928 65.3866C213.539 65.9979 214.965 66.5412 216.052 66.5412C217.139 66.5412 218.769 66.2696 219.584 65.9299C220.467 65.6583 225.629 62.1263 231.131 58.1189C236.7 54.1794 241.183 50.7833 241.183 50.5795C241.183 50.3758 241.93 46.64 242.881 42.293C243.764 37.8781 245.191 30.7463 246.006 26.4672C246.821 22.1881 248.111 16.9581 248.858 14.9204C249.606 12.8827 250.828 10.2338 251.711 9.14701C252.526 8.06025 254.088 6.70181 255.175 6.22636C256.873 5.41129 257.484 5.47921 259.794 6.56597C261.22 7.24519 262.85 8.60363 263.326 9.62246C263.869 10.7092 264.616 13.1544 264.956 15.0562C265.567 18.3165 265.092 21.5768 259.25 51.5984C255.719 69.7336 251.575 91.2649 250.081 99.4835C248.587 107.702 246.413 120.064 245.259 126.992C244.104 133.92 243.221 140.644 243.56 144.312H247.16C250.217 144.312 251.032 144.584 252.119 146.01C252.934 147.029 253.477 148.727 253.409 150.289C253.409 151.648 252.594 155.18 251.643 158.1C250.692 160.953 248.723 165.3 247.296 167.745C245.87 170.19 243.628 173.383 242.406 174.877C241.115 176.371 238.398 178.409 236.361 179.496C234.323 180.515 232.014 181.33 231.131 181.33C230.316 181.33 228.686 180.854 227.599 180.311C226.376 179.7 225.018 178.137 224.203 176.439C223.455 174.809 222.437 171.413 221.961 168.764C221.146 164.485 221.214 162.787 222.64 151.444C223.523 144.516 225.289 132.426 226.58 124.615C227.87 116.804 230.927 100.57 233.304 88.6159C235.749 76.6616 237.651 66.8129 237.583 66.6771C237.515 66.6092 234.731 68.3072 231.334 70.5487C227.938 72.7901 222.165 75.9145 218.429 77.5446C212.86 79.9898 211.365 80.9407 209.803 83.1822C208.037 85.6274 207.494 88.2084 203.486 112.049C201.109 126.449 198.188 142.954 197.102 148.727C196.015 154.5 194.317 165.368 193.366 172.839C192.415 180.311 190.921 189.141 190.106 192.537C189.087 196.748 187.864 199.805 186.098 202.386C184.74 204.423 181.955 207.616 179.985 209.449C176.521 212.574 176.182 212.71 173.261 212.37C170.952 212.098 169.729 211.487 168.303 209.925C167.284 208.77 166.265 206.801 166.061 205.646C165.79 204.152 167.691 192.605 171.495 172.5L171.664 171.599C174.851 154.648 179.418 130.356 181.887 117.143C184.332 103.695 186.506 91.3328 186.71 89.6348C186.845 87.9367 186.642 85.8991 186.234 85.0161C185.691 83.9972 183.721 82.8426 179.849 81.4162C176.793 80.3294 173.261 78.6993 172.106 77.8842C170.884 77.0692 169.865 76.1862 169.865 75.8466C169.865 75.5749 171.155 74.624 172.718 73.741C175.299 72.3146 176.182 72.1109 180.053 72.5184C183.517 72.7901 184.876 72.6542 186.302 71.7712C187.389 71.16 188.611 69.9373 189.155 69.0544C189.698 68.2393 191.396 61.9225 192.958 54.9945C194.521 48.0664 197.17 38.2856 198.868 33.2594C200.498 28.2331 203.147 21.7126 204.709 18.792C206.271 15.8034 209.056 11.7281 210.958 9.62246C212.792 7.5848 215.441 5.20752 216.731 4.39246Z" fill="#9B1339"/>
<path d="M112.742 52.0059C113.49 50.9871 115.12 49.6965 116.342 49.1532C117.565 48.6777 119.603 48.2702 120.757 48.2023C121.98 48.2023 124.085 48.6777 125.376 49.2211C126.666 49.7645 128.093 50.9191 128.5 51.7342C129.112 53.0247 128.908 54.0436 127.21 57.7114C126.055 60.1566 124.017 63.281 122.727 64.6394C121.368 66.0658 119.603 67.2205 118.72 67.2205C117.837 67.2884 115.731 65.9299 113.625 64.0281C110.569 61.2433 110.093 60.4962 110.433 58.866C110.637 57.8472 110.908 56.3529 111.044 55.4699C111.248 54.6549 111.995 53.0927 112.742 52.0059Z" fill="#9B1339"/>
<path d="M104.456 96.9704C105.611 96.427 107.173 95.8157 107.852 95.6119C108.531 95.4082 109.55 95.2044 110.093 95.1365C110.637 95.1365 112.335 95.6799 113.829 96.2912C115.323 96.9704 117.157 98.2609 117.904 99.2118C118.72 100.095 119.535 101.997 119.806 103.355C120.146 105.189 119.738 108.245 118.584 113.543C117.633 117.755 113.897 133.105 110.297 147.708C106.697 162.311 103.301 174.945 102.622 175.896C102.011 176.847 99.973 178.613 98.1391 179.835C96.3052 181.058 94.5392 182.009 94.1317 182.009C93.7242 182.009 92.3657 180.379 91.0752 178.477C89.7847 176.507 88.3583 173.519 87.9508 171.821C87.2715 169.104 87.5432 166.862 90.5318 151.444C92.2978 141.935 94.2675 129.369 94.8109 123.596C95.3543 117.822 96.2373 111.098 96.8486 108.653C97.4599 106.14 98.8183 102.88 100.041 101.114C101.264 99.3476 103.233 97.5138 104.456 96.9704Z" fill="#9B1339"/>
<path d="M295.453 101.929C295.385 100.638 295.996 99.1439 297.219 97.8534C298.238 96.6987 299.325 95.7478 299.664 95.7478C300.004 95.7478 301.023 96.7666 301.974 97.9213C302.857 99.1439 304.215 101.997 305.03 104.238C305.777 106.479 306.728 110.759 307.068 113.747C307.475 116.736 307.747 121.287 307.747 123.935C307.747 126.584 307.271 131.611 306.796 135.143C306.253 138.675 304.826 144.652 303.672 148.387C302.449 152.123 300.14 157.761 298.509 160.953C296.879 164.145 294.162 168.424 292.532 170.462C290.902 172.5 287.846 175.42 285.672 176.915C282.276 179.292 281.189 179.632 277.25 179.903C273.786 180.107 272.156 179.835 270.05 178.817C268.556 178.069 266.382 176.236 265.16 174.809C264.005 173.383 262.375 170.802 261.628 169.104C260.881 167.406 259.794 163.806 259.25 161.089C258.639 158.44 258.164 153.278 258.164 149.746C258.164 145.738 258.707 140.916 259.59 136.977C260.337 133.58 261.832 128.079 262.986 124.751C264.073 121.49 265.975 116.804 267.265 114.223C268.488 111.709 270.729 108.11 272.224 106.276C274.125 103.831 275.959 102.404 278.608 101.249C281.801 99.891 282.616 99.7552 284.789 100.434C286.216 100.842 287.982 101.997 288.729 103.015C289.544 104.102 290.155 105.868 290.087 106.955C290.087 108.245 289.068 110.351 287.302 112.728C285.74 114.766 283.363 118.773 281.936 121.558C280.578 124.343 278.608 128.962 277.657 131.747C276.706 134.531 275.416 139.218 274.873 142.071C274.261 144.991 273.582 149.882 273.31 152.938C272.903 158.372 272.971 158.78 275.144 163.33C276.435 165.979 277.454 168.153 277.454 168.289C277.522 168.357 279.355 167.406 281.597 166.183C285.333 164.077 285.876 163.398 287.778 159.187C289 156.606 291.038 151.308 292.396 147.369C293.687 143.429 295.385 137.52 296.132 134.124C296.879 130.728 297.694 125.701 297.966 122.917C298.306 118.977 298.034 116.192 296.947 110.826C296.2 107.023 295.453 103.015 295.453 101.929Z" fill="#9B1339"/>
<path d="M142.696 102.88C144.326 101.793 147.247 100.299 149.081 99.6873C150.983 99.008 153.564 98.5326 154.718 98.4647C155.941 98.4647 157.775 98.8722 158.794 99.4156C159.88 99.891 161.103 101.249 161.646 102.268C162.122 103.355 162.733 105.936 162.937 107.974C163.209 110.826 162.937 112.864 161.646 116.668C160.763 119.385 159.812 121.626 159.473 121.558C159.201 121.558 157.911 119.996 156.62 118.162C155.33 116.26 153.632 114.63 152.884 114.426C152.137 114.223 150.847 114.494 149.964 114.97C149.149 115.513 147.519 117.415 146.296 119.249C145.073 121.083 143.307 124.479 142.356 126.788C141.406 129.165 140.251 133.105 139.707 135.618C139.164 138.199 138.553 142.818 138.281 146.01C137.874 150.561 138.009 152.327 138.892 154.297C139.64 156.063 140.726 157.217 142.356 157.897C143.647 158.44 145.549 158.915 146.568 158.915C147.654 158.915 151.39 157.557 154.922 155.859C158.454 154.161 161.986 152.802 162.733 152.802C163.48 152.802 164.499 153.142 164.975 153.617C165.45 154.093 165.79 155.18 165.79 155.995C165.79 156.878 165.382 158.372 164.839 159.391C164.295 160.478 163.005 162.108 161.918 163.059C160.899 164.077 158.454 165.843 156.62 166.998C154.718 168.221 150.847 169.919 147.926 170.802C145.073 171.753 141.406 172.5 139.775 172.5C138.213 172.5 135.768 172.092 134.274 171.617C132.847 171.209 130.742 169.987 129.519 169.036C128.364 168.085 126.598 165.776 125.58 163.942C124.629 162.108 123.338 158.236 122.727 155.316C122.116 152.463 121.64 147.504 121.64 144.312C121.64 141.12 122.048 136.297 122.591 133.58C123.134 130.931 124.153 126.992 124.968 124.954C125.715 122.917 127.617 119.249 129.18 116.804C130.742 114.358 133.73 110.691 135.836 108.653C137.941 106.615 141.066 103.966 142.696 102.88Z" fill="#9B1339"/>
<path d="M329.822 102.2C331.656 101.114 334.44 99.8231 335.935 99.4156C337.429 98.9401 339.399 98.5326 340.35 98.5326C341.3 98.4647 343.066 98.7364 344.221 99.1439C345.647 99.5514 346.87 100.638 347.617 101.997C348.432 103.627 348.772 105.8 348.772 109.672C348.704 113.815 348.364 115.921 345.647 121.898L343.882 119.521C342.863 118.23 341.368 116.464 340.485 115.649C339.67 114.766 338.448 114.087 337.769 114.087C337.157 114.155 335.595 115.241 334.304 116.668C333.082 118.026 331.044 121.287 329.754 123.935C328.463 126.584 326.833 130.999 326.154 133.784C325.407 136.569 324.592 141.935 324.32 145.671C323.912 151.308 324.048 152.87 324.999 154.636C325.61 155.859 326.969 157.353 328.124 157.897C329.21 158.44 331.18 158.915 332.335 158.915C333.557 158.915 337.497 157.557 341.029 155.859C344.561 154.161 348.093 152.802 348.84 152.802C349.587 152.802 350.606 153.142 351.081 153.617C351.557 154.093 351.896 155.18 351.896 155.995C351.896 156.878 351.421 158.508 350.878 159.595C350.334 160.681 348.568 162.651 346.938 163.942C345.376 165.164 342.727 166.998 341.029 167.949C339.331 168.9 335.799 170.326 333.218 171.073C330.569 171.889 327.241 172.5 325.746 172.5C324.252 172.5 321.875 172.092 320.38 171.617C318.954 171.209 316.713 169.987 315.49 168.9C314.199 167.881 312.298 165.164 311.143 162.787C310.056 160.478 308.766 156.47 308.358 153.821C307.883 151.036 307.679 145.874 307.951 141.256C308.154 135.482 308.698 132.018 310.056 128.011C311.007 125.022 312.909 120.607 314.335 118.23C315.762 115.785 319.022 111.642 321.671 108.993C324.252 106.344 327.92 103.287 329.822 102.2Z" fill="#9B1339"/>
<path d="M349.798 12.4493C349.798 13.6262 350.022 14.7915 350.458 15.8788C350.894 16.9661 351.532 17.9541 352.338 18.7862C353.143 19.6184 354.099 20.2785 355.151 20.7289C356.204 21.1793 357.331 21.4111 358.47 21.4111C359.609 21.4111 360.737 21.1793 361.789 20.7289C362.841 20.2785 363.797 19.6184 364.603 18.7862C365.408 17.9541 366.047 16.9661 366.483 15.8788C366.919 14.7915 367.143 13.6262 367.143 12.4493C367.143 11.2724 366.919 10.1071 366.483 9.01979C366.047 7.9325 365.408 6.94457 364.603 6.11239C363.797 5.28021 362.841 4.62009 361.789 4.16972C360.737 3.71935 359.609 3.48755 358.47 3.48755C357.331 3.48755 356.204 3.71935 355.151 4.16972C354.099 4.62009 353.143 5.28021 352.338 6.11239C351.532 6.94457 350.894 7.9325 350.458 9.01979C350.022 10.1071 349.798 11.2724 349.798 12.4493Z" stroke="#9B1339" stroke-width="1.54181" stroke-linecap="round" stroke-linejoin="round"/>
<path d="M356.543 12.4491H358.47C358.982 12.4491 359.472 12.2393 359.833 11.8658C360.195 11.4923 360.398 10.9857 360.398 10.4576C360.398 9.92939 360.195 9.42284 359.833 9.04936C359.472 8.67588 358.982 8.46606 358.47 8.46606H356.543V16.4321M360.398 16.4321L357.507 12.4491" stroke="#9B1339" stroke-width="1.54181" stroke-linecap="round" stroke-linejoin="round"/>
</g>
<defs>
<clipPath id="clip0_37_2119">
<rect width="370.034" height="211.999" fill="white" transform="translate(0 0.500244)"/>
</clipPath>
</defs>
</svg>
