<svg width="158" height="96" viewBox="0 0 158 96" fill="none" xmlns="http://www.w3.org/2000/svg">
<path d="M22.5508 2.10129C23.0374 1.73631 24.1324 1.21926 24.984 0.915112C25.8052 0.641378 27.0826 0.39806 27.7822 0.367645C28.5121 0.367645 29.455 0.550134 29.9112 0.793452C30.3978 1.00636 31.219 1.7059 31.7361 2.31419C32.2835 2.92249 32.9527 3.92618 33.2264 4.53447C33.5001 5.17318 33.7739 6.78517 33.8651 8.12342C33.9564 9.61374 33.8955 11.0737 33.6522 11.9253C33.4393 12.7465 32.831 13.7502 32.1619 14.4193C31.5536 15.0276 30.702 15.6055 30.2153 15.6967C29.7591 15.7879 29.1812 15.7271 28.8771 15.4838C28.6033 15.3013 27.9342 14.3889 27.3563 13.5068C26.8089 12.6552 26.231 11.8644 26.0485 11.7732C25.866 11.6819 25.4402 11.9861 25.0448 12.4423C24.6798 12.929 23.9195 14.5409 23.372 16.0313C22.7941 17.5216 22.0338 20.0764 21.6079 21.658C21.1821 23.2396 20.7867 25.4903 20.6651 26.6764C20.513 28.4101 20.5738 28.8967 20.9997 29.3225C21.2734 29.6267 21.9121 29.87 22.3987 29.87C22.8854 29.87 23.6457 29.7483 24.0715 29.5658C24.4974 29.3834 26.7176 27.8626 28.9987 26.1898C31.3103 24.4866 33.2872 23.0267 33.4089 22.905C33.561 22.8138 34.2605 19.5594 35.0209 15.7271C35.7812 11.8949 36.6633 7.91051 36.9978 6.90683C37.3628 5.90314 37.9407 4.65613 38.3361 4.16949C38.7011 3.68286 39.431 3.07456 39.9177 2.86166C40.678 2.49668 40.9518 2.49668 41.8642 2.92249C42.4421 3.19622 43.2025 3.83493 43.5066 4.3824C43.8107 4.92986 44.1757 6.05521 44.3278 6.90683C44.5103 8.18425 44.1757 10.4349 42.1684 20.7456C40.8301 27.5281 39.1573 36.3483 38.3969 40.3631C37.6365 44.3779 36.3895 51.2516 35.6292 55.6313C34.4734 62.3226 34.3213 63.7521 34.6255 64.2995C34.96 64.847 35.2034 64.9078 36.2983 64.7558C37.4236 64.5733 37.6974 64.6341 38.3665 65.3032C38.8836 65.8203 39.1269 66.3982 39.1269 67.0369C39.1269 67.5843 38.914 68.8618 38.6402 69.8655C38.3665 70.8691 37.5757 72.8461 36.8458 74.2756C36.0854 75.7355 34.8384 77.5604 33.9868 78.4424C33.1352 79.3245 31.8577 80.3281 31.1278 80.6627C30.4282 80.9973 29.5462 81.271 29.1508 81.271C28.7858 81.271 28.0559 81.0581 27.5692 80.8148C27.0826 80.5715 26.3831 79.8415 26.0789 79.2028C25.7748 78.5945 25.2881 77.0433 25.0448 75.7963C24.5886 73.6369 24.619 73.2111 25.3186 67.7364C25.7139 64.5429 26.596 58.7336 27.2651 54.8101C27.9646 50.8866 29.2421 43.8912 30.1849 39.2986C31.0974 34.7059 31.949 30.6 32.0402 30.1741C32.2531 29.4138 32.2227 29.4138 30.8845 30.4479C30.1545 30.9953 28.7858 31.9382 27.8734 32.5465C26.961 33.1548 24.9536 34.1585 23.4632 34.7972C21.9729 35.4663 20.4826 36.2267 20.148 36.5004C19.8439 36.7742 19.3877 37.4433 19.1443 37.9299C18.8706 38.4166 17.8061 43.9825 16.7416 50.2479C15.7075 56.5134 14.3388 64.2387 13.7609 67.4323C13.183 70.6258 12.4835 75.0968 12.2402 77.3779C11.9665 79.6894 11.419 83.1871 10.9932 85.1337C10.5674 87.1411 9.89825 89.2701 9.50286 89.9392C9.10747 90.6083 8.16461 91.8249 7.43465 92.6765C6.67428 93.4977 5.60977 94.4406 5.03189 94.7752C4.30193 95.1706 3.69363 95.2922 2.93326 95.1706C2.35538 95.0489 1.50377 94.5927 1.01713 94.1365C0.500081 93.589 0.104689 92.8286 0.0134444 92.0682C-0.108215 91.2166 0.591326 86.9281 2.29455 77.9254C3.6328 70.8083 5.70101 59.7373 6.9176 53.2894C8.10378 46.8414 9.13788 40.8801 9.22913 40.059C9.32037 39.0553 9.22913 38.3557 8.95539 37.9907C8.74249 37.6866 7.61714 37.1087 6.43097 36.6829C5.24479 36.2571 3.72405 35.588 2.99409 35.1622C2.29455 34.7668 1.71667 34.3106 1.71667 34.1281C1.71667 33.9456 2.29455 33.4894 2.99409 33.094C4.14986 32.4553 4.57566 32.364 6.52221 32.5161C8.56 32.6682 8.80332 32.6073 9.56369 31.9382C10.1112 31.4516 10.5674 30.5087 10.9019 29.2313C11.2061 28.1668 11.9969 25.034 12.6356 22.2663C13.3047 19.4986 14.3388 15.8184 14.9471 14.0543C15.5554 12.2902 16.6503 9.76582 17.3195 8.42757C18.019 7.11973 19.266 5.26443 20.1176 4.3824C20.9388 3.46995 22.0642 2.43585 22.5508 2.10129Z" fill="#9B1339"/>
<path d="M96.915 2.04046C97.4929 1.67548 98.5878 1.15843 99.3482 0.884697C100.109 0.610964 101.295 0.39806 101.994 0.367645C102.724 0.367645 103.667 0.550134 104.123 0.793452C104.61 1.00636 105.492 1.76673 106.1 2.46627C106.8 3.22664 107.438 4.35198 107.712 5.29484C107.956 6.17687 108.168 7.94093 108.168 9.18794C108.168 10.7087 107.986 11.8644 107.591 12.6856C107.317 13.3548 106.617 14.2672 106.1 14.7538C105.553 15.2101 104.762 15.6663 104.275 15.7575C103.697 15.8792 103.272 15.7575 102.907 15.3621C102.603 15.058 101.964 14.176 101.538 13.3548C101.082 12.564 100.534 11.834 100.321 11.7732C100.139 11.6819 99.6827 11.9861 99.3482 12.4727C98.9832 12.929 98.2836 14.328 97.7666 15.575C97.2495 16.8221 96.4587 19.3465 95.9721 21.2018C95.4855 23.0571 94.9988 25.4903 94.8772 26.6764C94.7251 28.4101 94.7859 28.8967 95.2117 29.3529C95.4855 29.6267 96.1242 29.87 96.6108 29.87C97.0975 29.87 97.8274 29.7483 98.1924 29.5963C98.5878 29.4746 100.899 27.893 103.363 26.0986C105.857 24.3345 107.864 22.8138 107.864 22.7225C107.864 22.6313 108.199 20.9585 108.625 19.0119C109.02 17.035 109.659 13.8414 110.024 11.9253C110.389 10.0091 110.967 7.6672 111.301 6.75475C111.636 5.84231 112.183 4.65613 112.579 4.16949C112.944 3.68286 113.643 3.07456 114.13 2.86166C114.89 2.49668 115.164 2.5271 116.198 3.01373C116.837 3.31788 117.567 3.92618 117.78 4.3824C118.023 4.86903 118.357 5.96397 118.509 6.81558C118.783 8.27549 118.57 9.7354 115.955 23.1787C114.373 31.2995 112.518 40.941 111.849 44.6212C111.18 48.3014 110.206 53.8369 109.689 56.9392C109.172 60.0415 108.777 63.0525 108.929 64.6949H110.541C111.909 64.6949 112.274 64.8166 112.761 65.4553C113.126 65.9115 113.369 66.6719 113.339 67.3714C113.339 67.9797 112.974 69.5613 112.548 70.8691C112.122 72.1466 111.24 74.0931 110.602 75.188C109.963 76.283 108.959 77.7125 108.412 78.3816C107.834 79.0507 106.617 79.9632 105.705 80.4498C104.792 80.906 103.758 81.271 103.363 81.271C102.998 81.271 102.268 81.0581 101.781 80.8148C101.234 80.541 100.626 79.8415 100.261 79.0811C99.926 78.3512 99.4698 76.8304 99.2569 75.6443C98.8919 73.7281 98.9224 72.9678 99.5611 67.8885C99.9565 64.7862 100.747 59.3723 101.325 55.8746C101.903 52.3769 103.272 45.1078 104.336 39.7548C105.431 34.4018 106.283 29.9917 106.252 29.9308C106.222 29.9004 104.975 30.6608 103.454 31.6645C101.933 32.6682 99.3482 34.0672 97.6753 34.7972C95.1813 35.8921 94.5122 36.3179 93.8127 37.3216C93.0219 38.4166 92.7786 39.5723 90.9841 50.2479C89.9196 56.6958 88.6117 64.0866 88.1251 66.6719C87.6385 69.2572 86.8781 74.1235 86.4523 77.4691C86.0265 80.8148 85.3574 84.7687 84.9924 86.2894C84.5362 88.1752 83.9887 89.5438 83.1979 90.6996C82.5896 91.612 81.3426 93.0415 80.4606 93.8627C78.9094 95.2618 78.7573 95.3226 77.4495 95.1706C76.4154 95.0489 75.8679 94.7752 75.2292 94.0756C74.773 93.5586 74.3168 92.6765 74.2255 92.1595C74.1039 91.4904 74.9555 86.3199 76.6587 77.3171L76.7342 76.9157C78.1612 69.3253 80.2065 58.446 81.3122 52.529C82.4071 46.5069 83.3804 40.9714 83.4716 40.211C83.5325 39.4507 83.4412 38.5382 83.2587 38.1428C83.0154 37.6866 82.1334 37.1695 80.3997 36.5308C79.0311 36.0442 77.4495 35.3142 76.9325 34.9493C76.385 34.5843 75.9288 34.1889 75.9288 34.0368C75.9288 33.9152 76.5067 33.4894 77.2062 33.094C78.362 32.4553 78.7573 32.364 80.491 32.5465C82.0421 32.6682 82.6504 32.6073 83.2892 32.2119C83.7758 31.9382 84.3232 31.3907 84.5666 30.9953C84.8099 30.6304 85.5703 27.8018 86.2698 24.6995C86.9693 21.5972 88.1555 17.2174 88.9159 14.9667C89.6458 12.7161 90.832 9.79623 91.5316 8.4884C92.2311 7.15014 93.4781 5.32526 94.3297 4.3824C95.1509 3.46995 96.3371 2.40544 96.915 2.04046Z" fill="#9B1339"/>
<path d="M50.3499 23.3612C50.6845 22.905 51.4144 22.3271 51.9619 22.0838C52.5094 21.8709 53.4218 21.6884 53.9389 21.658C54.4863 21.658 55.4292 21.8709 56.0071 22.1142C56.585 22.3575 57.2237 22.8746 57.4062 23.2396C57.6799 23.8175 57.5887 24.2737 56.8283 25.9161C56.3112 27.011 55.3988 28.4101 54.8209 29.0184C54.2126 29.6571 53.4218 30.1741 53.0264 30.1741C52.631 30.2046 51.6882 29.5963 50.7453 28.7446C49.3767 27.4976 49.1638 27.1631 49.3158 26.4331C49.4071 25.9769 49.5287 25.3078 49.5896 24.9124C49.6808 24.5474 50.0154 23.8479 50.3499 23.3612Z" fill="#9B1339"/>
<path d="M46.6393 43.4958C47.1564 43.2525 47.8559 42.9788 48.1601 42.8875C48.4642 42.7963 48.9204 42.705 49.1637 42.6746C49.4071 42.6746 50.1674 42.9179 50.8366 43.1917C51.5057 43.4958 52.3269 44.0737 52.6615 44.4995C53.0264 44.8949 53.3914 45.7465 53.5131 46.3548C53.6651 47.176 53.4827 48.5447 52.9656 50.917C52.5398 52.8027 50.867 59.6765 49.255 66.2157C47.643 72.7549 46.1223 78.412 45.8181 78.8378C45.5444 79.2636 44.632 80.0544 43.8107 80.6019C42.9896 81.1493 42.1988 81.5751 42.0163 81.5751C41.8338 81.5751 41.2255 80.8452 40.6476 79.9936C40.0697 79.1115 39.431 77.7733 39.2485 77.0129C38.9444 75.7963 39.066 74.7926 40.4043 67.8885C41.1951 63.6304 42.0771 58.0037 42.3204 55.4184C42.5637 52.8332 42.9591 49.8221 43.2329 48.7272C43.5066 47.6018 44.1149 46.1419 44.6624 45.3511C45.2098 44.5603 46.0919 43.7391 46.6393 43.4958Z" fill="#9B1339"/>
<path d="M132.166 45.7161C132.135 45.1382 132.409 44.4691 132.956 43.8912C133.413 43.3742 133.899 42.9484 134.051 42.9484C134.204 42.9484 134.66 43.4046 135.086 43.9216C135.481 44.4691 136.089 45.7465 136.454 46.7502C136.789 47.7539 137.215 49.67 137.367 51.0083C137.549 52.3465 137.671 54.3843 137.671 55.5705C137.671 56.7567 137.458 59.0074 137.245 60.5889C137.002 62.1705 136.363 64.847 135.846 66.5198C135.298 68.1926 134.264 70.7171 133.534 72.1466C132.804 73.5761 131.588 75.4922 130.858 76.4046C130.128 77.3171 128.759 78.6249 127.786 79.294C126.265 80.3586 125.779 80.5106 124.015 80.6323C122.463 80.7235 121.733 80.6019 120.791 80.1456C120.121 79.8111 119.148 78.9899 118.601 78.3512C118.084 77.7125 117.354 76.5567 117.019 75.7963C116.685 75.036 116.198 73.424 115.955 72.2074C115.681 71.0212 115.468 68.7097 115.468 67.1281C115.468 65.3336 115.711 63.1742 116.107 61.4101C116.441 59.8894 117.11 57.4258 117.627 55.9355C118.114 54.4756 118.966 52.3769 119.544 51.2212C120.091 50.0958 121.095 48.4838 121.764 47.6626C122.615 46.5677 123.437 45.929 124.623 45.412C126.052 44.8037 126.417 44.7428 127.391 45.047C128.029 45.2295 128.82 45.7465 129.155 46.2027C129.52 46.6894 129.793 47.4802 129.763 47.9668C129.763 48.5447 129.307 49.4875 128.516 50.5521C127.816 51.4645 126.752 53.259 126.113 54.506C125.505 55.753 124.623 57.8212 124.197 59.0682C123.771 60.3152 123.193 62.4138 122.95 63.6912C122.676 64.9991 122.372 67.1889 122.251 68.5576C122.068 70.9908 122.098 71.1733 123.072 73.2111C123.65 74.3973 124.106 75.3705 124.106 75.4314C124.136 75.4618 124.957 75.036 125.961 74.4885C127.634 73.5456 127.877 73.2415 128.729 71.3558C129.276 70.2 130.189 67.8277 130.797 66.0636C131.375 64.2995 132.135 61.6535 132.47 60.1327C132.804 58.612 133.169 56.3613 133.291 55.1143C133.443 53.3502 133.321 52.1032 132.835 49.7004C132.5 47.9972 132.166 46.2027 132.166 45.7161Z" fill="#9B1339"/>
<path d="M63.7629 46.1419C64.4928 45.6553 65.8006 44.9861 66.6218 44.7124C67.4735 44.4083 68.6292 44.1954 69.1463 44.1649C69.6937 44.1649 70.5149 44.3474 70.9712 44.5908C71.4578 44.8037 72.0053 45.412 72.2486 45.8682C72.4615 46.3548 72.7352 47.5106 72.8265 48.423C72.9481 49.7004 72.8265 50.6129 72.2486 52.3161C71.8532 53.5327 71.4274 54.5364 71.2753 54.506C71.1536 54.506 70.5758 53.8064 69.9979 52.9852C69.42 52.1336 68.6596 51.4037 68.3251 51.3124C67.9905 51.2212 67.4126 51.3428 67.0172 51.5557C66.6523 51.7991 65.9223 52.6507 65.3748 53.4719C64.8274 54.2931 64.0366 55.8138 63.6108 56.8479C63.185 57.9124 62.6679 59.6765 62.4246 60.8018C62.1813 61.9576 61.9076 64.0258 61.7859 65.4553C61.6034 67.4931 61.6642 68.2839 62.0596 69.1659C62.3942 69.9567 62.8808 70.4737 63.6108 70.7779C64.1887 71.0212 65.0403 71.2341 65.4965 71.2341C65.9831 71.2341 67.6559 70.6258 69.2375 69.8655C70.8191 69.1051 72.4007 68.4968 72.7352 68.4968C73.0698 68.4968 73.526 68.6489 73.7389 68.8618C73.9518 69.0747 74.1039 69.5613 74.1039 69.9263C74.1039 70.3217 73.9214 70.9908 73.6781 71.447C73.4348 71.9337 72.8569 72.6636 72.3702 73.0894C71.914 73.5456 70.8191 74.3364 69.9979 74.8535C69.1463 75.4009 67.4126 76.1613 66.1048 76.5567C64.8274 76.9825 63.185 77.3171 62.455 77.3171C61.7555 77.3171 60.6605 77.1346 59.9914 76.9217C59.3527 76.7392 58.4098 76.1917 57.8624 75.7659C57.3453 75.3401 56.5545 74.306 56.0983 73.4848C55.6725 72.6636 55.0946 70.93 54.8209 69.6221C54.5472 68.3447 54.3343 66.1244 54.3343 64.6949C54.3343 63.2654 54.5168 61.106 54.7601 59.8894C55.0034 58.7032 55.4596 56.9392 55.8246 56.0267C56.1592 55.1143 57.0108 53.4719 57.7103 52.3769C58.4098 51.282 59.7481 49.6396 60.691 48.7272C61.6338 47.8147 63.0329 46.6285 63.7629 46.1419Z" fill="#9B1339"/>
<path d="M147.556 45.8378C148.377 45.3511 149.624 44.7732 150.293 44.5908C150.962 44.3778 151.844 44.1954 152.27 44.1954C152.696 44.165 153.486 44.2866 154.004 44.4691C154.642 44.6516 155.19 45.1382 155.524 45.7465C155.889 46.4765 156.041 47.4497 156.041 49.1834C156.011 51.0387 155.859 51.9816 154.642 54.6581L153.851 53.5935C153.395 53.0157 152.726 52.2249 152.331 51.8599C151.966 51.4645 151.418 51.1604 151.114 51.1604C150.84 51.1908 150.141 51.6774 149.563 52.3161C149.016 52.9244 148.103 54.3843 147.525 55.5705C146.947 56.7567 146.217 58.7336 145.913 59.9806C145.579 61.2276 145.214 63.6304 145.092 65.3032C144.91 67.8277 144.97 68.5272 145.396 69.318C145.67 69.8654 146.278 70.5346 146.795 70.7779C147.282 71.0212 148.164 71.2341 148.681 71.2341C149.228 71.2341 150.992 70.6258 152.574 69.8655C154.156 69.1051 155.737 68.4968 156.072 68.4968C156.406 68.4968 156.863 68.6489 157.075 68.8618C157.288 69.0747 157.44 69.5613 157.44 69.9263C157.44 70.3217 157.228 71.0516 156.984 71.5383C156.741 72.0249 155.95 72.9069 155.22 73.4848C154.521 74.0323 153.334 74.8535 152.574 75.2793C151.814 75.7051 150.232 76.3438 149.076 76.6784C147.89 77.0433 146.4 77.3171 145.731 77.3171C145.062 77.3171 143.997 77.1346 143.328 76.9217C142.689 76.7392 141.686 76.1917 141.138 75.7051C140.56 75.2489 139.709 74.0323 139.192 72.9678C138.705 71.9337 138.127 70.1392 137.945 68.953C137.732 67.706 137.64 65.3945 137.762 63.3263C137.853 60.741 138.097 59.1899 138.705 57.3954C139.131 56.0571 139.982 54.0802 140.621 53.0157C141.26 51.9207 142.72 50.0654 143.906 48.8792C145.062 47.6931 146.704 46.3244 147.556 45.8378Z" fill="#9B1339"/>
</svg>
