<svg width="71" height="43" viewBox="0 0 71 43" fill="none" xmlns="http://www.w3.org/2000/svg">
<path d="M10.9296 1.48774C11.1462 1.32523 11.6338 1.09501 12.0129 0.959583C12.3786 0.837702 12.9474 0.729363 13.2588 0.71582C13.5839 0.71582 14.0037 0.797075 14.2068 0.905414C14.4235 1.00021 14.7891 1.31168 15.0194 1.58253C15.2631 1.85338 15.561 2.30028 15.6829 2.57113C15.8048 2.85552 15.9267 3.57326 15.9673 4.16913C16.0079 4.8327 15.9809 5.48274 15.8725 5.86192C15.7777 6.22757 15.5069 6.67447 15.2089 6.9724C14.9381 7.24325 14.5589 7.50055 14.3422 7.54118C14.1391 7.5818 13.8818 7.55472 13.7464 7.44638C13.6245 7.36513 13.3266 6.95886 13.0693 6.56613C12.8255 6.18694 12.5682 5.83484 12.4869 5.79421C12.4057 5.75358 12.2161 5.88901 12.04 6.09214C11.8775 6.30882 11.539 7.02657 11.2952 7.69014C11.0379 8.35372 10.6993 9.49128 10.5097 10.1955C10.3202 10.8997 10.1441 11.9018 10.0899 12.43C10.0222 13.2019 10.0493 13.4186 10.2389 13.6082C10.3608 13.7436 10.6452 13.8519 10.8618 13.8519C11.0785 13.8519 11.4171 13.7978 11.6067 13.7165C11.7963 13.6352 12.7849 12.9581 13.8005 12.2133C14.8298 11.4549 15.71 10.8049 15.7642 10.7507C15.8319 10.7101 16.1434 9.26106 16.4819 7.55472C16.8205 5.84838 17.2132 4.07433 17.3622 3.62743C17.5247 3.18053 17.782 2.6253 17.958 2.40862C18.1206 2.19194 18.4456 1.92109 18.6623 1.8263C19.0008 1.66379 19.1227 1.66379 19.529 1.85338C19.7863 1.97526 20.1248 2.25965 20.2603 2.50341C20.3957 2.74718 20.5582 3.24824 20.6259 3.62743C20.7072 4.19621 20.5582 5.19835 19.6644 9.78921C19.0685 12.8092 18.3237 16.7364 17.9851 18.524C17.6466 20.3116 17.0913 23.3722 16.7528 25.3223C16.2382 28.3016 16.1705 28.9381 16.3059 29.1819C16.4548 29.4257 16.5632 29.4527 17.0507 29.385C17.5518 29.3038 17.6737 29.3309 17.9716 29.6288C18.2018 29.859 18.3102 30.1163 18.3102 30.4007C18.3102 30.6445 18.2154 31.2133 18.0935 31.6601C17.9716 32.107 17.6195 32.9873 17.2945 33.6238C16.9559 34.2738 16.4007 35.0864 16.0215 35.4791C15.6423 35.8718 15.0735 36.3187 14.7485 36.4677C14.437 36.6167 14.0443 36.7385 13.8683 36.7385C13.7057 36.7385 13.3807 36.6437 13.164 36.5354C12.9474 36.4271 12.6359 36.102 12.5005 35.8177C12.365 35.5468 12.1484 34.8561 12.04 34.3009C11.8369 33.3394 11.8504 33.1498 12.1619 30.7122C12.338 29.2902 12.7307 26.7036 13.0286 24.9567C13.3401 23.2097 13.9089 20.095 14.3287 18.0501C14.735 16.0052 15.1142 14.1769 15.1548 13.9873C15.2496 13.6488 15.236 13.6488 14.6402 14.1092C14.3152 14.353 13.7057 14.7728 13.2995 15.0437C12.8932 15.3145 11.9994 15.7614 11.3358 16.0458C10.6723 16.3437 10.0087 16.6823 9.85971 16.8042C9.72429 16.926 9.52115 17.224 9.41281 17.4407C9.29093 17.6573 8.81695 20.1356 8.34296 22.9253C7.88252 25.715 7.27312 29.1548 7.01581 30.5768C6.75851 31.9987 6.44703 33.9894 6.33869 35.0051C6.21681 36.0343 5.97305 37.5917 5.78346 38.4584C5.59386 39.3522 5.29593 40.3002 5.11988 40.5981C4.94383 40.896 4.52401 41.4377 4.199 41.8169C3.86044 42.1826 3.38645 42.6024 3.12915 42.7514C2.80413 42.9274 2.53329 42.9816 2.19473 42.9274C1.93742 42.8732 1.55823 42.6701 1.34156 42.467C1.11134 42.2232 0.935285 41.8846 0.894658 41.5461C0.840489 41.1669 1.15196 39.2574 1.91034 35.2489C2.5062 32.08 3.42708 27.1505 3.96878 24.2796C4.49693 21.4086 4.95737 18.7543 4.998 18.3886C5.03862 17.9417 4.998 17.6302 4.87612 17.4677C4.78132 17.3323 4.28025 17.075 3.7521 16.8854C3.22395 16.6958 2.54683 16.3979 2.22181 16.2083C1.91034 16.0322 1.65303 15.8291 1.65303 15.7479C1.65303 15.6666 1.91034 15.4635 2.22181 15.2874C2.73642 15.003 2.92601 14.9624 3.79273 15.0301C4.70007 15.0978 4.8084 15.0707 5.14696 14.7728C5.39073 14.5561 5.59386 14.1363 5.74283 13.5675C5.87825 13.0936 6.23035 11.6987 6.51474 10.4663C6.81268 9.23397 7.27312 7.59535 7.54396 6.80989C7.81481 6.02443 8.30234 4.90041 8.60027 4.30455C8.91174 3.72223 9.46698 2.89614 9.84617 2.50341C10.2118 2.09714 10.7129 1.6367 10.9296 1.48774Z" fill="white"/>
<path d="M44.0407 1.46065C44.298 1.29814 44.7855 1.06792 45.1241 0.946041C45.4626 0.824159 45.9908 0.729363 46.3022 0.71582C46.6273 0.71582 47.0471 0.797075 47.2502 0.905414C47.4669 1.00021 47.8596 1.33877 48.1305 1.65024C48.4419 1.9888 48.7263 2.48987 48.8482 2.90969C48.9565 3.30241 49.0513 4.08787 49.0513 4.64311C49.0513 5.32023 48.9701 5.83484 48.794 6.20048C48.6722 6.49841 48.3607 6.90469 48.1305 7.12136C47.8867 7.3245 47.5346 7.52764 47.3179 7.56826C47.0606 7.62243 46.871 7.56826 46.7085 7.39221C46.5731 7.25679 46.2887 6.86406 46.0991 6.49841C45.896 6.14631 45.6522 5.8213 45.5574 5.79421C45.4762 5.75358 45.273 5.88901 45.1241 6.10569C44.9615 6.30882 44.6501 6.93177 44.4198 7.48701C44.1896 8.04225 43.8375 9.16626 43.6208 9.99235C43.4042 10.8184 43.1875 11.9018 43.1333 12.43C43.0656 13.2019 43.0927 13.4186 43.2823 13.6217C43.4042 13.7436 43.6886 13.8519 43.9052 13.8519C44.1219 13.8519 44.4469 13.7978 44.6094 13.73C44.7855 13.6759 45.8147 12.9717 46.9116 12.1727C48.0221 11.3872 48.9159 10.7101 48.9159 10.6695C48.9159 10.6288 49.0649 9.88401 49.2545 9.0173C49.4305 8.13704 49.7149 6.71509 49.8774 5.86192C50.0399 5.00875 50.2972 3.96599 50.4462 3.55972C50.5952 3.15345 50.8389 2.6253 51.015 2.40862C51.1775 2.19194 51.489 1.92109 51.7056 1.8263C52.0442 1.66379 52.1661 1.67733 52.6265 1.89401C52.9109 2.02943 53.2359 2.30028 53.3307 2.50341C53.4391 2.72009 53.588 3.20762 53.6557 3.5868C53.7776 4.23684 53.6828 4.88687 52.5182 10.8726C51.814 14.4884 50.9879 18.7813 50.69 20.42C50.392 22.0586 49.9587 24.5233 49.7285 25.9046C49.4982 27.286 49.3222 28.6267 49.3899 29.3579H50.1076C50.7171 29.3579 50.8796 29.4121 51.0962 29.6965C51.2588 29.8996 51.3671 30.2382 51.3535 30.5497C51.3535 30.8205 51.191 31.5247 51.0014 32.107C50.8118 32.6758 50.4191 33.5425 50.1347 34.0301C49.8503 34.5176 49.4034 35.1541 49.1597 35.452C48.9024 35.7499 48.3607 36.1562 47.9544 36.3729C47.5481 36.576 47.0877 36.7385 46.9116 36.7385C46.7491 36.7385 46.4241 36.6437 46.2074 36.5354C45.9637 36.4135 45.6928 36.102 45.5303 35.7635C45.3814 35.4385 45.1782 34.7614 45.0834 34.2332C44.9209 33.38 44.9345 33.0415 45.2188 30.7799C45.3949 29.3986 45.747 26.988 46.0043 25.4307C46.2616 23.8733 46.871 20.6367 47.345 18.2532C47.8325 15.8697 48.2117 13.9061 48.1982 13.879C48.1846 13.8655 47.6294 14.204 46.9523 14.6509C46.2752 15.0978 45.1241 15.7208 44.3792 16.0458C43.2687 16.5333 42.9708 16.7229 42.6593 17.1698C42.3072 17.6573 42.1989 18.1719 41.3999 22.9253C40.9259 25.7963 40.3436 29.0871 40.1269 30.2382C39.9102 31.3893 39.5717 33.5561 39.3821 35.0457C39.1925 36.5354 38.8946 38.2959 38.7321 38.973C38.5289 39.8127 38.2852 40.4221 37.9331 40.9367C37.6622 41.3429 37.107 41.9794 36.7142 42.3451C36.0236 42.968 35.9559 42.9951 35.3735 42.9274C34.9131 42.8732 34.6693 42.7514 34.3849 42.4399C34.1818 42.2097 33.9787 41.8169 33.938 41.5867C33.8839 41.2888 34.2631 38.9866 35.0214 34.978L35.057 34.7888C35.6923 31.4096 36.6016 26.5729 37.0934 23.941C37.581 21.2596 38.0143 18.7949 38.0549 18.4563C38.082 18.1178 38.0414 17.7115 37.9601 17.5354C37.8518 17.3323 37.4591 17.1021 36.6872 16.8177C36.0777 16.601 35.3735 16.276 35.1433 16.1135C34.8996 15.951 34.6964 15.7749 34.6964 15.7072C34.6964 15.6531 34.9537 15.4635 35.2652 15.2874C35.7798 15.003 35.9559 14.9624 36.7278 15.0437C37.4184 15.0978 37.6893 15.0707 37.9737 14.8947C38.1904 14.7728 38.4341 14.529 38.5425 14.353C38.6508 14.1905 38.9894 12.931 39.3008 11.5497C39.6123 10.1684 40.1405 8.2183 40.479 7.21616C40.804 6.21403 41.3322 4.91396 41.6437 4.33163C41.9551 3.73577 42.5104 2.92323 42.8896 2.50341C43.2552 2.09714 43.7834 1.62316 44.0407 1.46065Z" fill="white"/>
<path d="M23.3073 10.9539C23.4563 10.7507 23.7813 10.4934 24.025 10.3851C24.2688 10.2903 24.6751 10.209 24.9053 10.1955C25.1491 10.1955 25.5689 10.2903 25.8262 10.3986C26.0835 10.507 26.3679 10.7372 26.4491 10.8997C26.571 11.157 26.5304 11.3601 26.1918 12.0914C25.9616 12.5789 25.5553 13.2019 25.298 13.4727C25.0272 13.7571 24.6751 13.9873 24.499 13.9873C24.323 14.0009 23.9032 13.73 23.4833 13.3509C22.8739 12.7956 22.7791 12.6467 22.8468 12.3216C22.8875 12.1185 22.9416 11.8206 22.9687 11.6445C23.0094 11.482 23.1583 11.1705 23.3073 10.9539Z" fill="white"/>
<path d="M21.6551 19.9189C21.8853 19.8106 22.1968 19.6887 22.3322 19.6481C22.4677 19.6074 22.6708 19.5668 22.7791 19.5533C22.8875 19.5533 23.226 19.6616 23.524 19.7835C23.8219 19.9189 24.1875 20.1762 24.3365 20.3658C24.499 20.5419 24.6615 20.921 24.7157 21.1919C24.7834 21.5575 24.7022 22.1669 24.4719 23.2232C24.2823 24.0629 23.5375 27.1235 22.8198 30.0351C22.102 32.9467 21.4249 35.4656 21.2895 35.6551C21.1676 35.8447 20.7613 36.1968 20.3957 36.4406C20.03 36.6844 19.6779 36.874 19.5967 36.874C19.5154 36.874 19.2446 36.5489 18.9873 36.1698C18.73 35.777 18.4456 35.1812 18.3643 34.8426C18.2289 34.3009 18.2831 33.854 18.8789 30.7799C19.231 28.884 19.6238 26.3786 19.7321 25.2275C19.8404 24.0764 20.0165 22.7357 20.1384 22.2482C20.2603 21.7471 20.5311 21.0971 20.7749 20.745C21.0186 20.3929 21.4114 20.0272 21.6551 19.9189Z" fill="white"/>
<path d="M59.7363 20.9075C59.7227 20.6502 59.8446 20.3523 60.0884 20.095C60.2915 19.8647 60.5082 19.6751 60.5759 19.6751C60.6436 19.6751 60.8467 19.8783 61.0363 20.1085C61.2124 20.3523 61.4832 20.921 61.6457 21.3679C61.7947 21.8148 61.9843 22.668 62.052 23.2639C62.1333 23.8597 62.1874 24.7671 62.1874 25.2952C62.1874 25.8234 62.0926 26.8255 61.9979 27.5297C61.8895 28.2339 61.6051 29.4257 61.3749 30.1705C61.1311 30.9153 60.6707 32.0393 60.3457 32.6758C60.0207 33.3123 59.479 34.1655 59.154 34.5718C58.8289 34.978 58.2195 35.5604 57.7862 35.8583C57.1091 36.3323 56.8924 36.4 56.1069 36.4541C55.4163 36.4948 55.0912 36.4406 54.6714 36.2375C54.3735 36.0885 53.9401 35.7229 53.6964 35.4385C53.4662 35.1541 53.1411 34.6395 52.9922 34.3009C52.8432 33.9624 52.6265 33.2446 52.5182 32.7029C52.3963 32.1748 52.3015 31.1455 52.3015 30.4413C52.3015 29.6423 52.4099 28.6808 52.5859 27.8954C52.7349 27.2182 53.0328 26.1213 53.263 25.4577C53.4797 24.8077 53.8589 23.8733 54.1162 23.3587C54.36 22.8576 54.8069 22.1399 55.1048 21.7742C55.484 21.2867 55.8496 21.0023 56.3778 20.7721C57.0143 20.5012 57.1768 20.4741 57.6101 20.6096C57.8945 20.6908 58.2466 20.921 58.3956 21.1242C58.5581 21.3409 58.68 21.693 58.6664 21.9096C58.6664 22.1669 58.4633 22.5868 58.1112 23.0607C57.7997 23.467 57.3257 24.266 57.0413 24.8212C56.7705 25.3765 56.3778 26.2974 56.1882 26.8526C55.9986 27.4078 55.7413 28.3423 55.6329 28.911C55.5111 29.4934 55.3756 30.4684 55.3215 31.0778C55.2402 32.1612 55.2537 32.2425 55.6871 33.1498C55.9444 33.678 56.1475 34.1113 56.1475 34.1384C56.1611 34.1519 56.5267 33.9623 56.9736 33.7186C57.7185 33.2988 57.8268 33.1633 58.206 32.3237C58.4497 31.8091 58.856 30.7528 59.1269 29.9674C59.3842 29.1819 59.7227 28.0037 59.8717 27.3266C60.0207 26.6495 60.1832 25.6473 60.2373 25.0921C60.3051 24.3066 60.2509 23.7514 60.0342 22.6816C59.8852 21.9232 59.7363 21.1242 59.7363 20.9075Z" fill="white"/>
<path d="M29.2795 21.0971C29.6045 20.8804 30.1868 20.5825 30.5525 20.4606C30.9316 20.3252 31.4463 20.2304 31.6765 20.2168C31.9202 20.2168 32.2859 20.2981 32.489 20.4064C32.7057 20.5012 32.9495 20.7721 33.0578 20.9752C33.1526 21.1919 33.2745 21.7065 33.3151 22.1128C33.3693 22.6816 33.3151 23.0878 33.0578 23.8462C32.8817 24.3879 32.6922 24.8348 32.6244 24.8212C32.5703 24.8212 32.313 24.5098 32.0557 24.1441C31.7984 23.7649 31.4598 23.4399 31.3108 23.3993C31.1619 23.3587 30.9046 23.4128 30.7285 23.5076C30.566 23.616 30.241 23.9952 29.9972 24.3608C29.7535 24.7265 29.4014 25.4036 29.2118 25.864C29.0222 26.338 28.792 27.1235 28.6836 27.6245C28.5753 28.1391 28.4534 29.06 28.3992 29.6965C28.318 30.6038 28.3451 30.9559 28.5211 31.3487C28.6701 31.7008 28.8867 31.931 29.2118 32.0664C29.4691 32.1748 29.8483 32.2696 30.0514 32.2696C30.2681 32.2696 31.0129 31.9987 31.7171 31.6601C32.4213 31.3216 33.1255 31.0507 33.2745 31.0507C33.4234 31.0507 33.6266 31.1185 33.7214 31.2132C33.8162 31.308 33.8839 31.5247 33.8839 31.6872C33.8839 31.8633 33.8026 32.1612 33.6943 32.3643C33.5859 32.581 33.3286 32.906 33.112 33.0956C32.9088 33.2988 32.4213 33.6509 32.0557 33.8811C31.6765 34.1249 30.9046 34.4634 30.3222 34.6395C29.7535 34.8291 29.0222 34.978 28.6972 34.978C28.3857 34.978 27.8982 34.8968 27.6002 34.802C27.3158 34.7207 26.896 34.477 26.6523 34.2874C26.422 34.0978 26.0699 33.6373 25.8668 33.2717C25.6772 32.906 25.4199 32.1341 25.298 31.5518C25.1761 30.983 25.0813 29.9944 25.0813 29.3579C25.0813 28.7215 25.1626 27.7599 25.2709 27.2182C25.3793 26.6901 25.5824 25.9046 25.7449 25.4984C25.8939 25.0921 26.2731 24.3608 26.5845 23.8733C26.896 23.3858 27.4919 22.6545 27.9117 22.2482C28.3315 21.8419 28.9545 21.3138 29.2795 21.0971Z" fill="white"/>
<path d="M66.5887 20.9617C66.9544 20.745 67.5096 20.4877 67.8075 20.4064C68.1055 20.3116 68.4982 20.2304 68.6878 20.2304C68.8774 20.2168 69.2295 20.271 69.4597 20.3523C69.7441 20.4335 69.9879 20.6502 70.1368 20.921C70.2993 21.2461 70.367 21.6794 70.367 22.4513C70.3535 23.2774 70.2858 23.6972 69.7441 24.889L69.392 24.415C69.1889 24.1577 68.8909 23.8056 68.7149 23.6431C68.5524 23.467 68.3086 23.3316 68.1732 23.3316C68.0513 23.3451 67.7398 23.5618 67.4825 23.8462C67.2388 24.117 66.8325 24.7671 66.5752 25.2952C66.3179 25.8234 65.9929 26.7036 65.8574 27.2589C65.7085 27.8141 65.546 28.884 65.4918 29.6288C65.4105 30.7528 65.4376 31.0643 65.6272 31.4164C65.7491 31.6601 66.0199 31.9581 66.2502 32.0664C66.4668 32.1748 66.8596 32.2696 67.0898 32.2696C67.3335 32.2696 68.119 31.9987 68.8232 31.6601C69.5274 31.3216 70.2316 31.0507 70.3806 31.0507C70.5295 31.0507 70.7327 31.1185 70.8275 31.2132C70.9223 31.308 70.99 31.5247 70.99 31.6872C70.99 31.8633 70.8952 32.1883 70.7869 32.405C70.6785 32.6217 70.3264 33.0144 70.0014 33.2717C69.6899 33.5155 69.1618 33.8811 68.8232 34.0707C68.4846 34.2603 67.7804 34.5447 67.2658 34.6936C66.7377 34.8561 66.0741 34.978 65.7762 34.978C65.4782 34.978 65.0043 34.8968 64.7063 34.802C64.4219 34.7207 63.975 34.477 63.7313 34.2603C63.474 34.0571 63.0948 33.5155 62.8646 33.0415C62.6479 32.581 62.3906 31.782 62.3093 31.2539C62.2145 30.6986 62.1739 29.6694 62.2281 28.7485C62.2687 27.5974 62.377 26.9068 62.6479 26.1078C62.8375 25.5119 63.2167 24.6317 63.5011 24.1577C63.7854 23.6701 64.4355 22.8441 64.9636 22.3159C65.4782 21.7878 66.2095 21.1784 66.5887 20.9617Z" fill="white"/>
</svg>
