<svg width="580" height="400" viewBox="0 0 580 400" fill="none" xmlns="http://www.w3.org/2000/svg">
<g clip-path="url(#clip0_37_1159)">
<rect y="0.5" width="580" height="399" rx="15" fill="#FBFBFB"/>
<path d="M70.0526 233.48C67.7309 227.244 67.3112 220.458 68.8464 213.983C70.3816 207.508 73.8029 201.634 78.6773 197.103C83.5518 192.573 89.6604 189.59 96.2305 188.532C102.8 187.474 109.537 188.388 115.587 191.159C121.637 193.93 126.73 198.434 130.22 204.1C133.711 209.765 135.442 216.339 135.196 222.989C134.95 229.639 132.736 236.067 128.836 241.459C124.936 246.851 119.525 250.965 113.286 253.281C104.927 256.384 95.6775 256.042 87.5709 252.329C79.4643 248.616 73.1633 241.836 70.0526 233.48Z" fill="#EBEBEB"/>
<path d="M119.109 223.945C115.246 234.721 103.948 242.157 103.948 242.157C103.948 242.157 91.1878 237.517 85.0166 227.935C79.8198 219.931 81.409 210.454 87.8122 207.67C96.9762 203.68 101.361 219.954 101.361 219.954C101.361 219.954 101.86 203.111 111.72 204.874C118.587 206.104 122.322 214.92 119.109 223.945Z" fill="white"/>
<path d="M485.298 326.408C482.154 328.007 478.774 329.092 475.287 329.621C466.921 330.917 458.374 329.011 451.352 324.283C444.329 319.556 439.347 312.355 437.4 304.116C435.452 295.878 436.683 287.208 440.845 279.837C445.008 272.465 451.796 266.934 459.857 264.347C467.917 261.76 476.657 262.307 484.332 265.879C492.007 269.45 498.053 275.785 501.264 283.618C504.475 291.45 504.615 300.206 501.655 308.137C498.696 316.069 492.855 322.593 485.298 326.408Z" fill="#EBEBEB"/>
<path d="M480.658 293.441C480.482 295.458 479.712 297.377 478.445 298.956C477.178 300.535 475.471 301.703 473.54 302.311C471.609 302.92 469.54 302.941 467.597 302.374C465.654 301.806 463.922 300.675 462.622 299.123C461.322 297.571 460.512 295.668 460.293 293.655C460.075 291.642 460.459 289.61 461.397 287.816C462.334 286.021 463.783 284.545 465.56 283.574C467.336 282.604 469.361 282.182 471.378 282.363C474.076 282.604 476.568 283.906 478.308 285.983C480.048 288.06 480.893 290.742 480.658 293.441Z" fill="white"/>
<path d="M485.657 322.197L485.298 326.408C482.154 328.007 478.774 329.092 475.287 329.621C470.881 330.313 466.38 330.117 462.051 329.043C457.722 327.969 453.652 326.04 450.08 323.368L450.44 319.169C450.638 316.856 451.291 314.605 452.36 312.544C453.429 310.483 454.893 308.652 456.669 307.157C458.446 305.662 460.499 304.531 462.712 303.83C464.925 303.128 467.255 302.87 469.568 303.068C471.881 303.267 474.133 303.92 476.194 304.988C478.255 306.057 480.085 307.522 481.58 309.298C483.075 311.074 484.206 313.128 484.907 315.341C485.609 317.554 485.868 319.884 485.669 322.197H485.657Z" fill="white"/>
<path d="M469.043 93.9666C487.816 85.9709 496.553 64.2707 488.557 45.4978C480.562 26.7249 458.861 17.9882 440.088 25.9839C421.316 33.9796 412.579 55.6799 420.575 74.4527C428.57 93.2256 450.271 101.962 469.043 93.9666Z" fill="#EBEBEB"/>
<path fill-rule="evenodd" clip-rule="evenodd" d="M449.512 74.6528C448.538 74.038 447.691 73.1448 446.38 73.2724C445.881 73.2724 445.986 72.9012 445.986 72.6344C445.986 67.7044 445.986 62.7976 445.986 57.8676C445.986 57.5196 445.986 57.218 446.403 57.0208C450.162 55.13 451.786 51.3948 454.094 48.2164C455.274 46.6323 456.124 44.827 456.592 42.9079C457.06 40.9889 457.138 38.9953 456.82 37.0456C456.658 35.9436 457.18 35.4448 458.177 35.2128C458.679 35.0443 459.222 35.0401 459.727 35.2007C460.232 35.3612 460.672 35.6783 460.984 36.106C462.065 38.1166 462.791 40.2984 463.13 42.5556C463.351 44.4116 462.678 46.2328 462.446 48.0772C462.272 49.4344 461.959 50.7684 461.704 52.1372C462.028 52.3692 462.411 52.2532 462.771 52.2532H475.241C476.992 52.2532 477.851 52.752 478.094 53.912C478.228 54.6284 478.123 55.3687 477.796 56.02C477.469 56.6713 476.939 57.1979 476.285 57.5196C475.972 57.6704 475.403 57.5196 475.368 58.0184C475.334 58.5172 475.914 58.4592 476.204 58.668C477.7 59.7004 477.422 61.8232 475.682 63.0528C475.264 63.3544 474.452 63.2152 474.429 63.83C474.406 64.4448 475.183 64.3172 475.531 64.6536C476.691 65.8136 476.134 68.1336 474.371 69.0036C474.122 69.0823 473.878 69.1753 473.64 69.282C473.431 69.4212 473.234 69.5836 473.64 69.862C475.438 71.1496 475.403 72.936 473.64 74.2468L473.095 74.6296C472.438 75.0298 471.667 75.2012 470.902 75.1168C464.383 75.1168 457.864 75.1168 451.345 75.1168C451.024 75.1725 450.695 75.1599 450.379 75.08C450.063 75 449.768 74.8545 449.512 74.6528Z" fill="white"/>
<path fill-rule="evenodd" clip-rule="evenodd" d="M430.987 65.9761C430.987 62.8441 430.987 59.7237 430.987 56.5917C430.987 55.9653 431.045 55.6521 431.822 55.6521C435.638 55.6521 439.443 55.6521 443.26 55.6521C444.014 55.6521 444.13 55.8957 444.118 56.5569C444.118 62.8596 444.118 69.1545 444.118 75.4417C444.118 76.2421 443.898 76.4625 443.097 76.4509C439.401 76.4045 435.704 76.4045 432.008 76.4509C431.08 76.4509 430.952 76.1377 430.964 75.2909C431.01 72.2401 430.987 69.1081 430.987 65.9761Z" fill="white"/>
<path d="M131.463 407.005C133.4 419.382 126.44 432.455 126.44 432.455C126.44 432.455 111.778 434.636 100.769 428.65C91.5357 423.72 88.1601 413.698 92.8001 407.677C99.5513 399.047 112.265 412.433 112.265 412.433C112.265 412.433 103.948 395.95 114.364 392.505C121.638 390.08 129.92 396.681 131.463 407.005Z" fill="#EBEBEB"/>
<path d="M157.053 376.531C151.508 383.897 141.033 386.971 141.033 386.971C141.033 386.971 132.356 380.371 129.851 371.497C127.763 364.096 131.254 357.171 136.811 356.568C144.826 355.686 144.304 369.258 144.304 369.258C144.304 369.258 148.712 356.417 155.904 360.129C160.915 362.669 161.669 370.36 157.053 376.531Z" fill="#EBEBEB"/>
<path d="M388.032 40.8271H191.992C189.361 40.8499 186.761 41.3907 184.34 42.4187C181.919 43.4467 179.724 44.9417 177.881 46.8183C176.038 48.6948 174.582 50.9162 173.598 53.3555C172.613 55.7948 172.119 58.4041 172.144 61.0343V464.714C172.098 470.026 174.162 475.138 177.884 478.927C181.606 482.716 186.68 484.873 191.992 484.922H388.032C393.346 484.876 398.424 482.721 402.15 478.932C405.877 475.143 407.946 470.029 407.902 464.714V61.0343C407.925 58.4026 407.429 55.792 406.443 53.352C405.457 50.9119 403.999 48.6901 402.154 46.8135C400.309 44.9369 398.112 43.4423 395.688 42.4152C393.265 41.388 390.663 40.8484 388.032 40.8271ZM395.49 452.244C395.49 462.87 387.533 471.466 377.731 471.466H202.292C192.444 471.466 184.498 462.87 184.498 452.244V76.3348C184.498 54.6892 192.444 53.6336 202.292 53.6336H237.429C239.47 53.6336 241.141 55.9536 241.141 58.8304V60.0716C241.141 66.8112 244.83 66.8343 249.365 66.8343H330.565C335.205 66.8343 338.79 66.8344 338.79 60.0716V58.8304C338.79 55.9536 340.437 53.6336 342.525 53.6336H377.673C387.475 53.6336 395.432 56.5104 395.432 76.3348L395.49 452.244Z" fill="#263238"/>
<path d="M301.078 58.4126H278.91C278.547 58.4126 278.199 58.2684 277.942 58.0117C277.686 57.755 277.542 57.4069 277.542 57.0438C277.542 56.6808 277.686 56.3327 277.942 56.076C278.199 55.8193 278.547 55.675 278.91 55.675H301.078C301.441 55.675 301.789 55.8193 302.046 56.076C302.303 56.3327 302.447 56.6808 302.447 57.0438C302.447 57.4069 302.303 57.755 302.046 58.0117C301.789 58.2684 301.441 58.4126 301.078 58.4126Z" fill="white"/>
<path d="M395.49 76.3347V452.244C395.49 462.87 387.533 471.466 377.731 471.466H202.292C192.444 471.466 184.498 462.87 184.498 452.244V76.3347C184.498 54.6891 192.444 53.6335 202.292 53.6335H237.429C239.47 53.6335 241.141 55.9535 241.141 58.8303V60.0715C241.141 66.8111 244.83 66.8343 249.365 66.8343H330.565C335.205 66.8343 338.79 66.8343 338.79 60.0715V58.8303C338.79 55.9535 340.437 53.6335 342.525 53.6335H377.673C387.533 53.6799 395.49 56.5103 395.49 76.3347Z" fill="white"/>
<path d="M395.49 76.3347V104.384H184.44V76.3347C184.44 54.6891 192.444 53.6799 202.281 53.6799H237.429C239.47 53.6799 241.141 55.9999 241.141 58.8767V60.1179C241.141 66.8575 244.83 66.8807 249.354 66.8807H330.6C335.17 66.8807 338.836 66.8807 338.836 60.1179V58.8303C338.836 55.9535 340.483 53.6335 342.56 53.6335H377.696C387.533 53.6799 395.49 56.5103 395.49 76.3347Z" fill="#9B1339"/>
<path d="M204.485 90.6955L198.255 84.8491L204.485 79.0027L205.447 80.0351L200.32 84.8491L205.447 89.6631L204.485 90.6955Z" fill="white"/>
<path d="M376.35 91.1015H372.174V89.6399C372.173 89.5747 372.154 89.5111 372.119 89.456C372.084 89.4008 372.035 89.3561 371.977 89.3267C371.815 89.2455 371.664 89.1527 371.513 89.0599C371.457 89.0261 371.393 89.0083 371.328 89.0083C371.262 89.0083 371.198 89.0261 371.142 89.0599L369.889 89.7791L367.801 86.1715L369.066 85.4407C369.121 85.4077 369.166 85.3596 369.194 85.3021C369.223 85.2445 369.235 85.1799 369.228 85.1159C369.222 85.027 369.222 84.9379 369.228 84.8491C369.222 84.7602 369.222 84.6711 369.228 84.5823C369.235 84.5183 369.223 84.4536 369.194 84.3961C369.166 84.3385 369.121 84.2904 369.066 84.2575L367.801 83.5267L369.889 79.9191L371.142 80.6383C371.198 80.672 371.262 80.6899 371.328 80.6899C371.393 80.6899 371.457 80.672 371.513 80.6383C371.664 80.5455 371.815 80.4527 371.977 80.3715C372.035 80.3421 372.084 80.2974 372.119 80.2422C372.154 80.187 372.173 80.1235 372.174 80.0583V78.5967H376.35V80.0467C376.352 80.1119 376.371 80.1754 376.406 80.2306C376.44 80.2858 376.489 80.3304 376.548 80.3599L377.012 80.6267C377.068 80.6604 377.132 80.6783 377.197 80.6783C377.263 80.6783 377.327 80.6604 377.383 80.6267L378.636 79.9075L380.712 83.5151L379.459 84.2459C379.403 84.2783 379.357 84.3259 379.326 84.3834C379.295 84.4408 379.281 84.5057 379.285 84.5707C379.291 84.6595 379.291 84.7486 379.285 84.8375V85.0927C379.274 85.1586 379.284 85.2264 379.313 85.2866C379.342 85.3468 379.389 85.3965 379.448 85.4291L380.7 86.1599L378.624 89.7675L377.36 89.0483C377.306 89.0143 377.244 88.9962 377.18 88.9962C377.116 88.9962 377.054 89.0143 377 89.0483L376.536 89.3151C376.478 89.3445 376.429 89.3892 376.394 89.4444C376.359 89.4995 376.34 89.5631 376.339 89.6283L376.35 91.1015ZM373.044 90.2315H375.48V89.6399C375.48 89.415 375.542 89.1945 375.659 89.0023C375.775 88.81 375.942 88.6534 376.142 88.5495C376.279 88.4874 376.411 88.4137 376.536 88.3291C376.725 88.2043 376.947 88.1379 377.174 88.1379C377.401 88.1379 377.623 88.2043 377.812 88.3291L378.311 88.6191L379.529 86.5079L379.018 86.2179C378.815 86.1059 378.65 85.9355 378.545 85.7287C378.439 85.5219 378.398 85.2882 378.427 85.0579V84.6171C378.399 84.3855 378.442 84.1509 378.549 83.944C378.657 83.7371 378.825 83.5674 379.03 83.4571L379.529 83.1671L378.311 81.0559L377.812 81.3459C377.623 81.4706 377.401 81.5371 377.174 81.5371C376.947 81.5371 376.725 81.4706 376.536 81.3459C376.414 81.2638 376.286 81.1901 376.153 81.1255C375.951 81.0242 375.781 80.8685 375.662 80.6759C375.543 80.4833 375.48 80.2614 375.48 80.0351V79.4551H373.044V80.0351C373.045 80.2614 372.982 80.4833 372.863 80.6759C372.744 80.8685 372.574 81.0242 372.372 81.1255C372.238 81.1876 372.11 81.2613 371.989 81.3459C371.799 81.4706 371.578 81.5371 371.351 81.5371C371.124 81.5371 370.902 81.4706 370.713 81.3459L370.214 81.0559L369.054 83.1671L369.553 83.4571C369.758 83.5674 369.926 83.7371 370.033 83.944C370.141 84.1509 370.184 84.3855 370.156 84.6171C370.141 84.7636 370.141 84.9114 370.156 85.0579C370.184 85.2895 370.141 85.524 370.033 85.731C369.926 85.9379 369.758 86.1076 369.553 86.2179L369.054 86.5079L370.214 88.6191L370.713 88.3291C370.902 88.2043 371.124 88.1379 371.351 88.1379C371.578 88.1379 371.799 88.2043 371.989 88.3291C372.111 88.4112 372.239 88.4848 372.372 88.5495C372.574 88.6508 372.744 88.8065 372.863 88.9991C372.982 89.1917 373.045 89.4136 373.044 89.6399V90.2315ZM374.262 87.9811C373.64 87.9834 373.03 87.8007 372.512 87.4561C371.993 87.1116 371.588 86.6207 371.349 86.0459C371.109 85.471 371.046 84.8379 371.167 84.227C371.288 83.6162 371.588 83.055 372.028 82.6146C372.468 82.1743 373.03 81.8747 373.64 81.7537C374.251 81.6328 374.884 81.696 375.459 81.9354C376.034 82.1748 376.525 82.5795 376.87 83.0982C377.214 83.617 377.397 84.2264 377.394 84.8491C377.391 85.6788 377.06 86.4737 376.474 87.0604C375.887 87.6471 375.092 87.978 374.262 87.9811ZM374.262 82.5755C373.801 82.5639 373.347 82.6901 372.958 82.938C372.569 83.1858 372.263 83.5439 372.078 83.9667C371.894 84.3895 371.839 84.8577 371.922 85.3115C372.005 85.7653 372.221 86.1841 372.543 86.5143C372.865 86.8446 373.279 87.0714 373.73 87.1657C374.182 87.2601 374.651 87.2176 375.078 87.0439C375.506 86.8701 375.871 86.5729 376.129 86.1902C376.387 85.8075 376.524 85.3568 376.524 84.8955C376.525 84.2901 376.288 83.7086 375.866 83.2752C375.443 82.8417 374.868 82.5906 374.262 82.5755Z" fill="white"/>
<path d="M231.362 62.0784L231.026 62.4148C230.956 62.4148 230.898 62.5424 230.829 62.612C230.403 62.1774 229.893 61.8332 229.331 61.6C228.769 61.3668 228.166 61.2494 227.557 61.2548C226.948 61.2467 226.344 61.3629 225.782 61.5963C225.219 61.8296 224.71 62.1753 224.286 62.612L224.101 62.4148L223.764 62.0784L224.193 61.7072C224.498 61.4534 224.833 61.2391 225.191 61.0692C225.605 60.8604 226.046 60.712 226.502 60.6284C226.722 60.6284 226.943 60.6284 227.163 60.5356H227.743H228.184C228.58 60.5877 228.969 60.685 229.344 60.8256C229.629 60.9295 229.904 61.0576 230.167 61.2084C230.443 61.3661 230.703 61.5486 230.945 61.7536L231.304 62.0784H231.362Z" fill="white"/>
<path d="M225.353 63.6792C225.179 63.4936 225.005 63.3196 224.82 63.1456C225.178 62.7854 225.603 62.4996 226.072 62.3045C226.541 62.1095 227.044 62.009 227.552 62.009C228.059 62.009 228.562 62.1095 229.031 62.3045C229.5 62.4996 229.926 62.7854 230.283 63.1456L229.75 63.6792C229.167 63.0963 228.376 62.7687 227.552 62.7687C226.727 62.7687 225.936 63.0963 225.353 63.6792Z" fill="white"/>
<path d="M229.216 64.2129L228.683 64.7465C228.533 64.5914 228.353 64.4698 228.153 64.3898C227.953 64.3098 227.738 64.2732 227.523 64.2825C227.308 64.2761 227.094 64.314 226.894 64.3938C226.695 64.4737 226.514 64.5937 226.363 64.7465L225.829 64.2129C226.046 63.9811 226.308 63.7963 226.6 63.67C226.891 63.5437 227.205 63.4785 227.523 63.4785C227.84 63.4785 228.154 63.5437 228.446 63.67C228.737 63.7963 228.999 63.9811 229.216 64.2129Z" fill="white"/>
<path d="M228.033 65.2801C228.033 65.4062 227.983 65.5272 227.894 65.6164C227.804 65.7056 227.683 65.7557 227.557 65.7557C227.488 65.7665 227.417 65.7622 227.349 65.743C227.282 65.7237 227.219 65.6901 227.165 65.6444C227.112 65.5986 227.069 65.5419 227.04 65.478C227.01 65.4141 226.995 65.3446 226.995 65.2743C226.995 65.204 227.01 65.1345 227.04 65.0706C227.069 65.0067 227.112 64.95 227.165 64.9043C227.219 64.8585 227.282 64.8249 227.349 64.8057C227.417 64.7864 227.488 64.7821 227.557 64.7929C227.621 64.7929 227.684 64.8056 227.742 64.8302C227.8 64.8548 227.853 64.8909 227.898 64.9363C227.942 64.9817 227.977 65.0355 228 65.0945C228.023 65.1536 228.034 65.2167 228.033 65.2801Z" fill="white"/>
<path d="M198.244 63.0992C198.244 62.8216 198.326 62.5502 198.481 62.3194C198.635 62.0885 198.854 61.9086 199.111 61.8024C199.367 61.6962 199.649 61.6684 199.922 61.7225C200.194 61.7767 200.444 61.9104 200.64 62.1067C200.837 62.303 200.97 62.5531 201.024 62.8253C201.079 63.0976 201.051 63.3798 200.945 63.6363C200.838 63.8928 200.658 64.112 200.428 64.2662C200.197 64.4204 199.925 64.5028 199.648 64.5028C199.275 64.5028 198.918 64.3549 198.655 64.0917C198.392 63.8284 198.244 63.4714 198.244 63.0992Z" fill="white"/>
<path d="M202.652 63.0992C202.652 62.8216 202.734 62.5502 202.888 62.3194C203.043 62.0885 203.262 61.9086 203.518 61.8024C203.775 61.6962 204.057 61.6684 204.329 61.7225C204.602 61.7767 204.852 61.9104 205.048 62.1067C205.244 62.303 205.378 62.5531 205.432 62.8253C205.486 63.0976 205.458 63.3798 205.352 63.6363C205.246 63.8928 205.066 64.112 204.835 64.2662C204.604 64.4204 204.333 64.5028 204.055 64.5028C203.871 64.5028 203.689 64.4664 203.518 64.3959C203.348 64.3254 203.193 64.222 203.063 64.0917C202.933 63.9613 202.829 63.8066 202.759 63.6363C202.688 63.466 202.652 63.2835 202.652 63.0992Z" fill="white"/>
<path d="M207.06 63.0991C207.06 62.821 207.143 62.5492 207.297 62.3181C207.452 62.087 207.672 61.9072 207.929 61.8013C208.186 61.6954 208.469 61.6683 208.742 61.7234C209.014 61.7785 209.264 61.9133 209.46 62.1108C209.656 62.3082 209.789 62.5594 209.842 62.8325C209.895 63.1055 209.865 63.3881 209.757 63.6443C209.649 63.9006 209.467 64.119 209.235 64.2718C209.003 64.4246 208.73 64.505 208.452 64.5027C208.268 64.5027 208.086 64.4663 207.917 64.3956C207.747 64.325 207.593 64.2214 207.464 64.0909C207.334 63.9604 207.232 63.8056 207.163 63.6354C207.093 63.4651 207.059 63.2829 207.06 63.0991Z" fill="white"/>
<path d="M211.468 63.0991C211.468 62.821 211.55 62.5492 211.705 62.3181C211.86 62.087 212.08 61.9072 212.337 61.8013C212.594 61.6954 212.877 61.6683 213.15 61.7234C213.422 61.7785 213.672 61.9133 213.868 62.1108C214.064 62.3082 214.197 62.5594 214.249 62.8325C214.302 63.1055 214.273 63.3881 214.165 63.6443C214.057 63.9006 213.875 64.119 213.643 64.2718C213.41 64.4246 213.138 64.505 212.86 64.5027C212.676 64.5027 212.494 64.4663 212.324 64.3956C212.155 64.325 212.001 64.2214 211.871 64.0909C211.742 63.9604 211.64 63.8056 211.57 63.6354C211.501 63.4651 211.466 63.2829 211.468 63.0991Z" fill="white"/>
<path d="M215.864 63.0992C215.864 62.8216 215.947 62.5502 216.101 62.3194C216.255 62.0885 216.474 61.9086 216.731 61.8024C216.987 61.6962 217.269 61.6684 217.542 61.7225C217.814 61.7767 218.064 61.9104 218.26 62.1067C218.457 62.303 218.59 62.5531 218.644 62.8253C218.699 63.0976 218.671 63.3798 218.565 63.6363C218.458 63.8928 218.278 64.112 218.048 64.2662C217.817 64.4204 217.545 64.5028 217.268 64.5028C216.896 64.5028 216.539 64.3549 216.275 64.0917C216.012 63.8284 215.864 63.4714 215.864 63.0992Z" fill="white"/>
<path d="M379.668 66.1499H368.277V60.8835H379.668V66.1499ZM368.857 65.5699H379.088V61.4635H368.88L368.857 65.5699Z" fill="white"/>
<path d="M376.571 61.7769H369.228V65.2569H376.571V61.7769Z" fill="white"/>
<path d="M380.677 62.113H379.668V64.9318H380.677V62.113Z" fill="white"/>
<path d="M216.212 141.283C215.163 141.938 214.016 142.42 212.814 142.71C209.93 143.417 206.886 143.012 204.289 141.574C201.692 140.136 199.732 137.772 198.801 134.953C197.87 132.134 198.036 129.067 199.266 126.365C200.496 123.663 202.699 121.524 205.436 120.375C208.174 119.226 211.244 119.151 214.034 120.165C216.824 121.18 219.129 123.209 220.489 125.848C221.849 128.487 222.164 131.542 221.372 134.403C220.579 137.264 218.737 139.72 216.212 141.283Z" fill="#DBDBDB"/>
<path d="M213.602 129.927C213.602 130.636 213.392 131.329 212.998 131.918C212.604 132.508 212.045 132.967 211.39 133.238C210.735 133.51 210.014 133.581 209.319 133.442C208.623 133.304 207.985 132.963 207.483 132.461C206.982 131.96 206.641 131.321 206.502 130.626C206.364 129.931 206.435 129.21 206.706 128.555C206.978 127.9 207.437 127.34 208.027 126.946C208.616 126.552 209.309 126.342 210.018 126.342C210.969 126.342 211.88 126.72 212.553 127.392C213.225 128.064 213.602 128.976 213.602 129.927Z" fill="white"/>
<path d="M216.212 139.81V141.283C215.163 141.938 214.015 142.42 212.813 142.71C211.297 143.082 209.722 143.147 208.18 142.902C206.638 142.657 205.161 142.107 203.835 141.283V139.81C203.799 138.975 203.932 138.141 204.227 137.359C204.521 136.576 204.971 135.862 205.55 135.258C206.128 134.654 206.822 134.173 207.591 133.845C208.36 133.517 209.187 133.348 210.023 133.348C210.86 133.348 211.687 133.517 212.456 133.845C213.225 134.173 213.919 134.654 214.497 135.258C215.076 135.862 215.526 136.576 215.82 137.359C216.115 138.141 216.248 138.975 216.212 139.81Z" fill="white"/>
<path d="M311.39 120.171H236.559V126.342H311.39V120.171Z" fill="#EBEBEB"/>
<path d="M301.878 130.46H236.559V134.544H301.878V130.46Z" fill="#EBEBEB"/>
<path d="M344.566 138.337H236.559V142.42H344.566V138.337Z" fill="#EBEBEB"/>
<path d="M184.486 300.528H395.456V152.79L184.486 152.79L184.486 300.528Z" fill="#EBEBEB"/>
<path d="M209.148 194.794C209.148 198.251 210.173 201.631 212.094 204.506C214.015 207.381 216.745 209.621 219.939 210.944C223.134 212.268 226.649 212.614 230.04 211.939C233.431 211.265 236.545 209.6 238.99 207.155C241.435 204.71 243.1 201.595 243.774 198.204C244.449 194.813 244.103 191.298 242.78 188.104C241.457 184.91 239.216 182.18 236.341 180.259C233.466 178.338 230.087 177.313 226.629 177.313C221.993 177.313 217.546 179.155 214.268 182.433C210.99 185.711 209.148 190.158 209.148 194.794Z" fill="#DBDBDB"/>
<path d="M278.168 268.396H395.49L336.829 188.89L278.168 268.396Z" fill="#C7C7C7"/>
<path d="M232.186 268.779H329.046L280.616 216.996L232.186 268.779Z" fill="#DBDBDB"/>
<path d="M395.467 268.709H184.498V300.54H395.467V268.709Z" fill="#DBDBDB"/>
<path d="M216.212 378.48C215.16 379.126 214.014 379.604 212.814 379.895C210.554 380.443 208.182 380.309 205.998 379.51C203.814 378.711 201.916 377.282 200.544 375.404C199.172 373.527 198.387 371.284 198.289 368.961C198.191 366.637 198.783 364.337 199.992 362.35C201.201 360.363 202.972 358.78 205.081 357.799C207.189 356.818 209.541 356.485 211.84 356.84C214.138 357.196 216.279 358.225 217.993 359.797C219.706 361.369 220.915 363.414 221.467 365.674C222.052 368.09 221.859 370.629 220.916 372.929C219.972 375.228 218.326 377.171 216.212 378.48Z" fill="#DBDBDB"/>
<path d="M213.602 367.077C213.602 367.786 213.392 368.479 212.998 369.068C212.604 369.658 212.045 370.117 211.39 370.389C210.735 370.66 210.014 370.731 209.319 370.593C208.623 370.454 207.985 370.113 207.483 369.612C206.982 369.11 206.641 368.472 206.502 367.776C206.364 367.081 206.435 366.36 206.706 365.705C206.978 365.05 207.437 364.491 208.027 364.097C208.616 363.703 209.309 363.493 210.018 363.493C210.969 363.493 211.88 363.87 212.553 364.543C213.225 365.215 213.602 366.126 213.602 367.077Z" fill="white"/>
<path d="M216.212 376.96V378.48C215.16 379.126 214.013 379.604 212.813 379.895C211.297 380.269 209.722 380.336 208.18 380.091C206.637 379.846 205.16 379.294 203.835 378.468V376.995C203.799 376.16 203.932 375.326 204.227 374.544C204.521 373.761 204.971 373.047 205.55 372.443C206.128 371.839 206.822 371.359 207.591 371.03C208.36 370.702 209.187 370.533 210.023 370.533C210.86 370.533 211.687 370.702 212.456 371.03C213.225 371.359 213.919 371.839 214.497 372.443C215.076 373.047 215.526 373.761 215.82 374.544C216.115 375.326 216.248 376.16 216.212 376.995V376.96Z" fill="white"/>
<path d="M332.804 357.322H236.559V363.493H332.804V357.322Z" fill="#EBEBEB"/>
<path d="M359.414 367.611H236.559V371.694H359.414V367.611Z" fill="#EBEBEB"/>
<path d="M278.411 375.487H236.559V379.57H278.411V375.487Z" fill="#EBEBEB"/>
<path d="M395.467 389.952H184.498V426.04H395.467V389.952Z" fill="#EBEBEB"/>
<path d="M205.448 323.171C209.304 323.171 212.431 320.045 212.431 316.188C212.431 312.331 209.304 309.205 205.448 309.205C201.591 309.205 198.464 312.331 198.464 316.188C198.464 320.045 201.591 323.171 205.448 323.171Z" fill="#EBEBEB"/>
<path fill-rule="evenodd" clip-rule="evenodd" d="M204.496 318.972C204.311 318.856 204.148 318.682 203.905 318.705C203.661 318.728 203.835 318.647 203.835 318.589C203.835 317.661 203.835 316.733 203.835 315.805C203.829 315.773 203.834 315.74 203.849 315.71C203.863 315.681 203.887 315.657 203.916 315.643C204.624 315.283 204.937 314.575 205.378 313.972C205.6 313.672 205.759 313.331 205.847 312.968C205.934 312.606 205.948 312.229 205.888 311.861C205.888 311.652 205.958 311.559 206.144 311.513C206.239 311.482 206.343 311.482 206.439 311.513C206.535 311.544 206.618 311.605 206.677 311.687C206.881 312.067 207.018 312.479 207.083 312.905C207.075 313.256 207.032 313.606 206.956 313.949C206.956 314.204 206.863 314.459 206.816 314.715C206.874 314.715 206.944 314.715 207.014 314.715H209.334C209.67 314.715 209.832 314.807 209.879 315.028C209.905 315.164 209.885 315.306 209.822 315.43C209.759 315.554 209.656 315.653 209.531 315.712C209.473 315.712 209.368 315.712 209.357 315.805C209.345 315.898 209.461 315.886 209.519 315.933C209.798 316.118 209.751 316.524 209.415 316.756C209.345 316.814 209.183 316.756 209.183 316.907C209.183 317.058 209.322 317 209.392 317.058C209.442 317.124 209.477 317.201 209.493 317.282C209.508 317.364 209.505 317.448 209.482 317.528C209.46 317.608 209.419 317.681 209.363 317.743C209.307 317.804 209.237 317.852 209.16 317.881C209.111 317.896 209.065 317.915 209.02 317.939C209.02 317.939 208.951 317.939 209.02 318.044C209.099 318.082 209.165 318.141 209.211 318.215C209.258 318.289 209.282 318.374 209.282 318.461C209.282 318.549 209.258 318.634 209.211 318.708C209.165 318.782 209.099 318.841 209.02 318.879L208.928 318.949C208.802 319.024 208.655 319.057 208.51 319.041H204.81C204.7 319.056 204.589 319.032 204.496 318.972Z" fill="white"/>
<path fill-rule="evenodd" clip-rule="evenodd" d="M200.993 317.336V315.562C200.993 315.434 200.993 315.376 201.156 315.376H203.313C203.452 315.376 203.476 315.376 203.476 315.55V319.123C203.476 319.274 203.476 319.32 203.29 319.308H201.19C201.016 319.308 200.993 319.25 200.993 319.088C201.005 318.508 200.993 317.928 200.993 317.336Z" fill="white"/>
<path d="M213.336 317.847C213.014 316.511 213.096 315.109 213.57 313.819C214.044 312.529 214.889 311.408 215.999 310.598C217.109 309.787 218.434 309.324 219.807 309.266C221.18 309.207 222.54 309.557 223.715 310.27C224.889 310.983 225.827 312.028 226.408 313.274C226.99 314.519 227.19 315.908 226.983 317.267C226.776 318.626 226.172 319.893 225.246 320.908C224.32 321.924 223.114 322.643 221.78 322.974C220.889 323.195 219.963 323.238 219.055 323.1C218.147 322.962 217.275 322.645 216.49 322.169C215.705 321.692 215.023 321.065 214.481 320.323C213.94 319.581 213.55 318.74 213.336 317.847Z" fill="#9B1339"/>
<path d="M223.683 317.069C222.834 318.508 221.601 319.681 220.121 320.457C218.638 319.683 217.4 318.51 216.549 317.069C215.679 315.295 216.236 313.369 217.616 312.951C219.611 312.348 220.121 315.817 220.121 315.817C220.121 315.817 220.632 312.337 222.616 312.951C224.008 313.369 224.564 315.295 223.683 317.069Z" fill="white"/>
<path d="M336.841 315.283H237.719V319.32H336.841V315.283Z" fill="#EBEBEB"/>
<path d="M184.486 339.353L210.865 339.144L237.232 339.063L289.977 338.924L342.722 339.063L369.089 339.144L395.467 339.353L369.089 339.562L342.722 339.643L289.977 339.794L237.232 339.643L210.865 339.562L184.486 339.353Z" fill="#EBEBEB"/>
<path d="M143.416 266.423L72.2427 285.401L91.2203 356.574L162.394 337.597L143.416 266.423Z" fill="#455A64"/>
<path d="M112.705 320.793L103.17 323.334C102.173 319.61 101.233 316.095 100.247 312.383L109.608 309.889C109.423 309.042 109.307 308.381 109.144 307.732C108.437 304.832 107.555 301.932 107.056 299.043C105.977 292.594 108.645 287.13 114.643 284.613C118.378 283.035 122.507 282.409 126.556 281.33C127.472 284.729 128.296 287.826 129.224 291.294C127.774 291.677 126.324 292.037 124.897 292.454C123.602 292.761 122.339 293.192 121.127 293.742C120.326 294.088 119.674 294.707 119.287 295.489C118.9 296.271 118.804 297.165 119.016 298.011C119.642 300.841 120.477 303.625 121.336 306.664L132.217 303.753C132.704 307.465 133.203 310.898 133.574 314.344C133.574 314.68 132.889 315.306 132.414 315.504C129.804 316.281 127.171 316.942 124.294 317.696C126.799 327.127 129.27 336.395 131.787 345.814L120.187 348.9C117.717 339.55 115.234 330.282 112.705 320.793Z" fill="white"/>
<path d="M494.915 350.673L421.418 343.389L414.134 416.886L487.631 424.17L494.915 350.673Z" fill="#9B1339"/>
<path d="M483.07 371.52C483.766 364.166 479.59 358.946 472.352 358.157C462.299 357.051 452.207 356.05 442.076 355.152C434.93 354.526 429.838 358.795 429.026 365.906C428.458 370.94 428.017 375.986 427.518 380.986C427.019 385.985 426.509 390.846 426.056 395.776C425.372 403.304 429.536 408.536 436.926 409.382C446.902 410.473 456.885 411.463 466.877 412.352C474.185 412.99 479.347 408.652 480.101 401.39C481.145 391.437 482.135 381.481 483.07 371.52ZM475.264 401.03C474.753 405.67 471.992 407.99 467.341 407.573C457.349 406.645 447.366 405.655 437.39 404.603C432.75 404.116 430.43 401.297 430.87 396.669C431.822 386.616 432.819 376.543 433.863 366.451C434.339 361.811 437.181 359.491 441.798 359.874C451.789 360.794 461.773 361.78 471.749 362.832C476.389 363.33 478.709 366.219 478.256 370.824C477.816 375.858 477.282 380.893 476.783 385.904C476.284 390.915 475.82 395.973 475.264 401.007V401.03Z" fill="white"/>
<path d="M455.996 369.571C453.209 369.282 450.399 369.825 447.919 371.13C445.44 372.435 443.402 374.445 442.062 376.906C440.723 379.367 440.141 382.169 440.391 384.96C440.641 387.751 441.711 390.406 443.467 392.59C445.222 394.773 447.584 396.389 450.256 397.233C452.928 398.077 455.79 398.112 458.482 397.332C461.173 396.553 463.574 394.995 465.382 392.854C467.189 390.713 468.323 388.085 468.64 385.301C468.854 383.436 468.696 381.547 468.174 379.744C467.653 377.94 466.779 376.258 465.603 374.795C464.427 373.332 462.972 372.117 461.323 371.22C459.674 370.324 457.863 369.763 455.996 369.571ZM453.479 393.084C451.045 392.771 448.825 391.536 447.273 389.636C445.722 387.735 444.958 385.312 445.138 382.865C445.261 381.626 445.626 380.424 446.214 379.327C446.801 378.23 447.599 377.259 448.561 376.47C449.523 375.681 450.632 375.089 451.823 374.728C453.014 374.368 454.265 374.245 455.503 374.368C456.742 374.49 457.944 374.856 459.041 375.443C460.138 376.03 461.109 376.828 461.898 377.79C462.687 378.753 463.279 379.861 463.64 381.052C464 382.243 464.123 383.494 464 384.732C463.692 387.226 462.416 389.499 460.448 391.061C458.48 392.623 455.977 393.35 453.479 393.084Z" fill="white"/>
<path d="M474.359 371.044C474.32 371.469 474.189 371.881 473.976 372.251C473.763 372.621 473.472 372.94 473.124 373.187C472.776 373.434 472.378 373.602 471.959 373.681C471.539 373.76 471.107 373.747 470.693 373.643C470.241 373.623 469.799 373.5 469.401 373.283C469.003 373.067 468.659 372.763 468.397 372.394C468.134 372.025 467.959 371.601 467.884 371.154C467.81 370.707 467.838 370.249 467.967 369.815C468.315 367.854 469.696 367.066 471.679 367.147C473.651 367.68 474.719 368.945 474.359 371.044Z" fill="white"/>
<path d="M485.128 190.119L433.381 171.703L414.965 223.45L466.712 241.866L485.128 190.119Z" fill="#455A64"/>
<path d="M425.801 212.6C429.863 214.256 434.373 214.449 438.561 213.145C434.316 210.013 432.935 207.879 433.202 204.933L436.45 205.907C433.214 203.135 431.903 199.829 433.074 195.606L436.056 197.636C434.153 192.08 434.652 188.472 437.819 186.036C439.027 189.266 440.886 192.214 443.281 194.696C445.675 197.179 448.554 199.143 451.739 200.467C451.901 199.921 452.006 199.504 452.133 199.098C452.548 197.442 453.465 195.954 454.759 194.841C456.053 193.728 457.661 193.043 459.36 192.88C461.056 192.624 462.79 192.897 464.326 193.66C465.861 194.424 467.125 195.642 467.944 197.149C468.088 197.467 468.324 197.734 468.622 197.917C468.92 198.099 469.266 198.187 469.614 198.17C471.076 198.17 472.526 198.17 474.115 198.17C472.944 199.598 471.346 200.614 469.556 201.07C469.563 201.159 469.563 201.248 469.556 201.337L473.86 201.719L473.964 201.94C472.584 202.601 471.215 203.32 469.8 203.9C469.457 204.01 469.144 204.198 468.886 204.45C468.629 204.702 468.433 205.01 468.315 205.35C466.295 211.151 462.168 215.981 456.754 218.882C451.339 221.782 445.032 222.542 439.083 221.01C434.167 219.808 429.736 217.132 426.381 213.343C426.196 213.076 425.998 212.821 425.801 212.6Z" fill="white"/>
<path d="M459.647 84.5877L414.364 99.6865L429.463 144.97L474.746 129.871L459.647 84.5877Z" fill="#9B1339"/>
<path d="M433.26 137.2C433.109 134.358 432.947 131.725 432.866 129.08C432.864 128.69 432.781 128.304 432.624 127.947C432.466 127.589 432.236 127.268 431.949 127.004C430.12 125.085 428.747 122.779 427.93 120.257C427.114 117.734 426.877 115.061 427.235 112.434C427.594 109.807 428.539 107.295 430.002 105.084C431.464 102.873 433.405 101.019 435.682 99.6607C437.958 98.3024 440.511 97.474 443.152 97.2373C445.792 97.0005 448.452 97.3614 450.934 98.2932C453.416 99.2249 455.656 100.704 457.488 102.619C459.32 104.535 460.697 106.839 461.518 109.36C462.732 113.589 462.338 118.117 460.41 122.072C458.482 126.026 455.157 129.126 451.078 130.774C448.269 131.857 445.243 132.254 442.25 131.934C441.676 131.899 441.105 132.041 440.614 132.34C438.19 133.929 435.835 135.483 433.26 137.2ZM436.009 131.899C437.517 130.925 438.782 130.055 440.104 129.277C440.576 129.022 441.114 128.917 441.647 128.976C444.095 129.395 446.607 129.228 448.978 128.489C457.655 125.763 461.924 115.439 457.481 107.609C456.205 105.04 454.159 102.933 451.628 101.584C449.097 100.234 446.208 99.7083 443.364 100.08C440.426 100.234 437.612 101.31 435.322 103.156C433.031 105.001 431.38 107.521 430.604 110.358C428.701 116.309 430.325 121.482 434.919 125.739C435.339 126.162 435.604 126.714 435.673 127.305C435.893 128.755 435.916 130.24 436.009 131.853V131.899Z" fill="white"/>
<path d="M435 110.323C435.626 108.409 437.262 108.2 438.619 109.627C439.153 110.184 439.303 110.381 439.86 111.042C440.253 111.381 440.51 111.85 440.587 112.362C440.664 112.875 440.554 113.399 440.278 113.838C439.849 114.568 440.069 114.998 440.684 115.496C442.559 116.969 444.818 117.871 447.192 118.095C447.342 118.135 447.498 118.144 447.652 118.122C447.806 118.1 447.953 118.047 448.086 117.967C448.22 117.887 448.335 117.781 448.427 117.656C448.518 117.53 448.583 117.388 448.618 117.236C449.5 114.998 449.535 115.009 451.936 115.288L452.759 115.392C453.145 115.383 453.525 115.482 453.856 115.678C454.188 115.875 454.457 116.161 454.634 116.503C454.811 116.846 454.887 117.231 454.855 117.615C454.823 117.999 454.684 118.366 454.453 118.675C454.049 119.474 453.435 120.147 452.676 120.623C451.918 121.1 451.045 121.36 450.149 121.378C445.494 121.645 440.917 120.089 437.389 117.039C436.208 116.215 435.318 115.037 434.849 113.675C434.578 112.566 434.63 111.403 435 110.323Z" fill="white"/>
<path d="M276.544 294.786C276.544 294.786 268.343 320.77 257.984 354.595C246.477 392.191 232.302 439.449 223.787 471.454H301.275C302.574 466.303 303.99 460.735 305.486 454.819L312.028 429.299C318.223 405.183 325.044 378.816 330.994 355.883C339.915 321.512 346.875 294.821 346.875 294.821L276.544 294.786Z" fill="#455A64"/>
<path d="M331.853 313.648C330.182 319.598 328.083 325.445 326.238 331.326C324.394 337.207 322.492 343.378 320.636 349.41C316.954 361.358 313.304 373.31 309.685 385.266C302.424 409.17 295.185 433.089 287.97 457.024C286.52 461.838 285 466.64 283.504 471.454H285.824C288.6 462.236 291.376 453.01 294.153 443.776C301.438 419.486 308.695 395.184 315.926 370.87C319.545 358.659 323.145 346.437 326.726 334.203C328.524 328.02 330.206 321.826 332.004 315.643C332.92 312.557 332.525 311.2 331.853 313.648Z" fill="#263238"/>
<path d="M284.536 294.786C289.42 332.567 298.723 403.42 305.509 454.866C321.389 392.585 346.898 294.786 346.898 294.786H284.536Z" fill="#263238"/>
<path d="M312.04 429.265C312.423 443.486 312.805 458.369 313.107 471.454H384.308C382.858 439.113 380.364 393.467 378.276 356.672C376.304 321.721 374.68 294.786 374.68 294.786H278.817C278.817 294.786 280.441 328.426 288.097 355.106C288.712 357.31 289.385 359.479 290.116 361.555C297.178 364.413 303.965 367.907 310.393 371.995C310.393 371.995 311.251 399.058 312.04 429.265Z" fill="#455A64"/>
<path d="M373.067 471.454H374.227C373.756 462.885 373.323 454.321 372.928 445.76C370.863 399.476 369.239 353.157 367.708 306.861C367.708 306.49 367.128 306.455 367.14 306.861C367.917 333.043 368.601 359.235 369.46 385.417C370.457 414.045 371.66 442.724 373.067 471.454Z" fill="#263238"/>
<path d="M286.706 359.549C294.962 362.999 302.903 367.16 310.439 371.984C310.492 372.023 310.53 372.081 310.545 372.145C310.559 372.21 310.551 372.278 310.52 372.336C310.489 372.395 310.438 372.441 310.377 372.466C310.315 372.49 310.247 372.492 310.184 372.471C302.18 368.573 294.002 364.827 286.218 360.511C286.111 360.436 286.035 360.325 286.003 360.198C285.971 360.07 285.986 359.936 286.046 359.819C286.105 359.702 286.204 359.611 286.325 359.561C286.446 359.511 286.581 359.507 286.706 359.549Z" fill="#263238"/>
<path d="M281.741 322.313C282.402 325.874 283.26 329.4 284.061 332.938C284.78 336.256 285.302 339.643 286.183 342.914C286.892 346.094 288.503 349.002 290.823 351.29C292.123 352.45 293.561 353.61 294.953 354.677C295.695 355.268 296.507 355.837 297.273 356.452C297.169 355.988 297.087 355.5 297.006 355.025C296.763 353.668 296.542 352.322 296.31 350.976C295.811 347.972 295.324 344.968 294.872 341.963C293.967 336.059 293.132 330.096 291.902 324.25C291.902 324.206 291.917 324.163 291.944 324.129C291.971 324.094 292.009 324.069 292.052 324.059C292.094 324.048 292.139 324.052 292.18 324.07C292.22 324.088 292.253 324.118 292.273 324.157C293.747 329.957 295.371 335.688 296.647 341.557C297.273 344.422 299.523 358.574 299.616 359.572C299.709 360.57 299.802 361.637 299.848 362.681C299.982 363.736 299.982 364.804 299.848 365.859C299.79 366.114 299.477 366.068 299.361 365.859C298.934 364.876 298.63 363.843 298.456 362.785C298.201 361.776 297.969 360.755 297.795 359.723C297.725 359.352 297.679 358.98 297.621 358.563C296.229 357.716 294.93 356.602 293.631 355.651C292.331 354.7 290.8 353.644 289.466 352.531C287.016 350.455 285.245 347.691 284.385 344.596C283.532 341.261 282.977 337.857 282.727 334.423C282.274 330.41 281.949 326.361 281.381 322.359C281.335 322.174 281.694 322.069 281.741 322.313Z" fill="#263238"/>
<path d="M294.431 201.278C289.675 239.187 281.37 302.767 267.925 307.905C265.605 308.799 255.699 310.759 248.936 303.149C237.533 290.32 217.813 247.029 212.28 233.097C209.832 226.926 250.084 206.788 253.53 212.994C258.355 221.683 263.424 234.767 264.376 234.327C265.988 233.596 268.726 217.46 279.456 194.794C292.854 166.629 296.206 187.184 294.431 201.278Z" fill="#F7A9A0"/>
<path d="M200.61 218.133C204.577 226.648 219.495 240.881 224.413 242.934C229.332 244.987 254.376 220.442 253.738 215.001C253.1 209.561 237.498 181.953 228.949 177.696C220.4 173.438 196.515 209.317 200.61 218.133Z" fill="#F7A9A0"/>
<path d="M251.917 209.839C251.917 209.839 251.093 197.647 253.982 187.289C256.418 178.577 261.023 165.91 256.383 164.425C246.871 161.374 235.41 192.961 235.41 192.961C235.41 192.961 232.58 207.705 241.744 211.521C243.43 212.206 245.272 212.411 247.068 212.114C248.863 211.817 250.541 211.03 251.917 209.839Z" fill="#F7A9A0"/>
<path d="M226.42 219.908L212.303 217.425L219.507 176.535L237.371 179.679L226.42 219.908Z" fill="#9B1339"/>
<path d="M237.371 179.679L233.195 195.026L226.42 219.919L212.292 217.425L219.507 176.535L237.371 179.679Z" fill="#9B1339"/>
<path opacity="0.1" d="M237.371 179.679L233.195 195.026L216.757 192.126L219.507 176.535L237.371 179.679Z" fill="black"/>
<path d="M240.927 169.145L218.697 165.225L215.72 182.109L237.95 186.029L240.927 169.145Z" fill="#9B1339"/>
<path d="M256.928 165.574L239.354 164.251L244.168 136.922L261.127 141.701L256.928 165.574Z" fill="#9B1339"/>
<path d="M236.234 129.95L229.134 170.283L199.543 168.647L127.797 181.558L144.872 84.6982L207.872 121.377L236.234 129.95Z" fill="#9B1339"/>
<path d="M150.404 135.634C155.143 108.757 151.983 85.734 143.346 84.211C134.709 82.688 123.865 103.242 119.126 130.119C114.387 156.996 117.547 180.019 126.184 181.542C134.821 183.065 145.665 162.511 150.404 135.634Z" fill="#9B1339"/>
<path opacity="0.2" d="M146.914 134.155C151.122 110.293 148.799 89.939 141.726 88.6919C134.654 87.4448 125.51 105.777 121.302 129.639C117.095 153.5 119.418 173.854 126.49 175.101C133.563 176.348 142.707 158.016 146.914 134.155Z" fill="black"/>
<path d="M144.826 133.72C144.257 136.898 143.666 139.972 142.889 142.919C141.268 143.819 139.426 144.241 137.575 144.138C135.724 144.034 133.94 143.408 132.431 142.333C130.921 141.258 129.746 139.777 129.043 138.061C128.34 136.346 128.137 134.467 128.458 132.641L129.259 128.071C129.576 126.25 130.401 124.556 131.64 123.184C132.879 121.812 134.48 120.819 136.259 120.318C138.038 119.817 139.922 119.829 141.695 120.353C143.467 120.877 145.055 121.892 146.276 123.28C145.939 126.69 145.452 130.24 144.826 133.72Z" fill="#9B1339"/>
<path d="M244.365 175.271L210.377 172.719L219.692 119.87L252.509 129.092L244.365 175.271Z" fill="#9B1339"/>
<path opacity="0.2" d="M244.365 175.271L210.377 172.719L219.692 119.87L252.509 129.092L244.365 175.271Z" fill="black"/>
<path opacity="0.2" d="M148.236 92.134C150.021 95.3986 151.2 98.9592 151.716 102.644C152.302 106.311 152.593 110.019 152.586 113.733C152.586 115.589 152.528 117.445 152.47 119.29C152.412 121.134 152.227 122.99 152.03 124.834C151.832 126.679 151.635 128.523 151.357 130.356C151.078 132.189 150.812 134.022 150.487 135.843C149.213 143.154 147.271 150.334 144.687 157.291C143.378 160.768 141.763 164.122 139.861 167.314C138.014 170.548 135.504 173.355 132.495 175.55C135.371 173.225 137.74 170.335 139.455 167.058C141.252 163.849 142.762 160.488 143.968 157.013C146.398 150.063 148.234 142.918 149.454 135.657C150.835 128.426 151.611 121.093 151.774 113.733C151.875 110.055 151.685 106.374 151.206 102.725C150.835 99.0496 149.83 95.4663 148.236 92.134Z" fill="black"/>
<path d="M112.903 83.7239C114.91 85.3131 116.847 87.0067 118.703 88.7003C120.559 90.3939 122.484 92.1803 124.34 93.8971C126.196 95.6139 128.018 97.4467 129.804 99.2911L132.46 102.052C133.319 103.003 134.212 103.931 135.047 104.905C134.026 104.117 133.064 103.281 132.066 102.469L129.178 99.9291C127.264 98.2471 125.396 96.4491 123.54 94.7323C121.684 93.0155 119.863 91.1827 118.088 89.3383C116.313 87.4939 114.585 85.6611 112.903 83.7239Z" fill="#263238"/>
<path d="M127.171 158.567C124.375 159.298 121.545 159.901 118.726 160.481C115.907 161.061 113.065 161.641 110.223 162.094C107.381 162.546 104.539 163.056 101.674 163.451L97.3817 164.031C95.9549 164.182 94.5165 164.367 93.0781 164.483C94.4701 164.112 95.8853 163.81 97.2889 163.462L101.523 162.569C104.342 161.966 107.184 161.409 110.026 160.957C112.868 160.504 115.71 159.994 118.575 159.611C121.44 159.228 124.294 158.822 127.171 158.567Z" fill="#263238"/>
<path d="M74.0425 148.51C78.2765 148.185 82.5105 147.976 86.8025 147.791C91.0945 147.605 95.2705 147.478 99.5045 147.373C103.738 147.269 107.984 147.211 112.264 147.222H118.621C120.744 147.222 122.867 147.222 124.99 147.373C122.867 147.547 120.756 147.652 118.633 147.791L112.276 148.104C108.042 148.301 103.808 148.406 99.5161 148.522C95.2241 148.638 91.0365 148.672 86.7561 148.661C82.4757 148.649 78.2881 148.661 74.0425 148.51Z" fill="#263238"/>
<path d="M89.2271 84.5708C92.8463 86.8908 96.3959 89.3268 99.9339 91.7744C103.472 94.222 106.975 96.716 110.467 99.2216C113.958 101.727 117.427 104.279 120.837 106.889L125.964 110.798C127.646 112.144 129.351 113.443 131.022 114.812C129.201 113.652 127.426 112.492 125.628 111.262L120.315 107.608C116.765 105.172 113.274 102.667 109.782 100.161C106.291 97.6556 102.822 95.092 99.4118 92.4936C96.0014 89.8952 92.5679 87.32 89.2271 84.5708Z" fill="#263238"/>
<path d="M126.602 131.029C121.684 130.356 116.777 129.556 111.882 128.709C106.987 127.862 102.103 126.969 97.2194 126.11C92.3358 125.252 87.4638 124.243 82.6034 123.234L75.307 121.714C72.8942 121.157 70.4582 120.647 68.0454 120.055C70.5046 120.392 72.9638 120.786 75.4114 121.146L82.7658 122.306C87.661 123.118 92.5446 124.046 97.4282 124.904C102.312 125.762 107.184 126.772 112.044 127.781C116.905 128.79 121.8 129.88 126.602 131.029Z" fill="#263238"/>
<path d="M240.851 186.894C240.305 191.836 234.784 188.379 234.784 188.379C234.784 188.379 241.535 195.27 239.006 200.165C236.559 204.863 230.039 200.443 229.564 200.165C229.923 200.536 235.955 207.032 232.916 211.684C229.877 216.335 223.961 210.953 223.636 210.593C223.857 211.046 226.733 217.078 223.636 220.082C218.277 225.244 210.517 210.013 204.717 208.401C204.717 208.401 200.854 217.913 200.68 218.168C200.68 218.168 193.001 203.842 195.622 196.128C195.984 195.002 196.719 194.033 197.706 193.381C198.693 192.73 199.873 192.434 201.051 192.544C201.051 192.544 198.07 188.205 200.343 184.424C201.503 182.51 205.633 182.684 205.633 182.684C205.633 182.684 203.383 179.099 205.633 175.909C207.408 173.357 211.247 173.926 211.247 173.926C211.247 173.926 210.679 169.494 213.347 167.464C218.625 163.404 241.987 176.304 240.851 186.894Z" fill="#F7A9A0"/>
<path d="M211.793 173.949C211.78 173.943 211.77 173.934 211.762 173.923C211.755 173.912 211.751 173.898 211.751 173.885C211.751 173.871 211.755 173.858 211.762 173.847C211.77 173.835 211.78 173.826 211.793 173.821C220.516 176.141 229.367 181.454 235.074 188.53C235.26 188.762 234.958 189.168 234.703 188.947C227.829 182.869 220.113 177.817 211.793 173.949Z" fill="#263238"/>
<path d="M205.47 182.591C205.378 182.591 205.47 182.394 205.552 182.428C214.518 184.911 224.32 191.128 229.912 200.049C230.097 200.362 229.97 200.826 229.714 200.49C225.573 194.84 213.347 186.106 205.47 182.591Z" fill="#263238"/>
<path d="M223.764 211.312C218.045 202.96 210.226 197.276 201.364 192.601C201.248 192.601 201.364 192.381 201.457 192.416C206.41 193.576 211.758 197.056 215.678 200.223C219.377 203.056 222.266 206.813 224.054 211.115C224.123 211.289 223.88 211.44 223.764 211.312Z" fill="#263238"/>
<path d="M234.958 188.367C235.178 188.646 234.529 188.669 234.738 188.947C235.654 190.107 240.48 197.856 238.368 200.315C236.675 202.287 232.847 201.371 231.524 200.443L228.172 198.123L230.492 201.475C231.527 202.957 232.311 204.599 232.812 206.336C233.099 207.125 233.216 207.967 233.154 208.805C233.092 209.642 232.853 210.458 232.452 211.196C232.074 211.88 231.473 212.414 230.748 212.707C230.024 213.001 229.221 213.036 228.474 212.809C226.813 212.26 225.317 211.302 224.124 210.025L220.725 206.545L222.801 210.883C223.385 212.089 223.813 213.363 224.077 214.676C224.372 215.91 224.303 217.204 223.88 218.4C223.656 218.927 223.29 219.382 222.823 219.713C222.356 220.045 221.807 220.241 221.235 220.279C219.951 220.171 218.724 219.7 217.697 218.922C215.443 217.26 213.322 215.426 211.352 213.435C210.331 212.461 209.299 211.486 208.22 210.558C207.187 209.57 205.958 208.812 204.612 208.331C205.878 208.946 207.013 209.801 207.953 210.848C208.951 211.846 209.89 212.89 210.841 213.934C212.711 216.104 214.781 218.093 217.024 219.873C218.223 220.866 219.687 221.483 221.235 221.648C222.084 221.642 222.912 221.39 223.621 220.923C224.329 220.456 224.887 219.793 225.226 219.015C225.82 217.543 225.957 215.926 225.62 214.375C225.357 212.907 224.905 211.48 224.274 210.129L222.952 211.034C224.336 212.575 226.1 213.727 228.068 214.375C229.169 214.701 230.35 214.636 231.408 214.189C232.428 213.715 233.285 212.947 233.868 211.985C234.374 211.049 234.676 210.016 234.754 208.954C234.832 207.892 234.684 206.826 234.32 205.825C233.727 203.922 232.821 202.13 231.64 200.524L230.62 201.545C232.36 202.705 236.512 204.155 239.528 201.429C242.974 197.369 236.28 189.678 234.958 188.367Z" fill="#263238"/>
<path d="M234.784 188.379C235.743 188.743 236.752 188.959 237.776 189.017C238.186 189.051 238.598 188.976 238.969 188.798C239.34 188.621 239.657 188.348 239.888 188.008C240.282 187.19 240.431 186.276 240.317 185.375C240.247 184.377 240.12 183.333 239.946 182.254C240.635 183.125 241.13 184.134 241.396 185.212C241.575 185.795 241.637 186.408 241.58 187.015C241.522 187.622 241.345 188.212 241.059 188.75C240.688 189.316 240.148 189.75 239.516 189.992C238.915 190.196 238.269 190.232 237.649 190.096C236.536 189.843 235.532 189.241 234.784 188.379Z" fill="#263238"/>
<path d="M209.148 246.762L253.147 211.44C253.147 211.44 263.807 233.48 264.434 233.387C265.06 233.294 272.043 204.051 283.62 185.827C295.197 167.603 297.981 187.381 295.522 202.415C293.062 217.449 281.486 300.771 271.08 308.404C260.675 316.037 250.896 306.479 246.72 302.43C240.886 296.781 209.148 246.762 209.148 246.762Z" fill="#9B1339"/>
<path d="M217.616 250.741C218.996 249.325 232.823 238.537 235.874 236.264L245.061 229.443C248.217 227.123 251.337 224.559 254.678 222.483C254.692 222.472 254.709 222.463 254.727 222.458C254.744 222.453 254.763 222.452 254.781 222.454C254.8 222.456 254.817 222.462 254.833 222.471C254.849 222.48 254.864 222.492 254.875 222.506C254.886 222.521 254.895 222.537 254.9 222.555C254.905 222.573 254.906 222.591 254.904 222.61C254.902 222.628 254.896 222.646 254.887 222.662C254.878 222.678 254.866 222.692 254.852 222.703C251.952 225.371 248.681 227.691 245.572 230.116C242.463 232.54 239.459 234.918 236.396 237.296C233.334 239.674 219.414 250.056 217.743 250.973C217.604 251.042 217.523 250.88 217.616 250.741Z" fill="#263238"/>
<path d="M264.48 233.329C265.64 235.928 266.8 238.596 267.774 241.264C268.749 243.932 269.723 246.658 270.593 249.384C271.463 252.11 272.252 254.87 272.913 257.666C273.606 260.452 274.136 263.275 274.502 266.122C274.073 264.742 273.725 263.362 273.342 262.004C272.96 260.647 272.53 259.267 272.101 257.898L269.549 249.778L266.997 241.658L265.64 237.459C265.246 236.078 264.816 234.71 264.48 233.329Z" fill="#263238"/>
<path d="M264.642 324.087C266.545 325.978 383.531 319.784 384.122 319.03C385.665 316.965 343.824 192.462 316.401 172.765C310.509 168.531 294.663 174.204 290.591 178.287C288.039 180.851 282.471 197.033 278.852 210.407C271.544 237.203 262.983 322.429 264.642 324.087Z" fill="white"/>
<path d="M292.97 173.032C288.33 176.512 284.78 194.272 295.382 196.673C305.985 199.074 315.822 182.336 317.272 176.953C318.722 171.571 303.004 165.585 292.97 173.032Z" fill="#9B1339"/>
<path d="M296.148 194.237C302.725 195.084 312.713 184.122 316.227 175.677C316.471 175.097 315.067 169.448 313.606 162.488C312.759 158.266 311.924 153.544 311.46 149.171L284.78 158.695C284.78 158.695 288.434 167.569 289.188 175.19C289.246 175.792 289.246 176.398 289.188 177C289.188 177.081 289.188 177.185 289.188 177.301C288.967 180.793 289.791 193.425 296.148 194.237Z" fill="#F7A9A0"/>
<path d="M310.196 149.658C309.917 155.203 307.818 175.178 291.995 177.197C291.057 177.315 290.11 177.361 289.165 177.336C289.146 177.236 289.146 177.134 289.165 177.034C289.211 176.432 289.211 175.827 289.165 175.225C288.399 167.615 284.745 158.741 284.745 158.741L310.196 149.658Z" fill="#263238"/>
<path d="M311.912 116.482C315.798 125.925 313.339 154.484 307.028 161.409C297.864 171.443 281.508 173.868 272.681 162.569C264.097 151.607 267.96 114.429 275.14 108.049C285.708 98.5256 306.158 102.539 311.912 116.482Z" fill="#F7A9A0"/>
<path d="M286.682 136.214C286.682 136.144 286.833 136.318 286.821 136.399C286.601 138.325 286.682 140.552 288.364 141.329C288.364 141.329 288.364 141.457 288.364 141.445C286.241 140.97 286.172 138 286.682 136.214Z" fill="#263238"/>
<path d="M288.573 134.346C291.682 134.346 291.426 140.587 288.573 140.575C285.719 140.564 285.963 134.335 288.573 134.346Z" fill="#263238"/>
<path d="M275.883 135.819C275.883 135.75 275.732 135.912 275.732 135.982C275.732 137.919 275.361 140.123 273.586 140.691V140.807C275.744 140.599 276.173 137.652 275.883 135.819Z" fill="#263238"/>
<path d="M274.247 133.72C271.15 133.36 270.651 139.52 273.516 139.914C276.381 140.309 276.834 134.045 274.247 133.72Z" fill="#263238"/>
<path d="M291.16 131.597C290.35 131.326 289.556 131.009 288.782 130.646C287.899 130.429 287.113 129.927 286.543 129.219C286.408 128.961 286.362 128.665 286.412 128.377C286.462 128.09 286.606 127.827 286.822 127.63C287.305 127.306 287.867 127.117 288.448 127.082C289.029 127.047 289.609 127.168 290.128 127.433C291.261 127.807 292.216 128.588 292.807 129.625C292.928 129.869 292.976 130.143 292.944 130.414C292.912 130.684 292.802 130.939 292.627 131.148C292.452 131.358 292.221 131.511 291.96 131.591C291.7 131.671 291.422 131.673 291.16 131.597Z" fill="#263238"/>
<path d="M271.973 130.495C272.832 130.391 273.62 130.147 274.467 129.962C275.377 129.897 276.239 129.53 276.915 128.918C277.092 128.688 277.188 128.407 277.188 128.117C277.188 127.828 277.092 127.546 276.915 127.317C276.492 126.913 275.969 126.631 275.399 126.498C274.83 126.366 274.236 126.388 273.678 126.563C272.501 126.741 271.431 127.348 270.674 128.268C270.516 128.49 270.426 128.752 270.414 129.024C270.402 129.296 270.468 129.565 270.605 129.801C270.742 130.036 270.944 130.226 271.187 130.349C271.43 130.472 271.703 130.523 271.973 130.495Z" fill="#263238"/>
<path d="M289.153 154.287C288.677 154.716 288.19 155.319 287.482 155.342C286.765 155.304 286.064 155.11 285.429 154.774C285.417 154.771 285.404 154.771 285.392 154.775C285.38 154.779 285.369 154.786 285.36 154.796C285.352 154.805 285.347 154.817 285.344 154.829C285.342 154.842 285.343 154.855 285.348 154.867C285.602 155.263 285.961 155.581 286.385 155.785C286.809 155.99 287.281 156.074 287.749 156.027C288.147 155.943 288.51 155.743 288.793 155.451C289.077 155.16 289.266 154.791 289.338 154.391C289.373 154.264 289.222 154.217 289.153 154.287Z" fill="#263238"/>
<path d="M287.367 148.417C286.848 149.161 286.18 149.789 285.405 150.261C284.63 150.732 283.765 151.037 282.866 151.155C282.096 151.266 281.315 151.266 280.546 151.155C280.393 151.145 280.242 151.121 280.093 151.085L279.676 151.004C279.572 150.981 279.48 150.924 279.412 150.842C279.345 150.76 279.307 150.658 279.305 150.552C279.299 150.486 279.299 150.42 279.305 150.354V150.18C279.305 148.696 279.571 146.445 279.571 146.445C279.015 146.689 276.196 147.826 276.265 147.048C276.927 140.634 277.646 133.511 279.653 127.328C279.711 127.12 280.035 127.178 280.001 127.328C279.618 133.523 278.145 139.59 277.681 145.796C278.681 145.38 279.736 145.111 280.813 144.995C281.021 145.065 280.279 149.334 280.325 150.006C280.323 150.029 280.323 150.053 280.325 150.076C282.808 150.505 284.722 149.821 287.204 148.255C287.343 148.139 287.494 148.266 287.367 148.417Z" fill="#263238"/>
<path d="M281.602 150.795C282.456 151.813 283.559 152.592 284.803 153.057C285.494 153.278 286.236 153.278 286.926 153.057C288.434 152.581 288.399 151.178 288.086 149.995C287.897 149.364 287.636 148.757 287.309 148.185C285.736 149.645 283.735 150.56 281.602 150.795Z" fill="#263238"/>
<path d="M284.803 153.057C285.494 153.278 286.236 153.278 286.926 153.057C288.434 152.581 288.399 151.178 288.086 149.995C287.273 150.057 286.505 150.394 285.908 150.951C285.311 151.507 284.922 152.25 284.803 153.057Z" fill="#F392B9"/>
<path d="M312.527 140.169C313.223 137.675 319.661 110.787 318.953 107.852C318.304 105.184 315.381 106.274 315.346 106.123C315.311 105.973 315.206 103.537 313.698 102.643C313.184 102.42 312.629 102.305 312.069 102.305C311.508 102.305 310.953 102.42 310.439 102.643C310.439 102.643 309.986 100.08 308.374 99.3839C307.834 99.213 307.259 99.1862 306.705 99.3063C306.152 99.4263 305.639 99.689 305.219 100.068C305.071 99.387 304.759 98.7522 304.31 98.2186C303.861 97.685 303.289 97.2688 302.644 97.0059C302.068 96.8391 301.454 96.8619 300.892 97.0708C300.33 97.2796 299.85 97.6635 299.523 98.1659C299.523 98.1659 298.839 95.7183 297.203 95.2427C295.568 94.7671 294.071 96.5883 294.071 96.5883C293.829 95.971 293.426 95.43 292.904 95.0219C292.382 94.6138 291.759 94.3535 291.102 94.2683C290.463 94.3118 289.851 94.5447 289.345 94.9373C288.839 95.3298 288.461 95.8642 288.26 96.4723C288.26 96.4723 287.1 94.3147 285.128 94.2567C283.156 94.1987 282.552 96.5767 282.552 96.5767C282.552 96.5767 281.764 94.4423 279.954 94.5815C278.144 94.7207 277.727 97.2495 277.727 97.2495C277.727 97.2495 276.718 94.9295 274.583 95.5907C271.324 96.6463 270.918 112.237 270.175 119.011C270.175 119.011 271.08 115.775 272.495 115.659C273.91 115.543 274.908 117.735 277.495 118.315C281.172 119.127 287.297 114.835 292.366 115.891C297.435 116.946 300.938 122.12 302.713 129.811C304.65 138.731 310.88 146.085 312.527 140.169Z" fill="#263238"/>
<path d="M287.889 145.761C285.808 145.38 283.963 144.188 282.761 142.448C281.558 140.708 281.095 138.562 281.474 136.481C281.74 135.018 282.411 133.66 283.411 132.56C284.411 131.46 285.699 130.663 287.13 130.258C288.56 129.854 290.075 129.859 291.503 130.273C292.931 130.686 294.214 131.492 295.206 132.599C296.199 133.705 296.861 135.068 297.118 136.532C297.375 137.996 297.215 139.503 296.659 140.881C296.102 142.259 295.17 143.454 293.968 144.329C292.766 145.204 291.343 145.724 289.861 145.83C289.203 145.887 288.541 145.864 287.889 145.761ZM282.518 136.713C282.276 138.054 282.437 139.437 282.98 140.686C283.524 141.936 284.426 142.996 285.573 143.733C286.719 144.47 288.058 144.851 289.421 144.827C290.784 144.802 292.108 144.375 293.228 143.597C294.347 142.82 295.211 141.729 295.71 140.46C296.209 139.192 296.321 137.804 296.032 136.473C295.742 135.141 295.064 133.925 294.083 132.979C293.102 132.033 291.863 131.398 290.522 131.156C289.96 131.051 289.387 131.02 288.817 131.064C287.287 131.169 285.837 131.782 284.696 132.805C283.555 133.829 282.788 135.204 282.518 136.713Z" fill="#9B1339"/>
<path d="M271.115 144.926C267.855 144.775 265.373 141.086 265.57 136.713C265.628 134.73 266.306 132.816 267.507 131.238C267.982 130.529 268.631 129.956 269.392 129.572C270.154 129.188 271.001 129.007 271.852 129.047C272.704 129.087 273.531 129.346 274.253 129.798C274.975 130.251 275.569 130.883 275.975 131.632C277.024 133.313 277.519 135.281 277.39 137.258C277.205 141.411 274.664 144.705 271.59 144.926H271.115ZM268.331 131.899C267.272 133.302 266.68 135.002 266.637 136.759C266.463 140.552 268.493 143.719 271.161 143.87C273.829 144.021 276.161 141.005 276.335 137.212C276.445 135.457 276.012 133.711 275.094 132.212C274.753 131.624 274.276 131.126 273.702 130.761C273.129 130.395 272.476 130.173 271.799 130.112H271.44C270.826 130.177 270.232 130.369 269.697 130.677C269.161 130.985 268.696 131.401 268.331 131.899Z" fill="#9B1339"/>
<path d="M281.694 137.455L282.414 136.666C281.254 135.599 278.539 134.114 276.498 136.098L277.24 136.852C279.061 135.077 281.59 137.351 281.694 137.455Z" fill="#9B1339"/>
<path d="M316.981 141.132L317.956 140.692C317.747 140.239 315.856 136.272 313.513 135.785C311.17 135.298 297.018 135.994 296.403 136.028V137.084C300.498 136.887 311.483 136.469 313.234 136.817C314.986 137.165 316.482 140.042 316.981 141.132Z" fill="#9B1339"/>
<path d="M306.24 139.183C306.24 139.183 311.924 129.613 316.216 131.574C320.508 133.534 316.715 147.071 312.005 149.241C311.42 149.561 310.777 149.759 310.113 149.824C309.45 149.888 308.78 149.818 308.145 149.616C307.509 149.414 306.921 149.086 306.417 148.651C305.912 148.215 305.5 147.682 305.208 147.083L306.24 139.183Z" fill="#F7A9A0"/>
<path d="M314.986 135.425C314.999 135.43 315.009 135.439 315.017 135.451C315.024 135.462 315.028 135.475 315.028 135.489C315.028 135.502 315.024 135.516 315.017 135.527C315.009 135.538 314.999 135.547 314.986 135.553C311.692 137.188 310.138 140.471 309.128 143.835C310.045 142.501 311.367 141.701 313.142 142.779C313.159 142.793 313.171 142.812 313.177 142.833C313.183 142.854 313.182 142.877 313.174 142.897C313.166 142.918 313.152 142.936 313.134 142.948C313.116 142.96 313.094 142.966 313.072 142.965C312.46 142.823 311.819 142.872 311.236 143.107C310.653 143.341 310.156 143.749 309.813 144.276C309.248 145.162 308.781 146.107 308.421 147.095C308.282 147.408 307.725 147.292 307.806 146.932C307.811 146.905 307.811 146.878 307.806 146.851C307.458 142.524 310.37 136.214 314.986 135.425Z" fill="#263238"/>
<path d="M332.92 180.909C370.771 206.939 398.089 247.748 400.722 256.309C407.09 277.189 416.591 313.961 418.052 330.479C418.598 336.592 371.525 335.456 370.736 328.948C368.288 308.555 359.519 264.197 359.298 263.443C357.732 258.072 344.369 234.837 330.635 209.561C316.9 184.284 316.958 169.947 332.92 180.909Z" fill="#F7A9A0"/>
<path d="M374.471 393.374C379.273 395.021 382.394 390.776 382.394 390.776C383.994 392.737 386.231 394.075 388.716 394.557C393.135 395.207 396.082 388.56 396.082 388.56C398.171 390.244 400.716 391.262 403.39 391.483C407.682 391.669 411.603 385.393 411.603 385.393C414.377 385.869 417.231 385.343 419.653 383.909C423.725 381.287 425.731 368.307 425.662 360.999C425.592 353.691 418.551 333.043 417.611 328.959H370.713C370.713 328.959 361.699 361.799 363.01 370.383C364.101 377.656 369.077 391.53 374.471 393.374Z" fill="#F7A9A0"/>
<path d="M381.64 390.463C378.635 383.05 377.974 375.162 376.872 367.321C376.872 367.284 376.887 367.248 376.913 367.222C376.939 367.196 376.974 367.182 377.011 367.182C377.048 367.182 377.084 367.196 377.11 367.222C377.136 367.248 377.15 367.284 377.15 367.321C378.148 375.128 380.688 382.644 382.011 390.393C382.006 390.435 381.988 390.475 381.96 390.506C381.931 390.537 381.893 390.558 381.851 390.566C381.809 390.574 381.766 390.568 381.728 390.549C381.69 390.531 381.659 390.5 381.64 390.463Z" fill="#263238"/>
<path d="M395.467 388.41C394.949 386.66 394.66 384.851 394.609 383.027C394.431 381.102 394.292 379.168 394.191 377.227C393.971 373.364 393.831 369.502 393.82 365.627C393.82 365.453 394.075 365.407 394.087 365.627C394.319 369.478 394.597 373.318 394.98 377.146C395.177 379.072 395.386 380.986 395.606 382.946C395.936 384.739 396.065 386.564 395.989 388.386C395.972 388.441 395.938 388.488 395.893 388.523C395.848 388.558 395.793 388.577 395.736 388.58C395.679 388.583 395.623 388.568 395.575 388.537C395.527 388.507 395.489 388.462 395.467 388.41Z" fill="#263238"/>
<path d="M411.591 385.231C411.142 383.641 410.969 381.985 411.081 380.336C411.011 378.584 410.941 376.856 410.86 375.058C410.698 371.578 410.524 368.028 410.234 364.513C410.234 364.477 410.249 364.441 410.275 364.415C410.301 364.389 410.336 364.374 410.373 364.374C410.41 364.374 410.445 364.389 410.472 364.415C410.498 364.441 410.512 364.477 410.512 364.513C410.814 368.075 411.173 371.636 411.463 375.209L411.846 380.463C412.104 382.053 412.077 383.675 411.765 385.254C411.756 385.272 411.743 385.286 411.726 385.295C411.708 385.304 411.689 385.307 411.67 385.305C411.651 385.302 411.633 385.294 411.619 385.281C411.605 385.267 411.595 385.25 411.591 385.231Z" fill="#263238"/>
<path d="M368.474 329.516L419.92 325.364C419.92 325.364 408.587 269.95 402.439 254.975C396.291 239.999 365.678 203.053 333.755 181.152C312.04 166.27 313.386 178.96 323.42 198.68C333.454 218.4 357.06 263.536 358.22 267.12C359.38 270.704 368.474 329.516 368.474 329.516Z" fill="#9B1339"/>
<path d="M369.378 318.902C371.304 318.45 388.762 316.849 392.578 316.582L403.981 315.794C407.914 315.527 411.904 315.074 415.848 315.121C415.869 315.115 415.891 315.113 415.912 315.117C415.934 315.121 415.954 315.13 415.971 315.143C415.988 315.156 416.003 315.172 416.012 315.192C416.022 315.211 416.027 315.233 416.027 315.254C416.027 315.276 416.022 315.297 416.012 315.317C416.003 315.336 415.988 315.353 415.971 315.366C415.954 315.379 415.934 315.387 415.912 315.391C415.891 315.395 415.869 315.394 415.848 315.388C411.974 316.072 407.96 316.269 404.051 316.64L392.451 317.731C388.576 318.079 371.281 319.285 369.367 319.158C369.216 319.146 369.251 318.937 369.378 318.902Z" fill="#263238"/>
</g>
<rect x="0.5" y="1" width="579" height="398" rx="14.5" stroke="black" stroke-opacity="0.2"/>
<defs>
<clipPath id="clip0_37_1159">
<rect y="0.5" width="580" height="399" rx="15" fill="white"/>
</clipPath>
</defs>
</svg>
