<svg width="580" height="400" viewBox="0 0 580 400" fill="none" xmlns="http://www.w3.org/2000/svg">
<g clip-path="url(#clip0_37_1171)">
<rect y="0.5" width="580" height="399" rx="15" fill="#FBFBFB"/>
<path d="M282.57 76.2999C282.57 76.2999 282.57 75.8299 282.5 74.8899C282.43 73.9499 282.5 72.5699 282.3 70.7499C281.463 58.3169 277.968 46.2083 272.05 35.2417C266.133 24.275 257.932 14.7057 248 7.17995C237.244 -0.993725 224.723 -6.53499 211.44 -9.00005C189.979 -13.0821 167.767 -8.92438 149.235 2.64397C130.704 14.2123 117.214 32.3411 111.456 53.4147C105.698 74.4883 108.095 96.958 118.169 116.343C128.244 135.727 145.255 150.602 165.81 158C169.604 159.354 173.482 160.459 177.42 161.31C188.62 163.646 200.168 163.782 211.42 161.71C224.715 159.206 237.241 153.632 248 145.43C257.923 137.899 266.116 128.328 272.026 117.361C277.936 106.395 281.426 94.2893 282.26 81.8599C282.43 80.0399 282.4 78.6499 282.46 77.7199C282.52 76.7899 282.53 76.2999 282.53 76.2999C282.53 76.2999 282.59 78.2199 282.42 81.8699C282.119 87.1885 281.325 92.4678 280.05 97.6399C278.02 105.848 274.807 113.717 270.51 121C264.78 130.632 257.266 139.083 248.37 145.9C237.558 154.177 224.953 159.798 211.57 162.31C204.132 163.701 196.545 164.118 189 163.55C185.055 163.269 181.132 162.725 177.26 161.92C173.29 161.072 169.381 159.96 165.56 158.59C144.898 151.095 127.813 136.099 117.703 116.582C107.593 97.0661 105.198 74.4597 110.994 53.2583C116.791 32.0569 130.354 13.8135 148.987 2.15576C167.621 -9.50199 189.959 -13.7202 211.56 -9.66005C224.94 -7.14561 237.544 -1.52858 248.36 6.73995C257.256 13.5593 264.773 22.0097 270.51 31.6399C274.819 38.9199 278.043 46.7894 280.08 54.9999C281.363 60.1744 282.16 65.4573 282.46 70.7799C282.63 74.3899 282.57 76.2999 282.57 76.2999Z" fill="#E0E0E0"/>
<path d="M205.84 56.8099L231.33 71.8099C232.36 72.4416 233.209 73.329 233.794 74.3859C234.379 75.4427 234.681 76.633 234.67 77.8411C234.659 79.0491 234.335 80.2337 233.731 81.2796C233.126 82.3256 232.261 83.1973 231.22 83.8099L205.44 98.3699L179.67 113C178.606 113.582 177.408 113.878 176.195 113.858C174.982 113.838 173.794 113.503 172.75 112.886C171.705 112.269 170.839 111.391 170.236 110.338C169.633 109.285 169.314 108.093 169.31 106.88L169.59 77.29L169.88 47.69C169.891 46.4714 170.224 45.2773 170.843 44.2278C171.462 43.1783 172.347 42.3103 173.408 41.7113C174.47 41.1123 175.67 40.8032 176.888 40.8153C178.107 40.8273 179.301 41.16 180.35 41.7799L205.84 56.8099Z" fill="#E0E0E0"/>
<path d="M508.51 70.7899H270.71V242.9H508.51V70.7899Z" fill="#E0E0E0"/>
<path d="M492.79 86.5099H254.99V258.62H492.79V86.5099Z" fill="#F5F5F5"/>
<path d="M234.599 99.417L234.374 283.787L477.813 284.084L478.039 99.7144L234.599 99.417Z" fill="#FAFAFA"/>
<path d="M477.82 284.1C477.82 282.28 477.82 211.2 477.82 99.73L478.04 99.95L234.62 99.69L234.88 99.43C234.79 165.75 234.7 228.54 234.63 283.79L234.39 283.55L477.83 284.1L234.38 284H234.13V283.76C234.2 228.51 234.27 165.76 234.34 99.4V99.13H234.63L478.05 99.48H478.27V99.7C478 211.2 477.82 282.28 477.82 284.1Z" fill="#263238"/>
<path d="M475.76 116.74C475.76 116.88 421.89 116.94 355.45 116.85C289.01 116.76 235.13 116.58 235.13 116.44C235.13 116.3 288.99 116.24 355.45 116.32C421.91 116.4 475.76 116.59 475.76 116.74Z" fill="#263238"/>
<path d="M247.83 108.42C247.864 109.16 247.675 109.893 247.289 110.525C246.902 111.157 246.335 111.659 245.661 111.966C244.987 112.273 244.236 112.372 243.506 112.248C242.775 112.125 242.098 111.786 241.562 111.274C241.026 110.763 240.656 110.102 240.498 109.379C240.341 108.655 240.404 107.9 240.679 107.212C240.954 106.524 241.429 105.935 242.042 105.519C242.655 105.103 243.379 104.881 244.12 104.88C244.596 104.868 245.07 104.95 245.514 105.122C245.959 105.293 246.365 105.551 246.71 105.88C247.054 106.209 247.331 106.602 247.523 107.038C247.715 107.474 247.819 107.944 247.83 108.42Z" fill="#263238"/>
<path d="M258.7 108.43C258.734 109.17 258.545 109.904 258.158 110.536C257.771 111.169 257.204 111.671 256.529 111.977C255.854 112.284 255.103 112.382 254.372 112.258C253.641 112.133 252.965 111.793 252.429 111.281C251.893 110.768 251.523 110.107 251.367 109.382C251.211 108.658 251.275 107.903 251.552 107.215C251.828 106.528 252.305 105.939 252.919 105.524C253.534 105.11 254.259 104.889 255 104.89C255.476 104.878 255.949 104.96 256.393 105.132C256.837 105.304 257.242 105.561 257.586 105.89C257.93 106.219 258.205 106.613 258.397 107.049C258.588 107.485 258.691 107.954 258.7 108.43Z" fill="#263238"/>
<path d="M269.57 108.45C269.602 109.19 269.411 109.923 269.023 110.554C268.635 111.185 268.067 111.685 267.392 111.991C266.717 112.296 265.966 112.392 265.235 112.266C264.505 112.141 263.829 111.8 263.295 111.287C262.76 110.774 262.391 110.113 262.236 109.389C262.08 108.664 262.145 107.91 262.422 107.223C262.699 106.536 263.176 105.947 263.79 105.533C264.405 105.119 265.129 104.899 265.87 104.9C266.346 104.889 266.82 104.973 267.264 105.146C267.708 105.318 268.113 105.577 268.457 105.907C268.8 106.237 269.076 106.631 269.267 107.068C269.458 107.504 269.561 107.974 269.57 108.45Z" fill="#263238"/>
<path d="M414.133 176.197L313.283 176.074C301.724 176.06 292.342 185.419 292.328 196.978L292.323 200.998C292.309 212.557 301.668 221.939 313.227 221.954L414.077 222.077C425.637 222.091 435.019 212.732 435.033 201.172L435.038 197.152C435.052 185.593 425.693 176.211 414.133 176.197Z" fill="#9B1339"/>
<g opacity="0.4">
<path d="M414.133 176.197L313.283 176.074C301.724 176.06 292.342 185.419 292.328 196.978L292.323 200.998C292.309 212.557 301.668 221.939 313.227 221.954L414.077 222.077C425.637 222.091 435.019 212.732 435.033 201.172L435.038 197.152C435.052 185.593 425.693 176.211 414.133 176.197Z" fill="black"/>
</g>
<path d="M403.743 176.174L302.893 176.051C291.334 176.037 281.952 185.396 281.938 196.955L281.933 200.975C281.919 212.535 291.278 221.917 302.837 221.931L403.687 222.054C415.247 222.068 424.629 212.709 424.643 201.15L424.648 197.13C424.662 185.57 415.303 176.188 403.743 176.174Z" fill="#9B1339"/>
<path d="M327.11 195.79C327.11 199.07 324.64 201.11 320.71 201.11H317.71V205.17H314.31V190.43H320.69C324.66 190.44 327.12 192.49 327.11 195.79ZM323.66 195.79C323.66 194.17 322.61 193.22 320.53 193.21H317.75V198.33H320.53C322.61 198.33 323.66 197.39 323.66 195.79Z" fill="white"/>
<path d="M329.54 190.45H333V202.45H340.39V205.22H329.59L329.54 190.45Z" fill="white"/>
<path d="M352.07 202.05H345.23L343.92 205.21H340.42L347 190.47H350.36L356.93 205.21H353.36L352.07 202.05ZM351 199.46L348.67 193.82L346.32 199.46H351Z" fill="white"/>
<path d="M364.65 200V205.22H361.24V200L355.55 190.52H359.17L363.1 197L367.04 190.45H370.39L364.65 200Z" fill="white"/>
<path d="M388.22 195L393.31 198C393.522 198.12 393.699 198.295 393.821 198.506C393.944 198.717 394.009 198.956 394.009 199.2C394.009 199.444 393.944 199.683 393.821 199.894C393.699 200.105 393.522 200.28 393.31 200.4L388.16 203.3L383 206.2C382.789 206.329 382.548 206.399 382.301 206.403C382.053 206.406 381.81 206.344 381.595 206.221C381.381 206.098 381.203 205.92 381.081 205.706C380.958 205.491 380.896 205.247 380.9 205L380.97 199.08L381.03 193.17C381.033 192.926 381.1 192.687 381.224 192.476C381.349 192.266 381.526 192.093 381.739 191.973C381.952 191.853 382.193 191.792 382.437 191.795C382.681 191.798 382.92 191.865 383.13 191.99L388.22 195Z" fill="white"/>
<path d="M192.49 249.36L238.44 294.17L287.36 242.26L304.63 257.38L269.44 319C266.697 323.999 262.774 328.252 258.013 331.389C253.251 334.526 247.796 336.452 242.12 337C236.904 337.523 231.637 336.899 226.688 335.172C221.739 333.445 217.227 330.655 213.47 327L188.2 302.54L192.49 249.36Z" fill="#F7A9A0"/>
<path d="M304 227.48C304 227.48 324.25 215.33 325.76 215.33C327.27 215.33 348.9 208.66 348.9 208.66L358.17 208.52C358.17 208.52 360.55 211.99 352.98 213.59L348.21 215.21L342 218L336.63 220.37L340.36 221.06C341.239 221.223 342.063 221.601 342.761 222.159C343.459 222.717 344.008 223.439 344.36 224.26L347.95 232.62C347.95 232.62 347.65 242 345.83 242.91C345.233 243.167 344.59 243.3 343.94 243.3C343.29 243.3 342.647 243.167 342.05 242.91C342.05 242.91 342.2 247.45 341.15 248.05C340.1 248.65 337.82 248.05 337.82 248.05C337.82 248.05 335.7 249.05 334.94 248.32C334.18 247.59 333.73 244.72 333.73 244.72L332.27 243.36L324.6 246.7C321.736 247.931 318.666 248.609 315.55 248.7L309.23 248.92L301.35 263.39L282.58 247.33C289.271 240.245 296.427 233.613 304 227.48Z" fill="#F7A9A0"/>
<path d="M326.61 231C329.61 232.67 330.96 234.45 334.4 234.3C336.744 234.255 339.082 234.055 341.4 233.7C343.322 233.412 345.268 233.308 347.21 233.39C348.5 233.39 350.06 233.58 350.62 234.74C350.78 235.166 350.815 235.629 350.719 236.074C350.623 236.52 350.401 236.928 350.08 237.25C349.425 237.879 348.645 238.363 347.79 238.67C341.935 240.991 335.897 242.824 329.74 244.15" fill="#F7A9A0"/>
<path d="M340.35 225.47C340.256 226.083 340.012 226.664 339.64 227.16C339.257 227.82 338.737 228.389 338.114 228.829C337.491 229.269 336.78 229.57 336.03 229.71C335.199 229.77 334.364 229.672 333.57 229.42L331.67 228.93C330.6 228.63 329.93 228.54 329.93 228.48C330.534 228.354 331.16 228.381 331.75 228.56L333.68 228.94C334.421 229.151 335.192 229.232 335.96 229.18C337.334 228.904 338.544 228.1 339.33 226.94C339.645 226.433 339.986 225.942 340.35 225.47Z" fill="#7C3B29"/>
<path d="M340.73 233.66C339.974 233.04 339.337 232.288 338.85 231.44C338.222 230.69 337.735 229.833 337.41 228.91C338.166 229.53 338.803 230.282 339.29 231.13C339.915 231.882 340.403 232.738 340.73 233.66Z" fill="#7C3B29"/>
<path d="M336.74 230.73C336.91 230.73 336.83 231.83 336.07 232.83C335.31 233.83 334.49 234.38 334.4 234.26C334.31 234.14 334.97 233.47 335.64 232.52C336.31 231.57 336.6 230.73 336.74 230.73Z" fill="#7C3B29"/>
<path d="M327.7 229.43C327.193 228.62 327.007 227.65 327.18 226.71C327.174 225.754 327.531 224.832 328.18 224.13C328.32 224.2 327.83 225.31 327.72 226.76C327.61 228.21 327.85 229.39 327.7 229.43Z" fill="#7C3B29"/>
<path d="M331.13 243.66C331.274 243.581 331.425 243.514 331.58 243.46L332.89 242.98L337.75 241.31L345 238.9L347.09 238.21C347.814 238.011 348.517 237.743 349.19 237.41C349.52 237.275 349.814 237.066 350.05 236.799C350.286 236.532 350.457 236.214 350.55 235.87C350.577 235.505 350.496 235.141 350.319 234.821C350.141 234.501 349.874 234.24 349.55 234.07C348.873 233.699 348.112 233.507 347.34 233.51C346.54 233.51 345.75 233.46 344.98 233.51C343.492 233.529 342.009 233.687 340.55 233.98C339.16 234.28 337.85 234.68 336.55 234.84C335.347 235.023 334.118 234.941 332.95 234.6C331.299 234.067 329.753 233.252 328.38 232.19C327.89 231.84 327.52 231.55 327.27 231.34C327.02 231.13 326.89 231.03 326.91 231.01C326.93 230.99 327.48 231.36 328.5 232.01C329.891 232.985 331.426 233.734 333.05 234.23C334.169 234.526 335.338 234.584 336.48 234.4C337.73 234.22 339.02 233.81 340.48 233.49C341.968 233.185 343.481 233.021 345 233C345.794 233 346.594 233 347.4 233C348.27 232.991 349.126 233.216 349.88 233.65C350.283 233.878 350.609 234.22 350.819 234.633C351.029 235.045 351.113 235.51 351.06 235.97C350.958 236.395 350.757 236.791 350.474 237.124C350.191 237.458 349.833 237.72 349.43 237.89C348.726 238.231 347.993 238.509 347.24 238.72L345.14 239.39L337.87 241.69L333 243.18L331.65 243.56C331.485 243.628 331.308 243.662 331.13 243.66Z" fill="#7C3B29"/>
<path d="M336.18 241.78C336.695 242.716 337.053 243.729 337.24 244.78C337.602 245.784 337.788 246.843 337.79 247.91C336.916 245.967 336.372 243.892 336.18 241.77V241.78Z" fill="#7C3B29"/>
<path d="M341.57 240.39C341.71 240.39 341.96 240.9 342.05 241.61C342.14 242.32 342.05 242.91 341.9 242.92C341.75 242.93 341.61 242.37 341.52 241.68C341.43 240.99 341.43 240.42 341.57 240.39Z" fill="#7C3B29"/>
<path d="M349.2 214.86C348.869 215.066 348.517 215.237 348.15 215.37L345.23 216.66C342.78 217.77 339.38 219.29 335.76 221.2C334.86 221.68 333.98 222.2 333.17 222.67C332.38 223.107 331.683 223.694 331.12 224.4C330.218 225.655 329.669 227.13 329.53 228.67C329.443 230.104 329.64 231.542 330.11 232.9C329.876 232.58 329.7 232.221 329.59 231.84C329.239 230.812 329.092 229.725 329.16 228.64C329.246 227.012 329.79 225.442 330.73 224.11C331.017 223.733 331.353 223.397 331.73 223.11C332.11 222.82 332.5 222.53 332.92 222.27C333.74 221.74 334.63 221.27 335.54 220.76C339.19 218.85 342.62 217.38 345.11 216.36C346.36 215.85 347.38 215.46 348.11 215.22C348.457 215.054 348.823 214.933 349.2 214.86Z" fill="#7C3B29"/>
<path d="M214.83 405.81L192.16 362.51L199.37 316.17L195.73 243.66C191.864 239.703 187.073 236.771 181.79 235.13C176.506 233.489 170.898 233.19 165.47 234.26H128.85C124.08 235.92 105.21 239.32 100.41 242.02C85.1699 250.59 82.1699 270.65 87.2899 287.37L105 356.32L102.6 406.65L214.83 405.81Z" fill="#9B1339"/>
<path d="M195.73 243.66L234.49 287.33L192.15 313.44L195.73 243.66Z" fill="#9B1339"/>
<g opacity="0.4">
<path d="M104.56 377C103.09 384.4 108.15 391.87 114.74 395.53C121.33 399.19 129.12 399.83 136.65 400.17C158.73 401.17 180.99 400.17 202.65 395.75C191.9 392.37 180.5 391.75 169.23 391.52C157.96 391.29 146.61 391.38 135.53 389.33C124.45 387.28 113.47 382.91 105.53 374.92" fill="black"/>
</g>
<path d="M214.8 396.7C214.8 396.7 139.28 395.7 130.44 394.76C119.15 393.53 105.85 386.18 101.69 370.22C99.69 362.62 78.78 298.53 85.53 269.7C85.59 269.41 85.66 269.13 85.73 268.84C90.33 250.55 116.55 251.23 120.15 269.75L137.35 359L218.23 377.38L234.5 368.74L261.69 384.32L257.63 396.73L214.8 396.7Z" fill="#F7A9A0"/>
<path d="M102.3 241.61C101.71 242 82.7001 247.78 81.7701 269.75C80.7701 293.05 84.5601 329.06 84.5601 329.06L133.38 325.7L116.88 249.27L102.3 241.61Z" fill="#9B1339"/>
<path d="M192.15 368.71C192.112 368.442 192.095 368.171 192.1 367.9C192.1 367.37 192.1 366.59 192.1 365.58C192.165 362.734 192.378 359.894 192.74 357.07C193.17 353.49 193.9 349.26 194.81 344.59C195.72 339.92 196.81 334.81 197.68 329.4C198.547 324.311 199.011 319.162 199.07 314C199.11 309.801 198.698 305.61 197.84 301.5C197.247 298.729 196.383 296.022 195.26 293.42C194.9 292.49 194.5 291.81 194.26 291.32C194.136 291.081 194.029 290.834 193.94 290.58C194.102 290.796 194.242 291.027 194.36 291.27C194.6 291.75 195.02 292.41 195.42 293.34C196.627 295.927 197.552 298.636 198.18 301.42C199.113 305.548 199.576 309.768 199.56 314C199.53 319.175 199.078 324.339 198.21 329.44C197.32 334.87 196.21 339.99 195.29 344.65C194.37 349.31 193.59 353.52 193.12 357.08C192.65 360.64 192.4 363.54 192.31 365.55C192.24 366.55 192.24 367.33 192.21 367.86C192.218 368.145 192.198 368.429 192.15 368.71Z" fill="#263238"/>
<path d="M84.5601 329.06H84.8001L85.5301 328.98L88.3401 328.74L98.6601 327.94L132.73 325.52L133.36 325.47L133.12 325.78L128.12 292.4C127.52 288.17 127.03 284.73 126.68 282.3C126.52 281.14 126.4 280.23 126.31 279.56C126.31 279.27 126.25 279.03 126.23 278.84C126.215 278.757 126.215 278.673 126.23 278.59C126.262 278.666 126.282 278.747 126.29 278.83C126.29 279.02 126.37 279.25 126.43 279.54C126.54 280.21 126.7 281.12 126.89 282.27C127.28 284.7 127.83 288.13 128.5 292.35C129.82 300.91 131.64 312.67 133.64 325.7V325.98H133.35H132.72L98.6401 328.25L88.3001 328.88L85.4901 329.02H84.7601C84.6401 329.08 84.5601 329.07 84.5601 329.06Z" fill="#263238"/>
<path d="M172.48 313.39C172.48 313.39 172.55 313.55 172.61 313.87C172.72 314.335 172.803 314.806 172.86 315.28C173.077 317.033 173.077 318.807 172.86 320.56C172.563 323.17 171.829 325.712 170.69 328.08C169.327 331.01 167.343 333.608 164.875 335.694C162.408 337.78 159.516 339.304 156.4 340.16C153.873 340.882 151.244 341.18 148.62 341.04C146.856 340.952 145.109 340.646 143.42 340.13C142.962 339.994 142.511 339.834 142.07 339.65C141.77 339.53 141.61 339.46 141.62 339.44C143.897 340.124 146.246 340.533 148.62 340.66C151.197 340.736 153.77 340.399 156.24 339.66C159.266 338.769 162.08 337.272 164.51 335.26C166.906 333.205 168.853 330.68 170.23 327.84C171.361 325.52 172.117 323.036 172.47 320.48C172.754 318.125 172.757 315.745 172.48 313.39Z" fill="#263238"/>
<path d="M87.9999 330.73C87.968 330.633 87.9512 330.532 87.9499 330.43C87.9499 330.21 87.9499 329.92 87.8699 329.56C87.8699 328.76 87.7299 327.64 87.6299 326.21C87.4399 323.3 87.2099 319.09 87.0099 313.87C86.6099 303.45 86.3899 289.03 87.0099 273.12C87.1699 269.12 87.2399 265.24 87.7599 261.5C88.1563 257.875 89.2569 254.363 90.9999 251.16C92.7109 248.315 95.0722 245.916 97.8899 244.16C100.317 242.637 102.951 241.472 105.71 240.7C109.704 239.638 113.801 239.008 117.93 238.82C119.39 238.73 120.52 238.68 121.29 238.65H122.16H122.46C122.363 238.682 122.262 238.699 122.16 238.7L121.29 238.77L118 239C113.9 239.26 109.836 239.93 105.87 241C103.155 241.791 100.566 242.963 98.1799 244.48C95.4376 246.207 93.1419 248.558 91.4799 251.34C89.7685 254.487 88.6882 257.939 88.2999 261.5C87.7899 265.2 87.7199 269.09 87.5599 273.06C86.9899 288.96 87.1499 303.37 87.4499 313.79C87.6099 319 87.7799 323.22 87.9099 326.13C87.9699 327.56 88.0199 328.68 88.0499 329.49V330.36C88.0503 330.485 88.0335 330.61 87.9999 330.73Z" fill="#FAFAFA"/>
<path d="M127.81 242.81C127.723 242.841 127.632 242.858 127.54 242.86L126.75 242.95L123.75 243.29C120.022 243.685 116.339 244.428 112.75 245.51C110.296 246.277 107.968 247.398 105.84 248.84C103.424 250.515 101.459 252.762 100.12 255.38C98.7406 258.328 97.9556 261.519 97.81 264.77C97.6305 268.278 97.6305 271.792 97.81 275.3C98.35 289.76 99.81 302.8 101.07 312.19C101.72 316.89 102.32 320.68 102.74 323.29C102.95 324.57 103.11 325.58 103.23 326.29L103.35 327.07C103.361 327.163 103.361 327.257 103.35 327.35C103.317 327.263 103.293 327.172 103.28 327.08C103.23 326.88 103.18 326.62 103.11 326.31C102.96 325.58 102.77 324.58 102.52 323.31C102.03 320.7 101.37 316.92 100.67 312.22C98.872 299.983 97.7337 287.659 97.26 275.3C97.0702 271.773 97.0702 268.238 97.26 264.71C97.4132 261.393 98.2257 258.14 99.65 255.14C101.04 252.458 103.07 250.161 105.56 248.45C107.72 247.011 110.078 245.892 112.56 245.13C116.168 244.075 119.874 243.385 123.62 243.07C124.94 242.94 125.97 242.86 126.62 242.83H127.42L127.81 242.81Z" fill="#FAFAFA"/>
<path d="M119.15 327.93C119.077 327.645 119.03 327.354 119.01 327.06C118.93 326.44 118.83 325.6 118.7 324.55C118.46 322.32 118.11 319.18 117.7 315.32C116.89 307.48 115.78 296.73 114.55 284.85C113.93 278.91 113.37 273.17 113.98 267.97C114.24 265.507 114.815 263.087 115.69 260.77C116.476 258.759 117.551 256.872 118.88 255.17C120.76 252.655 123.301 250.709 126.22 249.55C126.675 249.368 127.143 249.221 127.62 249.11C127.963 249.005 128.314 248.932 128.67 248.89C128.957 248.835 129.248 248.798 129.54 248.78C128.438 249.038 127.355 249.372 126.3 249.78C123.461 250.992 121.001 252.947 119.18 255.44C117.889 257.125 116.855 258.992 116.11 260.98C115.26 263.24 114.702 265.599 114.45 268C113.87 273.13 114.45 278.82 115.06 284.77C116.23 296.65 117.29 307.41 118.06 315.25C118.42 319.12 118.7 322.25 118.91 324.5C119 325.56 119.06 326.39 119.11 327.02C119.154 327.321 119.167 327.626 119.15 327.93Z" fill="#FAFAFA"/>
<path d="M145.65 340.83C145.567 340.539 145.507 340.241 145.47 339.94C145.363 339.273 145.223 338.413 145.05 337.36C144.7 335.07 144.21 331.84 143.61 327.87C142.43 319.81 140.83 308.76 139.05 296.54C137.27 284.32 135.72 273.22 134.67 265.18C134.419 263.35 134.476 261.491 134.84 259.68C135.161 258.313 135.813 257.045 136.74 255.99C137.321 255.324 138.041 254.795 138.85 254.44C139.13 254.315 139.426 254.227 139.73 254.18C138.626 254.565 137.646 255.238 136.89 256.13C136.02 257.176 135.419 258.419 135.14 259.75C134.806 261.525 134.776 263.345 135.05 265.13C136.21 273.19 137.81 284.25 139.58 296.47C141.35 308.69 142.85 319.75 143.98 327.82C144.51 331.82 144.98 335.03 145.25 337.33C145.39 338.42 145.49 339.28 145.57 339.92C145.621 340.221 145.648 340.525 145.65 340.83Z" fill="#FAFAFA"/>
<path d="M154.78 363.42C154.625 362.32 154.541 361.211 154.53 360.1C154.41 358.05 154.2 355.23 153.81 352.1C153.42 348.97 152.94 346.21 152.55 344.19C152.296 343.109 152.106 342.014 151.98 340.91C152.4 341.943 152.715 343.015 152.92 344.11C153.535 346.726 154.009 349.373 154.34 352.04C154.674 354.694 154.861 357.365 154.9 360.04C154.974 361.168 154.934 362.3 154.78 363.42Z" fill="#FAFAFA"/>
<path d="M136.71 408C135.927 404.235 135.496 400.405 135.42 396.56C135.898 398.425 136.203 400.329 136.33 402.25C136.632 404.151 136.759 406.076 136.71 408Z" fill="#FAFAFA"/>
<path d="M114.27 388.77C114.461 391.833 114.481 394.905 114.33 397.97C114.355 401.04 114.198 404.109 113.86 407.16C113.657 404.097 113.637 401.025 113.8 397.96C113.776 394.89 113.933 391.821 114.27 388.77Z" fill="#FAFAFA"/>
<path d="M142.51 338.49C142.807 339.514 142.994 340.567 143.07 341.63C143.376 344.182 143.529 346.75 143.53 349.32C143.535 351.89 143.388 354.458 143.09 357.01C143.015 358.072 142.834 359.124 142.55 360.15C142.533 359.087 142.59 358.025 142.72 356.97C142.86 354.97 143 352.31 143 349.32C143 346.33 142.84 343.63 142.7 341.67C142.565 340.616 142.501 339.553 142.51 338.49Z" fill="#FAFAFA"/>
<path d="M152.37 406.75C151.071 403.492 150.913 399.89 151.92 396.53C152.08 396.53 151.68 398.84 151.82 401.66C151.96 404.48 152.53 406.71 152.37 406.75Z" fill="#FAFAFA"/>
<path d="M170.69 370.38C170.577 369.914 170.504 369.439 170.47 368.96C170.36 367.96 170.21 366.64 170.03 365.08C169.65 361.8 169.08 357.29 168.3 352.32C167.52 347.35 166.66 342.88 166.01 339.65C165.7 338.11 165.44 336.83 165.24 335.82C165.122 335.354 165.045 334.879 165.01 334.4C165.202 334.84 165.346 335.299 165.44 335.77C165.69 336.66 166.01 337.96 166.38 339.57C167.13 342.79 168.04 347.26 168.83 352.24C169.62 357.22 170.12 361.75 170.4 365.04C170.54 366.69 170.64 368.04 170.68 368.94C170.731 369.419 170.735 369.901 170.69 370.38Z" fill="#FAFAFA"/>
<path d="M171.06 280.64C171.154 280.93 171.225 281.228 171.27 281.53C171.4 282.16 171.56 283.01 171.78 284.08C172.21 286.3 172.78 289.53 173.48 293.51C174.86 301.51 176.6 312.51 178.21 324.76C179.82 337.01 180.97 348.13 181.7 356.19C182.06 360.19 182.32 363.48 182.48 365.73C182.55 366.83 182.61 367.73 182.65 368.33C182.674 368.633 182.674 368.937 182.65 369.24C182.584 368.944 182.541 368.643 182.52 368.34C182.46 367.7 182.37 366.84 182.25 365.75C182.02 363.45 181.7 360.21 181.25 356.22C180.43 348.22 179.25 337.07 177.61 324.83C175.97 312.59 174.32 301.56 173.04 293.57C172.4 289.62 171.87 286.4 171.5 284.12C171.33 283.04 171.2 282.18 171.1 281.55C171.061 281.248 171.048 280.944 171.06 280.64Z" fill="#FAFAFA"/>
<path d="M192.84 352.39C192.828 352.307 192.828 352.223 192.84 352.14C192.84 351.95 192.84 351.71 192.78 351.42C192.78 350.75 192.7 349.83 192.64 348.66C192.58 347.49 192.51 346 192.37 344.3C192.23 342.6 192.15 340.66 191.92 338.52C191.69 336.38 191.5 334.05 191.17 331.52C190.84 328.99 190.49 326.35 190.08 323.52C189.18 317.92 188.02 311.79 186.5 305.42C184.98 299.05 183.22 293.06 181.5 287.66C180.59 284.98 179.75 282.41 178.86 280.06C177.97 277.71 177.15 275.49 176.35 273.5C175.55 271.51 174.8 269.72 174.14 268.15C173.48 266.58 172.89 265.23 172.39 264.15C171.89 263.07 171.55 262.24 171.27 261.62L170.99 260.96C170.956 260.883 170.929 260.802 170.91 260.72C170.965 260.782 171.009 260.853 171.04 260.93L171.37 261.57L172.58 264.06C173.11 265.14 173.74 266.47 174.41 268.06C175.08 269.65 175.91 271.39 176.7 273.39C177.49 275.39 178.41 277.56 179.27 279.93C180.13 282.3 181.04 284.85 181.97 287.54C183.73 292.94 185.5 298.94 187.04 305.32C188.58 311.7 189.71 317.85 190.58 323.47C190.98 326.29 191.38 328.96 191.63 331.47C191.88 333.98 192.14 336.33 192.31 338.47C192.48 340.61 192.59 342.55 192.69 344.26C192.79 345.97 192.84 347.43 192.86 348.63C192.88 349.83 192.86 350.72 192.91 351.4V352.12C192.905 352.214 192.881 352.305 192.84 352.39Z" fill="#FAFAFA"/>
<path d="M169 241.65C169.197 241.653 169.392 241.684 169.58 241.74C170.128 241.874 170.663 242.055 171.18 242.28C173.079 243.139 174.755 244.422 176.08 246.03C178.002 248.437 179.521 251.138 180.58 254.03L184.7 264.44C187.56 271.81 190.15 278.44 192.06 283.38C192.95 285.77 193.69 287.72 194.23 289.15C194.46 289.79 194.65 290.31 194.79 290.73C194.867 290.91 194.924 291.098 194.96 291.29C194.848 291.126 194.757 290.947 194.69 290.76C194.52 290.36 194.3 289.85 194.04 289.22L191.7 283.52L184.2 264.63C182.76 260.94 181.38 257.43 180.12 254.22C179.098 251.368 177.637 248.692 175.79 246.29C174.517 244.698 172.913 243.402 171.09 242.49C169.8 241.84 169 241.71 169 241.65Z" fill="#FAFAFA"/>
<path d="M151.16 264.49C151.215 264.743 151.245 265.001 151.25 265.26C151.29 265.813 151.34 266.543 151.4 267.45C151.53 269.45 151.71 272.15 151.94 275.52C152.43 282.32 153.27 291.71 154.62 302.04C155.97 312.37 157.57 321.66 158.85 328.36C159.49 331.67 160.02 334.36 160.4 336.3C160.567 337.187 160.707 337.907 160.82 338.46C160.882 338.709 160.919 338.964 160.93 339.22C160.836 338.981 160.766 338.733 160.72 338.48C160.58 337.94 160.41 337.23 160.2 336.34C159.75 334.48 159.2 331.78 158.48 328.44C157.1 321.75 155.48 312.44 154.09 302.11C152.7 291.78 151.96 282.36 151.56 275.54C151.36 272.13 151.24 269.37 151.19 267.46C151.19 266.55 151.19 265.82 151.19 265.26C151.158 265.005 151.148 264.747 151.16 264.49Z" fill="#FAFAFA"/>
<path d="M225.54 291.56C225.35 291.341 225.182 291.103 225.04 290.85L223.7 288.77L218.84 281.07L211.71 269.61C209.01 265.31 206.13 260.51 202.96 255.61C201.417 253.224 199.71 250.948 197.85 248.8C196.108 246.812 194.157 245.019 192.03 243.45C185.95 238.976 178.698 236.37 171.16 235.95C170.09 235.88 169.26 235.87 168.69 235.88C168.404 235.904 168.116 235.904 167.83 235.88C168.114 235.834 168.402 235.81 168.69 235.81C169.516 235.766 170.344 235.766 171.17 235.81C174.217 235.899 177.24 236.37 180.17 237.21C184.526 238.418 188.638 240.377 192.32 243C194.487 244.576 196.472 246.387 198.24 248.4C200.123 250.563 201.847 252.859 203.4 255.27C206.6 260.2 209.4 265 212.12 269.32L219.12 280.83C221.12 284.09 222.68 286.74 223.82 288.62L225.08 290.76C225.251 291.016 225.404 291.284 225.54 291.56Z" fill="#FAFAFA"/>
<path d="M213.4 299.54C213.244 299.322 213.107 299.091 212.99 298.85L211.9 296.85L208 289.37L195.27 264.65C193.072 260.056 190.611 255.592 187.9 251.28C185.662 247.783 182.711 244.798 179.24 242.52C176.902 240.976 174.258 239.953 171.49 239.52C169.49 239.26 168.42 239.39 168.42 239.32C169.449 239.186 170.491 239.186 171.52 239.32C174.339 239.669 177.045 240.643 179.44 242.17C182.991 244.437 186.013 247.441 188.3 250.98C191.057 255.287 193.542 259.762 195.74 264.38L208.34 289.17C209.9 292.32 211.18 294.88 212.1 296.71C212.51 297.57 212.85 298.26 213.1 298.77C213.226 299.016 213.326 299.274 213.4 299.54Z" fill="#FAFAFA"/>
<g opacity="0.4">
<path d="M141.64 339.66C141.418 339.78 141.223 339.943 141.066 340.14C140.909 340.337 140.794 340.565 140.727 340.808C140.661 341.051 140.645 341.305 140.679 341.555C140.714 341.804 140.799 342.044 140.93 342.26C141.508 343.108 142.342 343.75 143.31 344.09C150.21 347.18 158.71 346.99 165.01 342.81C171.31 338.63 174.82 330.28 172.56 323.06C171.823 326.228 170.425 329.204 168.457 331.794C166.49 334.384 163.998 336.529 161.144 338.088C158.29 339.648 155.138 340.587 151.896 340.844C148.654 341.101 145.394 340.67 142.33 339.58" fill="black"/>
</g>
<g opacity="0.4">
<path d="M194.15 291.72L182.15 272.72C191.88 278.2 198.56 287.72 204.91 296.88C205.91 298.36 206.99 299.95 207.06 301.74C207.035 302.764 206.764 303.766 206.272 304.664C205.78 305.562 205.079 306.328 204.23 306.9C202.525 308.033 200.647 308.88 198.67 309.41C198.18 306.61 197.67 303.8 197.22 301" fill="black"/>
</g>
<path d="M209.31 195.41C207.68 194.1 205.36 193.92 203.69 192.66C200.25 190.07 201.24 184.8 200.5 180.55C199.69 175.93 196.55 172.13 194.06 168.16C191.57 164.19 188.68 158.43 190.52 154.16L156.87 215.86H209.65C209.65 215.86 211.25 206.15 211.53 203.32C211.81 200.49 211.53 197.18 209.31 195.41Z" fill="#263238"/>
<path d="M139.38 134.14C141.01 129.14 146.38 126.37 151.61 125.75C156.84 125.13 159.34 127.24 164.44 126.09C171.44 124.52 175.52 122.09 180.15 122.9C184.33 123.58 189.64 124.9 193.41 129.26C196.18 132.46 196.28 139.96 195.13 144.04C194.07 147.76 191.18 150.8 190.41 154.59C189.69 158.1 190.89 161.68 191.67 165.18C194 175.68 192.19 187.45 185.23 195.65C178.27 203.85 165.73 207.48 156.12 202.65" fill="#263238"/>
<path d="M169.41 281.09L167.66 220.85C167.66 220.85 182.91 218.59 186.42 198.85C188.16 189.01 187.95 172.85 187.35 159.58C186.81 147.66 174.2 135.58 162.35 136.58L123.75 143.22V149.62L123.37 237.56L169.43 281.12L169.41 281.09Z" fill="#F7A9A0"/>
<path d="M182.69 171.61C182.682 172.273 182.417 172.906 181.95 173.376C181.484 173.847 180.852 174.117 180.19 174.13C179.866 174.15 179.541 174.105 179.235 173.998C178.928 173.891 178.646 173.723 178.406 173.505C178.165 173.287 177.971 173.022 177.834 172.728C177.698 172.433 177.621 172.115 177.61 171.79C177.612 171.128 177.875 170.493 178.34 170.021C178.806 169.55 179.438 169.281 180.1 169.27C180.424 169.25 180.75 169.295 181.057 169.402C181.364 169.509 181.646 169.677 181.887 169.895C182.129 170.113 182.324 170.377 182.462 170.671C182.6 170.966 182.677 171.285 182.69 171.61Z" fill="#263238"/>
<path d="M183.69 167.89C183.37 168.22 181.47 166.76 178.69 166.72C175.91 166.68 173.92 168.01 173.63 167.67C173.49 167.52 173.82 166.93 174.7 166.3C175.901 165.501 177.319 165.093 178.76 165.13C180.187 165.149 181.57 165.622 182.71 166.48C183.58 167.14 183.85 167.75 183.69 167.89Z" fill="#263238"/>
<path d="M156.75 171.15C156.742 171.813 156.477 172.446 156.01 172.916C155.544 173.387 154.912 173.657 154.25 173.67C153.926 173.69 153.601 173.645 153.295 173.538C152.988 173.431 152.706 173.263 152.466 173.045C152.225 172.827 152.031 172.562 151.894 172.268C151.758 171.973 151.681 171.655 151.67 171.33C151.675 170.667 151.939 170.032 152.407 169.561C152.874 169.09 153.507 168.82 154.17 168.81C154.494 168.79 154.819 168.835 155.125 168.942C155.432 169.049 155.713 169.217 155.954 169.435C156.194 169.653 156.389 169.918 156.526 170.212C156.662 170.507 156.739 170.826 156.75 171.15Z" fill="#263238"/>
<path d="M156.77 167.93C156.45 168.25 154.54 166.79 151.77 166.75C149 166.71 147 168.04 146.71 167.7C146.57 167.55 146.9 166.96 147.79 166.34C148.99 165.538 150.408 165.125 151.85 165.16C153.273 165.184 154.652 165.657 155.79 166.51C156.65 167.18 156.92 167.78 156.77 167.93Z" fill="#263238"/>
<path d="M166.34 188.41C166.34 188.25 168.04 187.99 170.81 187.69C171.51 187.63 172.17 187.5 172.3 187.02C172.367 186.299 172.217 185.575 171.87 184.94L169.87 179.58C167.14 171.95 165.17 165.68 165.48 165.58C165.79 165.48 168.25 171.58 170.99 179.21L172.88 184.6C173.307 185.451 173.417 186.426 173.19 187.35C173.084 187.595 172.923 187.812 172.721 187.986C172.518 188.159 172.278 188.284 172.02 188.35C171.631 188.45 171.231 188.497 170.83 188.49C168.07 188.58 166.35 188.57 166.34 188.41Z" fill="#263238"/>
<path d="M167.66 220.85C158.314 220.824 149.158 218.207 141.21 213.29C141.21 213.29 147.42 227.03 167.31 225.53L167.66 220.85Z" fill="#7C3B29"/>
<path d="M165.07 195C164.562 194.334 163.891 193.809 163.123 193.475C162.355 193.141 161.514 193.008 160.68 193.09C160.075 193.133 159.485 193.298 158.946 193.574C158.406 193.851 157.928 194.234 157.54 194.7C157.166 195.15 156.938 195.703 156.888 196.286C156.838 196.869 156.968 197.453 157.26 197.96C157.689 198.465 158.259 198.83 158.897 199.008C159.535 199.186 160.212 199.169 160.84 198.96C162.136 198.529 163.335 197.85 164.37 196.96C164.682 196.743 164.953 196.472 165.17 196.16C165.269 196.012 165.322 195.838 165.322 195.66C165.322 195.482 165.269 195.308 165.17 195.16" fill="#7C3B29"/>
<path d="M158.25 190.16C158.7 190.16 158.65 193.16 161.16 195.27C163.67 197.38 166.83 197.15 166.85 197.57C166.85 197.76 166.13 198.14 164.85 198.15C163.077 198.163 161.357 197.542 160 196.4C158.727 195.317 157.924 193.783 157.76 192.12C157.7 190.87 158.05 190.14 158.25 190.16Z" fill="#263238"/>
<path d="M157.67 157.21C157.38 157.95 154.67 157.55 151.43 157.88C148.19 158.21 145.6 159.04 145.19 158.36C145 158.04 145.47 157.36 146.53 156.64C147.944 155.785 149.534 155.262 151.179 155.11C152.825 154.957 154.483 155.18 156.03 155.76C157.2 156.26 157.79 156.86 157.67 157.21Z" fill="#263238"/>
<path d="M182.83 160C182.33 160.61 180.46 159.94 178.19 159.86C175.92 159.78 173.99 160.21 173.56 159.55C173.38 159.23 173.69 158.61 174.56 158.04C175.7 157.357 177.017 157.026 178.344 157.09C179.672 157.154 180.951 157.61 182.02 158.4C182.79 159 183 159.65 182.83 160Z" fill="#263238"/>
<path d="M146.64 127C148.601 130.155 149.905 133.672 150.476 137.343C151.046 141.013 150.872 144.76 149.961 148.361C149.051 151.963 147.425 155.343 145.179 158.302C142.933 161.26 140.114 163.736 136.89 165.58C134.68 166.85 132.18 167.91 130.83 170.07C129.12 172.82 129.83 176.33 130.17 179.55C130.573 183.906 130.109 188.299 128.804 192.475C127.5 196.651 125.381 200.528 122.57 203.88C118.78 196.51 114.96 189.02 113.3 180.88C112.46 176.78 112.17 172.53 110.68 168.62C109.8 166.28 108.49 164.12 107.68 161.74C106.446 157.318 106.649 152.619 108.26 148.32C110.956 140.4 116.673 133.866 124.166 130.142C131.658 126.418 140.319 125.806 148.26 128.44" fill="#263238"/>
<path d="M112.13 140.77C103.2 153.84 107.55 162.35 104.13 169.04C101.62 173.9 95.7902 175.84 91.6502 179.4C86.0102 184.25 83.7202 192.11 83.9302 199.55C84.1402 206.99 86.5402 214.15 88.9302 221.2L136.93 221.44C140.65 209.73 131.36 197.05 134.34 185.13C135.34 181.07 137.78 177.32 137.92 173.13C138.01 170.35 137.08 167.64 136.46 164.92C134.72 157.193 135.502 149.111 138.69 141.86" fill="#263238"/>
<path d="M195.17 135C195.11 135 194.84 134.38 194.07 133.38C192.956 132.007 191.53 130.92 189.91 130.21C187.501 129.152 184.878 128.672 182.25 128.81C179.037 129.083 175.879 129.81 172.87 130.97C169.62 132.12 166.54 133.34 163.61 134.05C161.001 134.729 158.298 134.969 155.61 134.76C153.802 134.609 152.039 134.11 150.42 133.29C149.987 133.063 149.572 132.802 149.18 132.51C149.036 132.417 148.902 132.31 148.78 132.19C148.78 132.13 149.38 132.56 150.52 133.1C152.135 133.834 153.87 134.268 155.64 134.38C158.27 134.536 160.908 134.262 163.45 133.57C166.33 132.85 169.39 131.57 172.65 130.47C175.707 129.287 178.922 128.562 182.19 128.32C184.889 128.203 187.576 128.731 190.03 129.86C191.68 130.631 193.113 131.799 194.2 133.26C194.485 133.66 194.733 134.085 194.94 134.53C195.039 134.675 195.117 134.833 195.17 135Z" fill="#455A64"/>
<path d="M188.22 168.62C188.22 168.62 188.39 168.71 188.68 168.93C188.86 169.061 189.028 169.208 189.18 169.37C189.405 169.576 189.61 169.804 189.79 170.05C190.966 171.618 191.701 173.472 191.92 175.42C192.12 176.744 192.217 178.081 192.21 179.42C192.21 180.87 192.13 182.42 192.16 183.99C192.155 185.654 192.349 187.313 192.74 188.93C193.133 190.652 194.019 192.223 195.29 193.45C196.697 194.561 198.215 195.523 199.82 196.32C201.353 197.14 202.622 198.378 203.48 199.89C204.787 202.518 205.1 205.53 204.36 208.37C203.888 210.252 203.218 212.079 202.36 213.82C202.08 214.44 201.84 214.91 201.68 215.23C201.605 215.398 201.515 215.559 201.41 215.71C201.44 215.529 201.497 215.354 201.58 215.19L202.17 213.73C202.928 211.976 203.521 210.155 203.94 208.29C204.22 207.01 204.315 205.697 204.22 204.39C204.131 202.895 203.715 201.437 203 200.12C202.174 198.695 200.96 197.533 199.5 196.77C197.862 195.957 196.314 194.975 194.88 193.84C193.528 192.548 192.589 190.885 192.18 189.06C191.788 187.402 191.6 185.703 191.62 184C191.62 182.38 191.7 180.84 191.72 179.42C191.738 178.103 191.665 176.787 191.5 175.48C191.311 173.581 190.652 171.759 189.58 170.18C189.158 169.634 188.704 169.113 188.22 168.62Z" fill="#455A64"/>
<path d="M106.49 219.41C106.436 219.331 106.389 219.247 106.35 219.16L106 218.41C105.568 217.431 105.187 216.429 104.86 215.41C104.325 213.802 103.937 212.148 103.7 210.47C103.386 208.24 103.407 205.975 103.76 203.75C104.199 201.04 105.242 198.463 106.81 196.21C108.52 193.76 111.15 191.93 113.71 189.92C115.034 188.917 116.241 187.77 117.31 186.5C118.375 185.149 119.127 183.577 119.51 181.9C120.3 178.47 119.77 174.74 119 171.07C118.23 167.4 117.32 163.73 117.48 160.07C117.532 158.282 117.926 156.52 118.64 154.88C119.363 153.319 120.382 151.913 121.64 150.74C123.986 148.64 126.698 146.989 129.64 145.87C132.34 144.75 134.91 143.87 137.16 142.87C139.201 141.999 141.112 140.852 142.84 139.46C144.141 138.406 145.257 137.142 146.14 135.72C146.699 134.821 147.12 133.843 147.39 132.82C147.58 132.12 147.63 131.74 147.66 131.74C147.643 132.114 147.59 132.486 147.5 132.85C147.268 133.906 146.87 134.919 146.32 135.85C145.454 137.32 144.341 138.629 143.03 139.72C141.3 141.158 139.374 142.343 137.31 143.24C135.05 144.29 132.48 145.24 129.81 146.33C126.936 147.445 124.289 149.075 122 151.14C120.8 152.276 119.832 153.634 119.15 155.14C118.459 156.719 118.082 158.417 118.04 160.14C117.89 163.67 118.76 167.29 119.56 170.98C120.36 174.67 120.89 178.47 120.06 182.04C119.66 183.793 118.87 185.433 117.75 186.84C116.653 188.14 115.412 189.311 114.05 190.33C111.46 192.33 108.88 194.13 107.21 196.49C105.676 198.686 104.651 201.197 104.21 203.84C103.616 207.703 103.931 211.651 105.13 215.37C105.53 216.69 105.92 217.7 106.13 218.37L106.43 219.14C106.463 219.227 106.483 219.318 106.49 219.41Z" fill="#455A64"/>
<path d="M147.09 131.77C146.984 131.785 146.876 131.785 146.77 131.77L145.77 131.68C144.93 131.61 143.7 131.49 142.11 131.42C137.633 131.169 133.146 131.662 128.83 132.88C125.888 133.767 123.123 135.161 120.66 137C117.79 139.089 115.499 141.872 114 145.09C112.43 148.48 112.13 152.49 112.18 156.55C112.23 160.61 112.58 164.92 111.75 169.25C111.376 171.401 110.61 173.466 109.49 175.34C108.353 177.139 106.834 178.665 105.04 179.81C101.59 182.1 97.8202 183.48 94.9602 185.88C92.2741 188.204 90.4698 191.382 89.8502 194.88C89.2647 197.909 89.3329 201.029 90.0502 204.03C90.66 206.506 91.5736 208.898 92.7702 211.15C93.6759 212.871 94.6775 214.541 95.7702 216.15C96.6702 217.46 97.4002 218.46 97.8902 219.15L98.4502 219.92L98.6302 220.19C98.6302 220.19 98.5502 220.11 98.4102 219.95L97.8002 219.21C97.2802 218.55 96.5202 217.58 95.6002 216.27C94.4777 214.691 93.4524 213.044 92.5302 211.34C91.2938 209.077 90.3464 206.669 89.7102 204.17C88.9479 201.119 88.8558 197.94 89.4402 194.85C90.0616 191.254 91.9055 187.983 94.6602 185.59C97.6602 183.11 101.4 181.71 104.77 179.46C106.497 178.348 107.961 176.874 109.06 175.14C110.14 173.319 110.879 171.316 111.24 169.23C112.06 164.99 111.71 160.73 111.68 156.63C111.65 152.53 111.95 148.46 113.57 144.97C115.107 141.689 117.45 138.85 120.38 136.72C122.905 134.861 125.739 133.463 128.75 132.59C133.112 131.386 137.649 130.947 142.16 131.29C143.75 131.38 144.98 131.54 145.81 131.64L146.75 131.79C146.862 131.768 146.976 131.761 147.09 131.77Z" fill="#455A64"/>
<path d="M121.78 221.5C122.941 220.911 124.001 220.142 124.92 219.22C125.976 218.124 126.832 216.851 127.45 215.46C128.263 213.615 128.747 211.642 128.88 209.63C129.028 207.187 128.785 204.736 128.16 202.37C127.449 199.655 126.581 196.984 125.56 194.37C124.412 191.443 123.482 188.435 122.78 185.37C122.005 182.051 122.005 178.599 122.78 175.28C123.232 173.605 123.959 172.017 124.93 170.58C125.884 169.205 126.987 167.941 128.22 166.81C130.62 164.57 133.22 162.81 135.6 160.99C137.889 159.358 139.966 157.447 141.78 155.3C143.321 153.402 144.571 151.286 145.49 149.02C146.846 145.728 147.503 142.19 147.42 138.63C147.424 138.075 147.394 137.521 147.33 136.97C147.311 136.561 147.268 136.154 147.2 135.75C147.2 135.44 147.13 135.2 147.11 135C147.099 134.914 147.099 134.826 147.11 134.74C147.432 136.013 147.613 137.318 147.65 138.63C147.807 142.227 147.197 145.817 145.86 149.16C144.948 151.472 143.698 153.635 142.15 155.58C140.321 157.764 138.229 159.712 135.92 161.38C133.55 163.22 130.92 164.98 128.6 167.19C127.396 168.293 126.319 169.527 125.39 170.87C124.453 172.262 123.754 173.799 123.32 175.42C122.565 178.66 122.565 182.03 123.32 185.27C123.995 188.295 124.891 191.266 126 194.16C127.018 196.81 127.876 199.518 128.57 202.27C129.18 204.683 129.406 207.177 129.24 209.66C129.076 211.708 128.554 213.711 127.7 215.58C127.045 216.989 126.148 218.271 125.05 219.37C124.352 220.059 123.557 220.641 122.69 221.1L122 221.41L121.78 221.5Z" fill="#455A64"/>
<path d="M149.15 140.32C154.23 143.87 159.85 147.59 166.03 147.15C169.7 146.89 173.09 145.15 176.58 144.02C180.07 142.89 184.13 142.32 187.26 144.26C189.26 144.09 190.26 141.34 189.34 139.52C188.42 137.7 186.44 136.7 184.52 136.05C173.4 132.26 162.32 136.55 149.82 137.36" fill="#263238"/>
<path d="M194.7 143.57C194.963 142.935 195.105 142.257 195.12 141.57C195.108 140.655 194.862 139.758 194.405 138.965C193.948 138.172 193.296 137.51 192.51 137.04C191.423 136.394 190.193 136.027 188.93 135.97C187.471 135.929 186.018 136.17 184.65 136.68C181.65 137.68 178.92 139.78 175.54 141.21C173.901 141.909 172.186 142.412 170.43 142.71C168.781 143.008 167.105 143.129 165.43 143.07C162.623 143.009 159.847 142.457 157.23 141.44C155.453 140.77 153.772 139.869 152.23 138.76C151.816 138.448 151.418 138.114 151.04 137.76C150.77 137.54 150.64 137.41 150.65 137.39C152.697 138.909 154.941 140.144 157.32 141.06C159.91 142.008 162.642 142.512 165.4 142.55C167.025 142.588 168.65 142.461 170.25 142.17C171.969 141.875 173.647 141.378 175.25 140.69C178.55 139.3 181.37 137.18 184.41 136.18C185.837 135.662 187.353 135.431 188.87 135.5C190.204 135.572 191.498 135.981 192.63 136.69C193.567 137.277 194.311 138.125 194.77 139.13C195.117 139.884 195.278 140.711 195.24 141.54C195.226 142.061 195.111 142.574 194.9 143.05C194.868 143.235 194.8 143.412 194.7 143.57Z" fill="#455A64"/>
<path d="M267.2 316.74L221.54 396.47L156.89 398.71V405.82H345.77L397.18 321.61C397.622 320.885 397.864 320.056 397.879 319.207C397.895 318.359 397.684 317.521 397.268 316.781C396.853 316.04 396.248 315.424 395.515 314.995C394.783 314.566 393.949 314.34 393.1 314.34H271.35C270.509 314.341 269.682 314.564 268.954 314.985C268.226 315.406 267.621 316.011 267.2 316.74Z" fill="#263238"/>
<path d="M320.28 362.92C317.98 366.5 314.03 368.05 311.45 366.4C308.87 364.75 308.64 360.5 310.94 356.92C313.24 353.34 317.19 351.79 319.77 353.45C322.35 355.11 322.58 359.35 320.28 362.92Z" fill="#E0E0E0"/>
<path d="M227.58 405.51C227.46 405.43 238.78 384.96 252.88 359.79C266.98 334.62 278.52 314.27 278.65 314.34C278.78 314.41 267.45 334.87 253.35 360.05C239.25 385.23 227.71 405.58 227.58 405.51Z" fill="#455A64"/>
<path d="M425.47 354.08L433.3 405.5H478.76L489.31 354.82L425.47 354.08Z" fill="#9B1339"/>
<path d="M483 387C483 387.14 471.35 387.26 457 387.26C442.65 387.26 431 387.14 431 387C431 386.86 442.65 386.73 457 386.73C471.35 386.73 483 386.89 483 387Z" fill="#FAFAFA"/>
<path d="M483.13 384.51C483.13 384.66 471.41 384.78 456.94 384.78C442.47 384.78 430.74 384.66 430.74 384.51C430.74 384.36 442.47 384.24 456.94 384.24C471.41 384.24 483.13 384.36 483.13 384.51Z" fill="#FAFAFA"/>
<path d="M483 381.65C483 381.8 471.28 381.92 456.81 381.92C442.34 381.92 430.61 381.8 430.61 381.65C430.61 381.5 442.34 381.39 456.81 381.39C471.28 381.39 483 381.5 483 381.65Z" fill="#FAFAFA"/>
<path d="M438.52 402.57C437.422 398.304 436.667 393.957 436.26 389.57C436.896 391.689 437.361 393.856 437.65 396.05C438.118 398.196 438.409 400.377 438.52 402.57Z" fill="#FAFAFA"/>
<path d="M441.61 402C441.292 399.91 441.105 397.803 441.05 395.69C440.815 393.585 440.714 391.468 440.75 389.35C441.253 391.414 441.532 393.526 441.58 395.65C441.815 397.76 441.825 399.888 441.61 402Z" fill="#FAFAFA"/>
<path d="M447.25 402C446.192 397.749 445.678 393.381 445.72 389C446.136 391.152 446.43 393.325 446.6 395.51C446.943 397.659 447.16 399.826 447.25 402Z" fill="#FAFAFA"/>
<path d="M451.21 402.29C450.767 400.125 450.555 397.92 450.58 395.71C450.417 393.506 450.485 391.29 450.78 389.1C451.017 391.289 451.127 393.489 451.11 395.69C451.273 397.886 451.306 400.09 451.21 402.29Z" fill="#FAFAFA"/>
<path d="M458.21 402C457.711 397.847 457.57 393.658 457.79 389.48C458.29 393.634 458.431 397.822 458.21 402Z" fill="#FAFAFA"/>
<path d="M463.33 402.3C463.082 400.153 463.009 397.989 463.11 395.83C463.044 393.672 463.151 391.511 463.43 389.37C463.684 391.517 463.758 393.681 463.65 395.84C463.722 397.998 463.615 400.159 463.33 402.3Z" fill="#FAFAFA"/>
<path d="M468.13 401.61C468.075 399.353 468.202 397.096 468.51 394.86C468.644 392.603 468.951 390.36 469.43 388.15C469.484 390.41 469.354 392.671 469.04 394.91C468.906 397.163 468.602 399.403 468.13 401.61Z" fill="#FAFAFA"/>
<path d="M474.31 400.94C474.321 398.998 474.58 397.066 475.08 395.19C475.4 393.278 475.968 391.415 476.77 389.65C476.482 391.556 476.091 393.446 475.6 395.31C475.276 397.209 474.845 399.089 474.31 400.94Z" fill="#FAFAFA"/>
<path d="M469.93 252.6C469.925 252.685 469.908 252.769 469.88 252.85C469.82 253.05 469.75 253.29 469.67 253.58L468.8 256.36C468.41 257.56 467.95 259.03 467.47 260.76C466.99 262.49 466.37 264.43 465.83 266.62C465.29 268.81 464.62 271.19 464.05 273.78C463.48 276.37 462.89 279.14 462.3 282.06C461.21 287.93 460.22 294.41 459.52 301.25C458.82 308.09 458.52 314.66 458.45 320.62C458.45 323.62 458.45 326.44 458.54 329.09C458.63 331.74 458.72 334.21 458.86 336.46C459 338.71 459.17 340.74 459.31 342.53C459.45 344.32 459.6 345.85 459.74 347.11C459.88 348.37 459.97 349.29 460.04 350C460.04 350.3 460.04 350.55 460.11 350.75C460.123 350.836 460.123 350.924 460.11 351.01C460.077 350.93 460.057 350.846 460.05 350.76C460.05 350.56 459.98 350.31 459.94 350.01C459.84 349.31 459.71 348.35 459.54 347.13C459.37 345.91 459.17 344.35 459.01 342.56C458.85 340.77 458.6 338.74 458.48 336.48C458.36 334.22 458.16 331.76 458.09 329.1C458.02 326.44 457.98 323.61 457.96 320.62C458.03 314.62 458.32 308.07 458.96 301.2C459.6 294.33 460.68 287.84 461.8 281.97C462.41 279.04 462.95 276.26 463.6 273.68C464.25 271.1 464.84 268.68 465.44 266.52C466.04 264.36 466.64 262.39 467.16 260.67C467.68 258.95 468.16 257.48 468.58 256.29C469 255.1 469.31 254.21 469.58 253.55L469.85 252.84C469.868 252.757 469.894 252.677 469.93 252.6Z" fill="#455A64"/>
<path d="M461.73 284.44C462.977 280.735 465.477 277.58 468.8 275.52C469.92 274.82 471.34 274.25 472.53 274.83C474.12 275.6 474.25 277.83 473.78 279.53C472.956 282.404 471.129 284.888 468.63 286.53C466.412 288.167 463.64 288.868 460.91 288.48" fill="#455A64"/>
<path d="M459 306C460.17 301.56 463.71 295.25 467.39 292.5C467.956 292.046 468.605 291.706 469.3 291.5C469.645 291.408 470.007 291.401 470.356 291.479C470.704 291.557 471.028 291.719 471.3 291.95C471.613 292.364 471.818 292.85 471.897 293.363C471.975 293.876 471.925 294.401 471.75 294.89C471 298.129 469.362 301.095 467.019 303.455C464.677 305.815 461.724 307.475 458.49 308.25" fill="#455A64"/>
<path d="M458.2 324.88C460.028 320.641 462.951 316.965 466.67 314.23C467.065 313.864 467.53 313.581 468.037 313.399C468.544 313.217 469.082 313.139 469.62 313.17C471.23 313.47 471.96 315.43 471.82 317.05C471.53 320.4 468.97 323.05 466.33 325.17C463.905 326.838 461.273 328.182 458.5 329.17" fill="#455A64"/>
<path d="M458.63 338.48C460.4 335.249 462.862 332.449 465.84 330.28C466.472 329.783 467.212 329.44 468 329.28C468.394 329.21 468.799 329.248 469.173 329.391C469.546 329.533 469.874 329.775 470.12 330.09C470.84 331.15 470.12 332.58 469.38 333.61C466.835 337.145 463.237 339.784 459.1 341.15" fill="#455A64"/>
<path d="M458.28 333C455.183 329.18 451.742 325.652 448 322.46C447.748 322.172 447.43 321.951 447.072 321.815C446.715 321.679 446.33 321.633 445.95 321.68C445.678 321.798 445.444 321.992 445.278 322.238C445.111 322.484 445.018 322.773 445.01 323.07C445.006 323.666 445.139 324.254 445.4 324.79C446.623 327.532 448.447 329.963 450.737 331.903C453.028 333.844 455.725 335.244 458.63 336" fill="#455A64"/>
<path d="M458.6 315.25L450.51 305.38C449.801 304.393 448.912 303.548 447.89 302.89C447.369 302.574 446.77 302.407 446.16 302.407C445.55 302.407 444.952 302.574 444.43 302.89C443.961 303.277 443.61 303.787 443.415 304.363C443.221 304.939 443.191 305.558 443.33 306.15C443.616 307.33 444.151 308.435 444.9 309.39C446.476 311.814 448.474 313.934 450.8 315.65C453.18 317.29 455.34 318.35 458.19 317.93" fill="#455A64"/>
<path d="M459.73 295.31C458.145 290.589 455.336 286.372 451.59 283.09C451.001 282.497 450.267 282.069 449.46 281.85C447.84 281.54 446.28 282.85 445.75 284.46C445.493 285.354 445.426 286.292 445.554 287.213C445.681 288.135 446 289.019 446.49 289.81C447.485 291.377 448.776 292.736 450.29 293.81C453.018 295.89 456.055 297.53 459.29 298.67" fill="#455A64"/>
<path d="M463 277.54C462.22 271.82 459.24 267.06 455.79 262.43C455.07 261.43 454.05 260.43 452.85 260.6C452.47 260.681 452.116 260.857 451.821 261.11C451.526 261.363 451.298 261.686 451.16 262.05C450.889 262.781 450.78 263.563 450.84 264.34C450.991 267.805 452.158 271.148 454.196 273.954C456.234 276.76 459.052 278.905 462.3 280.12" fill="#455A64"/>
<path d="M465.23 268.46C464.851 265.529 464.75 262.57 464.93 259.62C465.117 256.652 466.136 253.796 467.87 251.38C468.611 250.339 469.63 249.528 470.81 249.04C471.401 248.802 472.043 248.721 472.674 248.805C473.305 248.889 473.903 249.135 474.41 249.52C474.841 249.922 475.175 250.415 475.388 250.964C475.601 251.513 475.687 252.103 475.64 252.69C475.542 253.865 475.234 255.013 474.73 256.08C472.58 261.27 468.98 267.01 465.23 268.46Z" fill="#455A64"/>
<path d="M430 275.28C430.028 275.519 430.028 275.761 430 276C430 276.53 430 277.22 430 278.08C430 278.94 430 280.08 430 281.36C430 282.64 430.05 284.1 430.16 285.7C430.3 288.92 430.61 292.7 431.1 296.97C431.59 301.24 432.34 305.82 433.34 310.63C434.34 315.44 435.56 319.96 436.78 324.04C438 328.12 439.28 331.73 440.44 334.74C440.99 336.25 441.57 337.59 442.04 338.74C442.51 339.89 442.95 340.94 443.32 341.74C443.69 342.54 443.92 343.17 444.13 343.65C444.236 343.868 444.32 344.096 444.38 344.33C444.24 344.134 444.122 343.923 444.03 343.7L443.13 341.83C442.73 341.01 442.27 340.01 441.77 338.83C441.27 337.65 440.66 336.32 440.09 334.83C438.88 331.83 437.59 328.22 436.31 324.14C435.03 320.06 433.84 315.52 432.82 310.7C431.8 305.88 431.11 301.23 430.61 296.99C430.11 292.75 429.87 288.91 429.78 285.68C429.7 284.07 429.72 282.61 429.7 281.32C429.68 280.03 429.7 278.94 429.7 278.04C429.7 277.14 429.76 276.49 429.78 275.96C429.83 275.726 429.903 275.498 430 275.28Z" fill="#263238"/>
<path d="M431.24 298.72C431.296 295.929 432.318 293.243 434.13 291.12C434.398 290.73 434.756 290.41 435.174 290.189C435.592 289.968 436.057 289.852 436.53 289.85C437.77 290.03 438.34 291.52 438.38 292.78C438.448 294.918 437.737 297.007 436.38 298.66C435.226 300.26 433.486 301.338 431.54 301.66" fill="#263238"/>
<path d="M434 314C433.84 310.72 434.89 305.67 436.81 303C437.091 302.563 437.458 302.188 437.89 301.9C438.106 301.756 438.354 301.668 438.613 301.644C438.871 301.619 439.131 301.659 439.37 301.76C439.675 301.974 439.921 302.261 440.087 302.595C440.253 302.928 440.333 303.298 440.32 303.67C440.503 306.037 440.023 308.409 438.936 310.519C437.848 312.629 436.194 314.395 434.16 315.62" fill="#263238"/>
<path d="M437.54 327C437.874 323.721 439.075 320.591 441.02 317.93C441.21 317.596 441.466 317.305 441.772 317.073C442.078 316.841 442.427 316.673 442.8 316.58C443.96 316.43 444.88 317.58 445.13 318.74C445.65 321.09 444.49 323.46 443.13 325.45C441.841 327.113 440.338 328.6 438.66 329.87" fill="#263238"/>
<path d="M440.76 336.18C441.271 333.602 442.343 331.167 443.9 329.05C444.233 328.583 444.667 328.196 445.17 327.92C445.422 327.788 445.704 327.727 445.988 327.743C446.271 327.758 446.545 327.851 446.78 328.01C447.5 328.58 447.34 329.71 447.04 330.57C446.07 333.528 444.186 336.101 441.66 337.92" fill="#263238"/>
<path d="M439.33 332.49C436.398 330.569 433.295 328.922 430.06 327.57C429.828 327.426 429.564 327.343 429.291 327.327C429.019 327.312 428.747 327.364 428.5 327.48C428.336 327.617 428.216 327.799 428.154 328.003C428.092 328.207 428.091 328.425 428.15 328.63C428.274 329.036 428.493 329.406 428.79 329.71C430.216 331.309 431.984 332.566 433.963 333.386C435.942 334.207 438.081 334.571 440.22 334.45" fill="#263238"/>
<path d="M435.74 320.37L428.11 315.37C427.412 314.856 426.626 314.473 425.79 314.24C425.369 314.133 424.926 314.143 424.51 314.27C424.094 314.397 423.72 314.636 423.43 314.96C423.193 315.322 423.061 315.743 423.051 316.176C423.04 316.609 423.151 317.037 423.37 317.41C423.824 318.153 424.43 318.791 425.15 319.28C426.741 320.596 428.557 321.612 430.51 322.28C432.51 322.88 434.18 323.14 436.03 322.28" fill="#263238"/>
<path d="M432.22 306.55C430.109 303.677 427.272 301.416 424 300C423.473 299.727 422.884 299.596 422.29 299.62C421.708 299.744 421.188 300.07 420.822 300.54C420.456 301.011 420.268 301.595 420.29 302.19C420.307 302.855 420.462 303.508 420.747 304.109C421.031 304.71 421.437 305.245 421.94 305.68C422.954 306.544 424.131 307.197 425.4 307.6C427.704 308.429 430.123 308.891 432.57 308.97" fill="#263238"/>
<path d="M430.59 293.76C428.83 290.03 425.78 287.43 422.43 285.02C422.12 284.719 421.736 284.504 421.316 284.397C420.897 284.29 420.457 284.294 420.04 284.41C419.798 284.547 419.595 284.742 419.448 284.978C419.301 285.214 419.216 285.483 419.2 285.76C419.169 286.317 419.261 286.873 419.47 287.39C420.317 289.718 421.831 291.744 423.823 293.217C425.815 294.689 428.196 295.543 430.67 295.67" fill="#263238"/>
<path d="M430.18 287.09C429.296 285.159 428.593 283.151 428.08 281.09C427.567 279.031 427.643 276.868 428.3 274.85C428.582 273.981 429.102 273.209 429.8 272.62C430.154 272.334 430.574 272.143 431.022 272.064C431.47 271.985 431.93 272.022 432.36 272.17C432.739 272.353 433.073 272.619 433.336 272.948C433.599 273.276 433.785 273.66 433.88 274.07C434.062 274.891 434.099 275.737 433.99 276.57C433.64 280.57 432.43 285.25 430.18 287.05" fill="#263238"/>
<path d="M487.45 274.78C487.497 275.017 487.52 275.258 487.52 275.5C487.52 276.03 487.52 276.72 487.6 277.58C487.68 278.44 487.6 279.58 487.6 280.87C487.6 282.16 487.6 283.61 487.53 285.22C487.43 288.45 487.16 292.28 486.7 296.53C486.24 300.78 485.49 305.41 484.49 310.24C483.49 315.07 482.25 319.6 481 323.68C479.75 327.76 478.43 331.38 477.22 334.37C476.64 335.88 476.04 337.21 475.54 338.37C475.04 339.53 474.54 340.56 474.18 341.37L473.28 343.24C473.183 343.46 473.066 343.671 472.93 343.87C472.991 343.636 473.075 343.408 473.18 343.19C473.39 342.71 473.66 342.07 473.99 341.28C474.32 340.49 474.79 339.45 475.26 338.28C475.73 337.11 476.32 335.75 476.87 334.28C478.03 331.28 479.28 327.65 480.53 323.58C481.78 319.51 482.95 314.98 483.97 310.17C484.99 305.36 485.69 300.74 486.21 296.51C486.73 292.28 487.01 288.46 487.15 285.24C487.26 283.64 487.26 282.18 487.31 280.9C487.36 279.62 487.36 278.52 487.36 277.62C487.36 276.72 487.36 276.07 487.36 275.54C487.371 275.285 487.401 275.031 487.45 274.78Z" fill="#455A64"/>
<path d="M486.19 298.23C486.133 295.439 485.112 292.754 483.3 290.63C483.034 290.238 482.676 289.917 482.258 289.694C481.84 289.471 481.374 289.353 480.9 289.35C479.65 289.53 479.09 291.03 479.04 292.28C478.976 294.42 479.686 296.512 481.04 298.17C482.194 299.765 483.929 300.843 485.87 301.17" fill="#455A64"/>
<path d="M483.44 313.46C483.6 310.19 482.54 305.13 480.63 302.46C480.347 302.025 479.98 301.651 479.55 301.36C479.334 301.216 479.086 301.128 478.828 301.104C478.57 301.079 478.309 301.119 478.07 301.22C477.766 301.434 477.519 301.721 477.353 302.055C477.187 302.388 477.107 302.758 477.12 303.13C476.935 305.498 477.414 307.87 478.502 309.981C479.59 312.091 481.245 313.857 483.28 315.08" fill="#455A64"/>
<path d="M479.88 326.51C479.554 323.231 478.356 320.099 476.41 317.44C476.22 317.106 475.964 316.815 475.659 316.583C475.353 316.351 475.003 316.183 474.63 316.09C473.47 315.94 472.55 317.09 472.3 318.26C471.78 320.6 472.94 322.98 474.3 324.96C475.588 326.624 477.087 328.113 478.76 329.39" fill="#455A64"/>
<path d="M476.66 335.68C476.157 333.099 475.084 330.664 473.52 328.55C473.194 328.081 472.762 327.694 472.26 327.42C472.007 327.288 471.722 327.227 471.436 327.244C471.151 327.262 470.876 327.357 470.64 327.52C469.92 328.08 470.08 329.21 470.39 330.07C471.361 333.028 473.245 335.601 475.77 337.42" fill="#455A64"/>
<path d="M478.1 332C481.03 330.072 484.133 328.422 487.37 327.07C487.602 326.926 487.866 326.843 488.139 326.827C488.411 326.812 488.683 326.864 488.93 326.98C489.094 327.117 489.214 327.299 489.276 327.503C489.338 327.707 489.339 327.925 489.28 328.13C489.152 328.534 488.933 328.904 488.64 329.21C487.217 330.816 485.45 332.08 483.472 332.91C481.493 333.739 479.353 334.112 477.21 334" fill="#455A64"/>
<path d="M481.68 319.87L489.32 314.87C490.017 314.353 490.804 313.97 491.64 313.74C492.062 313.634 492.505 313.645 492.921 313.772C493.336 313.899 493.71 314.137 494 314.46C494.237 314.823 494.366 315.245 494.375 315.678C494.384 316.111 494.272 316.538 494.05 316.91C493.601 317.653 492.997 318.29 492.28 318.78C490.69 320.096 488.874 321.112 486.92 321.78C484.92 322.38 483.25 322.64 481.4 321.78" fill="#455A64"/>
<path d="M485.21 306.06C487.303 303.182 490.122 300.911 493.38 299.48C493.911 299.208 494.504 299.078 495.1 299.1C495.683 299.224 496.203 299.55 496.569 300.02C496.934 300.491 497.123 301.075 497.1 301.67C497.081 302.334 496.925 302.987 496.641 303.588C496.357 304.188 495.951 304.724 495.45 305.16C494.436 306.024 493.26 306.677 491.99 307.08C489.684 307.914 487.261 308.377 484.81 308.45" fill="#455A64"/>
<path d="M486.83 293.26C488.6 289.53 491.65 286.93 494.99 284.52C495.303 284.22 495.689 284.005 496.11 283.898C496.53 283.792 496.971 283.796 497.39 283.91C497.633 284.048 497.838 284.245 497.984 284.482C498.131 284.72 498.216 284.991 498.23 285.27C498.255 285.823 498.163 286.375 497.96 286.89C497.112 289.219 495.597 291.247 493.603 292.719C491.609 294.192 489.225 295.044 486.75 295.17" fill="#455A64"/>
<path d="M487.24 286.59C488.132 284.661 488.838 282.652 489.35 280.59C489.865 278.53 489.786 276.366 489.12 274.35C488.844 273.484 488.327 272.714 487.63 272.13C487.279 271.84 486.858 271.646 486.409 271.567C485.961 271.488 485.499 271.527 485.07 271.68C484.689 271.859 484.355 272.122 484.091 272.449C483.828 272.777 483.643 273.16 483.55 273.57C483.358 274.389 483.321 275.237 483.44 276.07C483.79 280.07 485 284.75 487.24 286.55" fill="#455A64"/>
<path d="M420.25 343.89V353.52C420.25 354.525 420.649 355.489 421.36 356.2C422.071 356.911 423.035 357.31 424.04 357.31H489.88C490.378 357.31 490.871 357.212 491.33 357.022C491.79 356.831 492.208 356.552 492.56 356.2C492.912 355.848 493.191 355.43 493.382 354.97C493.572 354.511 493.67 354.018 493.67 353.52V343.89H420.25Z" fill="#9B1339"/>
<g opacity="0.4">
<path d="M425.96 357.31L426.51 360.37L487.26 364.7L488.8 357.31H425.96Z" fill="black"/>
</g>
</g>
<rect x="0.5" y="1" width="579" height="398" rx="14.5" stroke="black" stroke-opacity="0.2"/>
<defs>
<clipPath id="clip0_37_1171">
<rect y="0.5" width="580" height="399" rx="15" fill="white"/>
</clipPath>
</defs>
</svg>
